<svg width="25" height="25" viewBox="0 0 25 25" fill="none" xmlns="http://www.w3.org/2000/svg">
<g clip-path="url(#clip0_1_88)">
<path d="M21.4 4.791C21.0478 3.82722 20.4082 2.9948 19.5676 2.40623C18.7271 1.81767 17.7261 1.50134 16.7 1.5H8.30001C7.27388 1.50134 6.27291 1.81767 5.43236 2.40623C4.59181 2.9948 3.95222 3.82722 3.60001 4.791L0.900005 12.218C0.634454 12.9495 0.499075 13.7218 0.500005 14.5V15.5C0.501789 16.2728 0.683437 17.0346 1.03057 17.725C1.3777 18.4155 1.88079 19.0156 2.50001 19.478C2.50001 19.486 2.50001 19.492 2.50001 19.5V21.5C2.50001 22.2956 2.81608 23.0587 3.37868 23.6213C3.94129 24.1839 4.70436 24.5 5.50001 24.5C6.29565 24.5 7.05872 24.1839 7.62133 23.6213C8.18394 23.0587 8.50001 22.2956 8.50001 21.5V20.5H16.5V21.5C16.5 22.2956 16.8161 23.0587 17.3787 23.6213C17.9413 24.1839 18.7044 24.5 19.5 24.5C20.2957 24.5 21.0587 24.1839 21.6213 23.6213C22.1839 23.0587 22.5 22.2956 22.5 21.5V19.5C22.5 19.492 22.5 19.486 22.5 19.478C23.1192 19.0156 23.6223 18.4155 23.9694 17.725C24.3166 17.0346 24.4982 16.2728 24.5 15.5V14.5C24.501 13.7221 24.3656 12.9501 24.1 12.219L21.4 4.791ZM5.48201 5.475C5.69344 4.89717 6.07694 4.39805 6.58081 4.04491C7.08469 3.69177 7.68471 3.50159 8.30001 3.5H16.7C17.3156 3.50118 17.9161 3.69117 18.4204 4.04434C18.9246 4.3975 19.3085 4.89685 19.52 5.475L21.708 11.5H3.291L5.48201 5.475ZM6.50001 21.5C6.50001 21.7652 6.39465 22.0196 6.20711 22.2071C6.01958 22.3946 5.76522 22.5 5.50001 22.5C5.23479 22.5 4.98043 22.3946 4.7929 22.2071C4.60536 22.0196 4.50001 21.7652 4.50001 21.5V20.4C4.82913 20.4668 5.16416 20.5003 5.50001 20.5H6.50001V21.5ZM20.5 21.5C20.5 21.7652 20.3946 22.0196 20.2071 22.2071C20.0196 22.3946 19.7652 22.5 19.5 22.5C19.2348 22.5 18.9804 22.3946 18.7929 22.2071C18.6054 22.0196 18.5 21.7652 18.5 21.5V20.5H19.5C19.8359 20.5003 20.1709 20.4668 20.5 20.4V21.5ZM22.5 15.5C22.5 16.2956 22.1839 17.0587 21.6213 17.6213C21.0587 18.1839 20.2957 18.5 19.5 18.5H5.50001C4.70436 18.5 3.94129 18.1839 3.37868 17.6213C2.81608 17.0587 2.50001 16.2956 2.50001 15.5V14.5C2.50408 14.1633 2.54465 13.828 2.62101 13.5H4.50001V14.5C4.50001 14.7652 4.60536 15.0196 4.7929 15.2071C4.98043 15.3946 5.23479 15.5 5.50001 15.5C5.76522 15.5 6.01958 15.3946 6.20711 15.2071C6.39465 15.0196 6.50001 14.7652 6.50001 14.5V13.5H18.5V14.5C18.5 14.7652 18.6054 15.0196 18.7929 15.2071C18.9804 15.3946 19.2348 15.5 19.5 15.5C19.7652 15.5 20.0196 15.3946 20.2071 15.2071C20.3946 15.0196 20.5 14.7652 20.5 14.5V13.5H22.379C22.4554 13.828 22.496 14.1633 22.5 14.5V15.5Z" fill="#646464"/>
</g>
<defs>
<clipPath id="clip0_1_88">
<rect width="24" height="24" fill="white" transform="translate(0.5 0.5)"/>
</clipPath>
</defs>
</svg>
