<svg width="120" height="33" viewBox="0 0 120 33" fill="none" xmlns="http://www.w3.org/2000/svg">
<path d="M115.131 0.377441H119.845L119.093 11.1109H115.884L115.131 0.377441ZM117.5 17.1969C116.747 17.1969 116.135 16.983 115.663 16.5551C115.205 16.1272 114.977 15.5666 114.977 14.8731C114.977 14.165 115.205 13.5969 115.663 13.1691C116.135 12.7412 116.747 12.5273 117.5 12.5273C118.252 12.5273 118.857 12.7412 119.314 13.1691C119.772 13.5969 120 14.165 120 14.8731C120 15.5666 119.772 16.1272 119.314 16.5551C118.857 16.983 118.252 17.1969 117.5 17.1969Z" fill="#323232"/>
<path d="M76.9487 17.3293C74.9864 17.3293 73.2602 16.9678 71.77 16.2449C70.2946 15.5219 69.1438 14.5113 68.3176 13.2129C67.5061 11.9146 67.1004 10.4023 67.1004 8.67611C67.1004 6.9499 67.5061 5.43763 68.3176 4.13929C68.6594 3.60207 69.0569 3.11412 69.5099 2.67542C70.1517 2.05386 70.9051 1.53117 71.77 1.10736C73.2602 0.38442 74.9864 0.0229492 76.9487 0.0229492C78.9257 0.0229492 80.652 0.38442 82.1274 1.10736C83.6028 1.8303 84.7536 2.84094 85.5798 4.13929C86.406 5.43763 86.8191 6.9499 86.8191 8.67611C86.8191 10.4023 86.406 11.9146 85.5798 13.2129C84.7536 14.5113 83.6028 15.5219 82.1274 16.2449C80.652 16.9678 78.9257 17.3293 76.9487 17.3293ZM76.9487 13.2351C78.0257 13.2351 78.9552 13.0506 79.7372 12.6818C80.5192 12.3129 81.1167 11.7892 81.5298 11.1105C81.9577 10.4318 82.1716 9.62036 82.1716 8.67611C82.1716 7.73186 81.9577 6.9204 81.5298 6.24172C81.1167 5.56304 80.5192 5.03927 79.7372 4.67043C78.9552 4.30158 78.0257 4.11716 76.9487 4.11716C75.8864 4.11716 74.9643 4.30158 74.1823 4.67043C73.4003 5.03927 72.7954 5.56304 72.3676 6.24172C71.9397 6.9204 71.7258 7.73186 71.7258 8.67611C71.7258 9.62036 71.9397 10.4318 72.3676 11.1105C72.7954 11.7892 73.4003 12.3129 74.1823 12.6818C74.9643 13.0506 75.8864 13.2351 76.9487 13.2351Z" fill="#323232"/>
<path d="M71.77 1.10736C73.2602 0.38442 74.9864 0.0229492 76.9487 0.0229492H55.8242V4.13929H68.3176C68.6594 3.60207 69.0569 3.11412 69.5099 2.67542C70.1517 2.05386 70.9051 1.53117 71.77 1.10736Z" fill="#323232"/>
<path d="M55.5964 17.3293C53.6341 17.3293 51.9079 16.9678 50.4177 16.2449C48.9423 15.5219 47.7915 14.5113 46.9653 13.2129C46.1538 11.9146 45.748 10.4023 45.748 8.67611C45.748 6.9499 46.1538 5.43763 46.9653 4.13929C47.7915 2.84094 48.9423 1.8303 50.4177 1.10736C51.9079 0.38442 53.6341 0.0229492 55.5964 0.0229492C57.5734 0.0229492 59.2996 0.38442 60.775 1.10736C62.2504 1.8303 63.4013 2.84094 64.2275 4.13929C65.0537 5.43763 65.4668 6.9499 65.4668 8.67611C65.4668 10.4023 65.0537 11.9146 64.2275 13.2129C63.4013 14.5113 62.2504 15.5219 60.775 16.2449C59.2996 16.9678 57.5734 17.3293 55.5964 17.3293ZM55.5964 13.2351C56.6734 13.2351 57.6029 13.0506 58.3849 12.6818C59.1668 12.3129 59.7644 11.7892 60.1775 11.1105C60.6054 10.4318 60.8193 9.62036 60.8193 8.67611C60.8193 7.73186 60.6054 6.9204 60.1775 6.24172C59.7644 5.56304 59.1668 5.03927 58.3849 4.67043C57.6029 4.30158 56.6734 4.11716 55.5964 4.11716C54.5341 4.11716 53.6119 4.30158 52.83 4.67043C52.048 5.03927 51.4431 5.56304 51.0152 6.24172C50.5874 6.9204 50.3734 7.73186 50.3734 8.67611C50.3734 9.62036 50.5874 10.4318 51.0152 11.1105C51.4431 11.7892 52.048 12.3129 52.83 12.6818C53.6119 13.0506 54.5341 13.2351 55.5964 13.2351Z" fill="#323232"/>
<path d="M31.2564 3.78559L27.6514 0.377441L18.0684 16.9756H23.6411L31.2564 3.78559Z" fill="#323232"/>
<path fill-rule="evenodd" clip-rule="evenodd" d="M37.94 7.63636H31.9965L29.8325 11.0002H32.6064H38.5818C39.3542 11.0002 40.0665 10.9182 40.7186 10.7542C41.1377 10.6488 41.532 10.5095 41.9014 10.3363C42.8457 9.89371 43.5834 9.27404 44.1145 8.47733C44.6457 7.68062 44.9112 6.7585 44.9112 5.71098C44.9112 4.63394 44.6457 3.70445 44.1145 2.92249C43.5834 2.12578 42.8457 1.50612 41.9014 1.0635C40.9572 0.606127 39.8506 0.377441 38.5818 0.377441H27.6514L31.2564 3.78559H37.94C38.6777 3.78559 39.2531 3.95526 39.6662 4.2946C40.0793 4.61919 40.2858 5.09131 40.2858 5.71098C40.2858 6.31589 40.0793 6.78801 39.6662 7.12735C39.2531 7.46669 38.6777 7.63636 37.94 7.63636Z" fill="#323232"/>
<path d="M44.9112 16.9756L38.5818 11.0002H32.6064L38.5818 16.9756H44.9112Z" fill="#323232"/>
<path d="M10.7577 7.50759L5.29102 16.9761H-9.15527e-05V0.377913H4.70975V9.84063L5.29102 8.83391L10.1732 0.377913H14.8774V9.84063L15.4586 8.83391L20.3408 0.377913H26.0254L16.4423 16.9761H10.7577V7.50759Z" fill="#323232"/>
<path d="M100.688 9.84593L106.154 0.377441H111.445V16.9756H106.736V7.51288L106.154 8.51961L101.272 16.9756H96.568V7.51288L95.9867 8.51961L91.1045 16.9756H85.4199L95.003 0.377441H100.688V9.84593Z" fill="#323232"/>
<path d="M56.2266 32.9767V20.2808H58.0693V31.2399H63.8178V32.9767H56.2266Z" fill="#323232"/>
<path d="M43.5625 32.9767L47.6887 20.2808H50.3426L54.4688 32.9767H52.5556L48.7555 21.3917H49.2317L45.4757 32.9767H43.5625ZM45.705 30.1113V28.3833H52.3351V30.1113H45.705Z" fill="#323232"/>
<path d="M37.3131 32.9767V22.0176H33.0898V20.2808H43.379V22.0176H39.1558V32.9767H37.3131Z" fill="#323232"/>
<path d="M21.6973 32.9767V20.2808H23.5664L29.8175 29.7146V20.2808H31.6866V32.9767H29.8175L23.5664 23.5341V32.9767H21.6973Z" fill="#323232"/>
<path d="M11.4688 32.9767V20.2808H19.5801V22.0176H13.3114V25.5796H18.5221V27.3164H13.3114V31.2399H19.5801V32.9767H11.4688Z" fill="#323232"/>
<path d="M0 32.9767V20.2808H5.13133C5.25477 20.2808 5.40759 20.2866 5.5898 20.2984C5.77202 20.3043 5.94541 20.3219 6.10999 20.3513C6.81533 20.463 7.40311 20.704 7.87333 21.0743C8.34944 21.4446 8.70505 21.9118 8.94016 22.4761C9.17527 23.0404 9.29283 23.6634 9.29283 24.3452C9.29283 25.3562 9.0342 26.2291 8.51696 26.9638C7.99971 27.6926 7.22384 28.1481 6.18934 28.3304L5.43992 28.4185H1.8427V32.9767H0ZM7.42368 32.9767L4.91973 27.8102L6.78006 27.3341L9.53088 32.9767H7.42368ZM1.8427 26.6728H5.0608C5.17836 26.6728 5.30767 26.667 5.44874 26.6552C5.59568 26.6434 5.73381 26.6229 5.86312 26.5935C6.2393 26.5053 6.54201 26.3437 6.77125 26.1086C7.00048 25.8676 7.16506 25.5913 7.26498 25.2798C7.3649 24.9683 7.41487 24.6568 7.41487 24.3452C7.41487 24.0337 7.3649 23.7251 7.26498 23.4195C7.16506 23.108 7.00048 22.8346 6.77125 22.5995C6.54201 22.3586 6.2393 22.194 5.86312 22.1058C5.73381 22.0705 5.59568 22.047 5.44874 22.0353C5.30767 22.0235 5.17836 22.0176 5.0608 22.0176H1.8427V26.6728Z" fill="#323232"/>
</svg>
