<svg width="24" height="25" viewBox="0 0 24 25" fill="none" xmlns="http://www.w3.org/2000/svg">
<rect y="0.921875" width="24" height="24" rx="12" fill="white"/>
<path d="M12 6.92188C14.3966 6.92188 15.5949 6.92212 16.458 7.49316C16.8435 7.7482 17.1737 8.07842 17.4287 8.46387C17.9998 9.32702 18 10.5252 18 12.9219C18 15.3185 17.9998 16.5167 17.4287 17.3799C17.1737 17.7653 16.8435 18.0955 16.458 18.3506C15.5949 18.9216 14.3966 18.9219 12 18.9219C9.60336 18.9219 8.40514 18.9216 7.54199 18.3506C7.15655 18.0955 6.82633 17.7653 6.57129 17.3799C6.00025 16.5167 6 15.3185 6 12.9219C6 10.5252 6.00025 9.32702 6.57129 8.46387C6.82633 8.07842 7.15655 7.7482 7.54199 7.49316C8.40514 6.92212 9.60336 6.92188 12 6.92188ZM12 9.81543C10.2845 9.81543 8.89364 11.2064 8.89355 12.9219C8.89355 14.6374 10.2845 16.0283 12 16.0283C13.7155 16.0283 15.1064 14.6374 15.1064 12.9219C15.1064 11.2064 13.7154 9.81549 12 9.81543ZM12 10.8662C13.135 10.8663 14.0556 11.7868 14.0557 12.9219C14.0557 14.057 13.1351 14.9775 12 14.9775C10.8649 14.9775 9.94434 14.057 9.94434 12.9219C9.94442 11.7868 10.8649 10.8662 12 10.8662ZM15.2285 8.92969C14.8256 8.92987 14.499 9.25716 14.499 9.66016C14.4993 10.0629 14.8257 10.3895 15.2285 10.3896C15.6315 10.3896 15.9587 10.063 15.959 9.66016C15.959 9.25705 15.6316 8.92969 15.2285 8.92969Z" fill="#232323"/>
</svg>
