<svg width="24" height="25" viewBox="0 0 24 25" fill="none" xmlns="http://www.w3.org/2000/svg">
<rect y="0.921875" width="24" height="24" rx="12" fill="white"/>
<path d="M6 8.53557C6 8.15076 6.13514 7.8333 6.40541 7.58319C6.67567 7.33306 7.02703 7.20801 7.45946 7.20801C7.88417 7.20801 8.2278 7.33114 8.49035 7.57742C8.76061 7.83138 8.89575 8.1623 8.89575 8.5702C8.89575 8.93961 8.76448 9.24744 8.50193 9.49372C8.23166 9.74769 7.87645 9.87467 7.43629 9.87467H7.42471C7 9.87467 6.65637 9.74769 6.39382 9.49372C6.13127 9.23975 6 8.92036 6 8.53557ZM6.15058 18.6366V10.9252H8.72201V18.6366H6.15058ZM10.1467 18.6366H12.7181V14.3307C12.7181 14.0613 12.749 13.8535 12.8108 13.7073C12.9189 13.4456 13.083 13.2244 13.3031 13.0435C13.5232 12.8626 13.7992 12.7722 14.1313 12.7722C14.9961 12.7722 15.4286 13.3533 15.4286 14.5154V18.6366H18V14.2152C18 13.0762 17.7297 12.2123 17.1892 11.6236C16.6486 11.0348 15.9344 10.7405 15.0463 10.7405C14.0502 10.7405 13.2741 11.1676 12.7181 12.0219V12.0449H12.7066L12.7181 12.0219V10.9252H10.1467C10.1622 11.1714 10.1699 11.9372 10.1699 13.2224C10.1699 14.5077 10.1622 16.3124 10.1467 18.6366Z" fill="#232323"/>
</svg>
