<svg width="200" height="55" viewBox="0 0 200 55" fill="none" xmlns="http://www.w3.org/2000/svg">
<path d="M191.885 0.587891H199.742L198.488 18.477H193.139L191.885 0.587891ZM195.832 28.6203C194.578 28.6203 193.557 28.2638 192.77 27.5506C192.008 26.8375 191.627 25.9031 191.627 24.7474C191.627 23.5671 192.008 22.6204 192.77 21.9073C193.557 21.1942 194.578 20.8376 195.832 20.8376C197.086 20.8376 198.094 21.1942 198.856 21.9073C199.619 22.6204 200 23.5671 200 24.7474C200 25.9031 199.619 26.8375 198.856 27.5506C198.094 28.2638 197.086 28.6203 195.832 28.6203Z" fill="white"/>
<path d="M128.249 28.8439C124.978 28.8439 122.101 28.2414 119.617 27.0365C117.158 25.8316 115.24 24.1472 113.863 21.9833C112.511 19.8194 111.835 17.2989 111.835 14.4219C111.835 11.5449 112.511 9.02447 113.863 6.86056C114.433 5.96521 115.096 5.15195 115.851 4.42078C116.92 3.38485 118.176 2.5137 119.617 1.80735C122.101 0.602451 124.978 0 128.249 0C131.544 0 134.421 0.602451 136.88 1.80735C139.339 3.01225 141.257 4.69666 142.634 6.86056C144.011 9.02447 144.699 11.5449 144.699 14.4219C144.699 17.2989 144.011 19.8194 142.634 21.9833C141.257 24.1472 139.339 25.8316 136.88 27.0365C134.421 28.2414 131.544 28.8439 128.249 28.8439ZM128.249 22.0202C130.044 22.0202 131.593 21.7128 132.896 21.0981C134.199 20.4833 135.195 19.6104 135.884 18.4793C136.597 17.3481 136.954 15.9957 136.954 14.4219C136.954 12.8482 136.597 11.4957 135.884 10.3646C135.195 9.23348 134.199 8.36054 132.896 7.7458C131.593 7.13105 130.044 6.82368 128.249 6.82368C126.478 6.82368 124.941 7.13105 123.638 7.7458C122.335 8.36054 121.326 9.23348 120.613 10.3646C119.9 11.4957 119.544 12.8482 119.544 14.4219C119.544 15.9957 119.9 17.3481 120.613 18.4793C121.326 19.6104 122.335 20.4833 123.638 21.0981C124.941 21.7128 126.478 22.0202 128.249 22.0202Z" fill="white"/>
<path d="M119.617 1.80735C122.101 0.602451 124.978 0 128.249 0H93.041V6.86056H113.863C114.433 5.96521 115.096 5.15195 115.851 4.42078C116.92 3.38485 118.176 2.5137 119.617 1.80735Z" fill="white"/>
<path d="M92.662 28.8439C89.3915 28.8439 86.5144 28.2414 84.0308 27.0365C81.5718 25.8316 79.6538 24.1472 78.2767 21.9833C76.9243 19.8194 76.248 17.2989 76.248 14.4219C76.248 11.5449 76.9243 9.02447 78.2767 6.86056C79.6538 4.69666 81.5718 3.01225 84.0308 1.80735C86.5144 0.602451 89.3915 0 92.662 0C95.9571 0 98.8341 0.602451 101.293 1.80735C103.752 3.01225 105.67 4.69666 107.047 6.86056C108.424 9.02447 109.113 11.5449 109.113 14.4219C109.113 17.2989 108.424 19.8194 107.047 21.9833C105.67 24.1472 103.752 25.8316 101.293 27.0365C98.8341 28.2414 95.9571 28.8439 92.662 28.8439ZM92.662 22.0202C94.4571 22.0202 96.0062 21.7128 97.3095 21.0981C98.6128 20.4833 99.6087 19.6104 100.297 18.4793C101.01 17.3481 101.367 15.9957 101.367 14.4219C101.367 12.8482 101.01 11.4957 100.297 10.3646C99.6087 9.23348 98.6128 8.36054 97.3095 7.7458C96.0062 7.13105 94.4571 6.82368 92.662 6.82368C90.8915 6.82368 89.3546 7.13105 88.0513 7.7458C86.748 8.36054 85.7399 9.23348 85.0267 10.3646C84.3136 11.4957 83.9571 12.8482 83.9571 14.4219C83.9571 15.9957 84.3136 17.3481 85.0267 18.4793C85.7399 19.6104 86.748 20.4833 88.0513 21.0981C89.3546 21.7128 90.8915 22.0202 92.662 22.0202Z" fill="white"/>
<path d="M52.0954 6.26814L46.087 0.587891L30.1152 28.2515H39.4031L52.0954 6.26814Z" fill="white"/>
<path fill-rule="evenodd" clip-rule="evenodd" d="M63.2347 12.6861H53.329L49.7221 18.2926H54.3454H64.3044C65.5918 18.2926 66.779 18.1559 67.8659 17.8825C68.5644 17.7068 69.2215 17.4746 69.8372 17.186C71.4109 16.4483 72.6405 15.4156 73.5257 14.0877C74.4109 12.7599 74.8536 11.223 74.8536 9.47712C74.8536 7.68206 74.4109 6.1329 73.5257 4.82964C72.6405 3.50179 71.4109 2.46901 69.8372 1.73132C68.2634 0.969033 66.4191 0.587891 64.3044 0.587891H46.087L52.0954 6.26814H63.2347C64.4642 6.26814 65.4232 6.55093 66.1118 7.11649C66.8003 7.65747 67.1445 8.44434 67.1445 9.47712C67.1445 10.4853 66.8003 11.2722 66.1118 11.8377C65.4232 12.4033 64.4642 12.6861 63.2347 12.6861Z" fill="white"/>
<path d="M74.8536 28.2515L64.3044 18.2926H54.3454L64.3044 28.2515H74.8536Z" fill="white"/>
<path d="M17.9307 12.4731L8.81952 28.2539H0.000961304V0.590302H7.85072V16.3615L8.81952 14.6836L16.9565 0.590302H24.7968V16.3615L25.7656 14.6836L33.9026 0.590302H43.377L27.4051 28.2539H17.9307V12.4731Z" fill="white"/>
<path d="M167.815 16.3687L176.927 0.587891H185.745V28.2515H177.895V12.4803L176.927 14.1582L168.79 28.2515H160.949V12.4803L159.98 14.1582L151.843 28.2515H142.369L158.341 0.587891H167.815V16.3687Z" fill="white"/>
<path d="M93.7148 54.9217V33.7617H96.786V52.0269H106.367V54.9217H93.7148Z" fill="white"/>
<path d="M72.6055 54.9217L79.4825 33.7617H83.9056L90.7827 54.9217H87.594L81.2606 35.6132H82.0541L75.7942 54.9217H72.6055ZM76.1763 50.146V47.2659H87.2266V50.146H76.1763Z" fill="white"/>
<path d="M62.193 54.9217V36.6565H55.1543V33.7617H72.3029V36.6565H65.2642V54.9217H62.193Z" fill="white"/>
<path d="M36.168 54.9217V33.7617H39.2832L49.7017 49.4847V33.7617H52.817V54.9217H49.7017L39.2832 39.184V54.9217H36.168Z" fill="white"/>
<path d="M19.1172 54.9217V33.7617H32.6362V36.6565H22.1884V42.5931H30.8729V45.4879H22.1884V52.0269H32.6362V54.9217H19.1172Z" fill="white"/>
<path d="M0.00195312 54.9217V33.7617H8.55421C8.75994 33.7617 9.01464 33.7715 9.31833 33.7911C9.62202 33.8009 9.91102 33.8303 10.1853 33.8793C11.3609 34.0654 12.3405 34.467 13.1242 35.0842C13.9177 35.7014 14.5104 36.4802 14.9023 37.4206C15.2941 38.3611 15.4901 39.3995 15.4901 40.5358C15.4901 42.2208 15.059 43.6755 14.1969 44.9001C13.3349 46.1148 12.0417 46.874 10.3176 47.1777L9.06853 47.3247H3.07313V54.9217H0.00195312ZM12.3748 54.9217L8.20154 46.3107L11.3021 45.5172L15.8868 54.9217H12.3748ZM3.07313 44.4152H8.43666C8.63259 44.4152 8.84811 44.4054 9.08322 44.3858C9.32813 44.3662 9.55835 44.3319 9.77387 44.2829C10.4008 44.136 10.9054 43.8666 11.2874 43.4747C11.6695 43.0731 11.9438 42.6126 12.1103 42.0934C12.2768 41.5742 12.3601 41.055 12.3601 40.5358C12.3601 40.0166 12.2768 39.5023 12.1103 38.9929C11.9438 38.4737 11.6695 38.0182 11.2874 37.6263C10.9054 37.2247 10.4008 36.9504 9.77387 36.8035C9.55835 36.7447 9.32813 36.7055 9.08322 36.6859C8.84811 36.6663 8.63259 36.6565 8.43666 36.6565H3.07313V44.4152Z" fill="white"/>
</svg>
