<svg width="24" height="25" viewBox="0 0 24 25" fill="none" xmlns="http://www.w3.org/2000/svg">
<rect y="0.921875" width="24" height="24" rx="12" fill="white"/>
<path d="M14.018 8.05587V8.05371H14.5807L14.7863 8.09477C14.9234 8.12143 15.0478 8.15636 15.1596 8.19959C15.2714 8.24281 15.3796 8.29324 15.4842 8.35087C15.5888 8.40849 15.6837 8.46721 15.7688 8.527C15.8532 8.58607 15.929 8.64874 15.996 8.71501C16.0624 8.78201 16.1659 8.7993 16.3066 8.76688C16.4473 8.73446 16.5987 8.68944 16.761 8.63181C16.9234 8.57418 17.0839 8.50935 17.2426 8.43731C17.4013 8.36527 17.4979 8.31953 17.5326 8.30008C17.5665 8.27992 17.5845 8.26911 17.5867 8.26766L17.5888 8.26442L17.5996 8.25902L17.6105 8.25361L17.6213 8.24821L17.6321 8.24281L17.6343 8.23957L17.6375 8.23741L17.6408 8.23525L17.6429 8.232L17.6537 8.22876L17.6646 8.2266L17.6624 8.24281L17.6592 8.25902L17.6537 8.27523L17.6483 8.29143L17.6429 8.30224L17.6375 8.31305L17.6321 8.32925C17.6285 8.34006 17.6249 8.35446 17.6213 8.37248C17.6177 8.39049 17.5834 8.46252 17.5185 8.58859C17.4536 8.71466 17.3724 8.84252 17.275 8.97219C17.1776 9.10185 17.0904 9.19982 17.0132 9.2661C16.9353 9.33309 16.8837 9.37992 16.8584 9.40657C16.8332 9.43394 16.8025 9.45915 16.7665 9.48221L16.7124 9.51787L16.7015 9.52327L16.6907 9.52868L16.6886 9.53192L16.6853 9.53408L16.6821 9.53624L16.6799 9.53948L16.6691 9.54488L16.6583 9.55029L16.6561 9.55353L16.6528 9.55569L16.6496 9.55785L16.6474 9.56109L16.6453 9.56433L16.642 9.5665L16.6388 9.56866L16.6366 9.5719H16.6907L16.9937 9.50706C17.1957 9.46384 17.3886 9.41162 17.5726 9.35038L17.8647 9.25313L17.8972 9.24233L17.9134 9.23692L17.9243 9.23152L17.9351 9.22612L17.9459 9.22072L17.9567 9.21531L17.9784 9.21207L18 9.20991V9.23152L17.9946 9.23368L17.9892 9.23692L17.987 9.24017L17.9838 9.24233L17.9805 9.24449L17.9784 9.24773L17.9762 9.25097L17.9729 9.25313L17.9697 9.25529L17.9675 9.25854L17.9654 9.26178L17.9621 9.26394L17.9567 9.27474L17.9513 9.28555L17.9481 9.28771C17.9466 9.28987 17.9008 9.3511 17.8106 9.47141C17.7205 9.59243 17.6718 9.65365 17.6646 9.6551C17.6574 9.65726 17.6472 9.66807 17.6343 9.68752C17.622 9.70768 17.5455 9.78801 17.4049 9.92848C17.2642 10.069 17.1264 10.1939 16.9915 10.3034C16.8559 10.4137 16.7874 10.5491 16.7859 10.7097C16.7838 10.8697 16.7755 11.0505 16.761 11.2522C16.7466 11.4539 16.7196 11.6718 16.6799 11.9059C16.6402 12.14 16.5789 12.4048 16.4959 12.7001C16.413 12.9955 16.312 13.2836 16.193 13.5646C16.0739 13.8455 15.9495 14.0976 15.8197 14.321C15.6898 14.5443 15.5708 14.7334 15.4626 14.8883C15.3544 15.0431 15.2444 15.189 15.1326 15.3259C15.0207 15.4628 14.8794 15.6169 14.7084 15.7884C14.5367 15.9591 14.4429 16.0527 14.4271 16.0693C14.4105 16.0852 14.3398 16.1442 14.215 16.2465C14.0909 16.3495 13.9574 16.4525 13.8146 16.5556C13.6725 16.6579 13.5419 16.7432 13.4229 16.8117C13.3039 16.8801 13.1603 16.9582 12.9922 17.0461C12.8249 17.1347 12.6438 17.2169 12.4491 17.2925C12.2543 17.3681 12.0487 17.4384 11.8323 17.5032C11.6159 17.568 11.4067 17.6185 11.2047 17.6545C11.0027 17.6905 10.7737 17.7211 10.5176 17.7463L10.1335 17.7842V17.7896H9.43012V17.7842L9.33814 17.7788C9.27683 17.7752 9.22633 17.7715 9.18665 17.768C9.14699 17.7644 8.99729 17.7445 8.7376 17.7085C8.47791 17.6725 8.27412 17.6365 8.12624 17.6005C7.97837 17.5644 7.75834 17.496 7.46619 17.3952C7.17403 17.2943 6.92408 17.1924 6.71632 17.0894C6.50929 16.9871 6.37944 16.9222 6.32678 16.8949C6.27484 16.8682 6.21641 16.8351 6.15149 16.7954L6.0541 16.736L6.05195 16.7328L6.04869 16.7306L6.04545 16.7285L6.04328 16.7252L6.03246 16.7198L6.02164 16.7144L6.01949 16.7112L6.01623 16.709L6.01298 16.7068L6.01082 16.7036L6.00867 16.7004L6.00541 16.6982H6V16.6766L6.01082 16.6787L6.02164 16.682L6.07033 16.6874C6.1028 16.691 6.19117 16.6964 6.33544 16.7036C6.47972 16.7108 6.633 16.7108 6.79531 16.7036C6.95762 16.6964 7.12354 16.6802 7.29306 16.655C7.46258 16.6298 7.66276 16.5865 7.8936 16.5253C8.12444 16.4641 8.33653 16.3913 8.52986 16.307C8.72246 16.222 8.85952 16.1586 8.94104 16.1169C9.02183 16.0758 9.14518 15.9994 9.31109 15.8878L9.55996 15.7203L9.56213 15.717L9.56537 15.7149L9.56863 15.7127L9.57078 15.7095L9.57295 15.7062L9.57619 15.7041L9.57945 15.7019L9.58161 15.6987L9.59243 15.6954L9.60325 15.6933L9.60541 15.6825L9.60866 15.6717L9.61191 15.6695L9.61407 15.6663L9.5275 15.6609C9.4698 15.6573 9.41389 15.6536 9.35978 15.6501C9.30568 15.6465 9.22092 15.6302 9.1055 15.6014C8.99009 15.5726 8.86565 15.5294 8.73219 15.4718C8.59874 15.4141 8.46889 15.3457 8.34265 15.2665C8.21642 15.1872 8.12516 15.1213 8.06889 15.0687C8.01335 15.0168 7.94121 14.9434 7.85248 14.8483C7.76448 14.7525 7.68801 14.6541 7.62308 14.5533C7.55816 14.4524 7.49613 14.3361 7.43698 14.2043L7.34716 14.0076L7.34175 13.9914L7.33634 13.9752L7.33309 13.9644L7.33093 13.9536L7.34716 13.9557L7.36339 13.959L7.48242 13.9752C7.56177 13.986 7.68621 13.9896 7.85573 13.986C8.02525 13.9824 8.14247 13.9752 8.20739 13.9644C8.27232 13.9536 8.312 13.9464 8.32642 13.9428L8.34806 13.9374L8.37511 13.932L8.40216 13.9266L8.40433 13.9233L8.40757 13.9212L8.41083 13.919L8.41298 13.9158L8.39134 13.9103L8.3697 13.9049L8.34806 13.8995L8.32642 13.8941L8.30478 13.8887C8.29036 13.8851 8.26511 13.8779 8.22904 13.8671C8.19297 13.8563 8.09559 13.8167 7.93688 13.7483C7.77819 13.6798 7.65194 13.6132 7.55816 13.5484C7.46415 13.4833 7.3745 13.4122 7.28981 13.3355C7.20541 13.2577 7.11272 13.1576 7.01172 13.0351C6.91073 12.9126 6.82057 12.7704 6.74121 12.6083C6.66186 12.4462 6.60235 12.2913 6.56267 12.1436C6.52315 11.9968 6.49708 11.8467 6.48477 11.6952L6.46528 11.4683L6.4761 11.4704L6.48693 11.4737L6.49775 11.4791L6.50857 11.4845L6.51939 11.4899L6.53021 11.4953L6.69793 11.5709C6.80975 11.6214 6.94861 11.6646 7.11452 11.7006C7.28044 11.7366 7.37962 11.7564 7.41208 11.76L7.46078 11.7654H7.55816L7.55601 11.7622L7.55275 11.76L7.5495 11.7579L7.54734 11.7546L7.54519 11.7514L7.54193 11.7492L7.53868 11.7471L7.53652 11.7438L7.5257 11.7384L7.51488 11.733L7.51272 11.7298L7.50947 11.7276L7.50622 11.7255L7.50406 11.7222L7.49324 11.7168L7.48242 11.7114L7.48026 11.7082C7.4781 11.7067 7.44708 11.6837 7.3872 11.639C7.32804 11.5936 7.26601 11.5349 7.20108 11.4629C7.13616 11.3908 7.07124 11.3152 7.00631 11.236C6.94127 11.1565 6.88334 11.0716 6.83318 10.982C6.78269 10.892 6.72931 10.7774 6.67304 10.6384C6.6175 10.5001 6.5753 10.3607 6.54644 10.2202C6.51759 10.0798 6.50136 9.94109 6.49775 9.80422C6.49414 9.66734 6.49775 9.55029 6.50857 9.45304C6.51939 9.35579 6.54103 9.24593 6.57349 9.12347C6.60595 9.00101 6.65285 8.87134 6.71416 8.73446L6.80613 8.52916L6.81154 8.51295L6.81695 8.49674L6.82021 8.49458L6.82236 8.49134L6.82453 8.4881L6.82777 8.48594L6.83103 8.4881L6.83318 8.49134L6.83535 8.49458L6.83859 8.49674L6.84185 8.4989L6.844 8.50214L6.84617 8.50539L6.84941 8.50755L6.85482 8.51835L6.86023 8.52916L6.86349 8.53132L6.86564 8.53456L7.01172 8.69664C7.10911 8.8047 7.22453 8.92537 7.35798 9.05863C7.49144 9.1919 7.56538 9.26105 7.5798 9.2661C7.59424 9.27186 7.61226 9.28842 7.6339 9.31581C7.65555 9.34246 7.72769 9.40622 7.85032 9.50706C7.97296 9.60791 8.13346 9.72498 8.33183 9.85825C8.53021 9.99151 8.75023 10.123 8.99188 10.2527C9.23355 10.3823 9.49324 10.4994 9.77096 10.6038C10.0487 10.7083 10.2435 10.7767 10.3553 10.8091C10.4671 10.8416 10.6583 10.883 10.9288 10.9334C11.1993 10.9838 11.4031 11.0163 11.5401 11.0307C11.6772 11.0451 11.771 11.0533 11.8215 11.0555L11.8972 11.0577L11.8951 11.0415L11.8918 11.0253L11.8702 10.8902C11.8557 10.8001 11.8485 10.6741 11.8485 10.512C11.8485 10.3499 11.8611 10.2004 11.8864 10.0636C11.9116 9.92668 11.9495 9.78801 12 9.64754C12.0505 9.50706 12.0999 9.39432 12.1482 9.30932C12.1973 9.22504 12.2615 9.12887 12.3408 9.02081C12.4202 8.91276 12.523 8.8011 12.6492 8.68584C12.7755 8.57058 12.9197 8.46792 13.0821 8.37788C13.2444 8.28784 13.3941 8.21939 13.5311 8.17257C13.6682 8.12575 13.7836 8.09513 13.8774 8.08072C13.9711 8.06632 14.018 8.05803 14.018 8.05587Z" fill="#232323"/>
</svg>
