<svg width="24" height="25" viewBox="0 0 24 25" fill="none" xmlns="http://www.w3.org/2000/svg">
<rect y="0.921875" width="24" height="24" rx="12" fill="white"/>
<path d="M12.2928 17.5747L9.5847 17.5241C8.70787 17.5064 7.82885 17.5416 6.96921 17.3589C5.66151 17.0859 5.56886 15.7473 5.47192 14.6245C5.33835 13.0459 5.39006 11.4387 5.64213 9.87331C5.78443 8.99497 6.34446 8.47085 7.21051 8.41382C10.1341 8.20684 13.0771 8.23136 15.9942 8.32793C16.3023 8.33678 16.6125 8.38517 16.9162 8.44024C18.4158 8.70885 18.4523 10.2258 18.5495 11.5028C18.6465 12.7929 18.6056 14.0897 18.4203 15.371C18.2716 16.432 17.9872 17.3217 16.787 17.4076C15.2831 17.5199 13.8138 17.6103 12.3057 17.5815C12.3058 17.5747 12.2971 17.5747 12.2928 17.5747ZM10.7007 14.8887C11.834 14.2237 12.9456 13.5699 14.0724 12.9094C12.937 12.2445 11.8275 11.5906 10.7007 10.9301V14.8887Z" fill="#232323"/>
</svg>
