<svg width="22" height="22" viewBox="0 0 22 22" fill="none" xmlns="http://www.w3.org/2000/svg">
<path d="M5.04102 15.5835C5.80041 15.5835 6.41602 14.9679 6.41602 14.2085C6.41602 13.4491 5.80041 12.8335 5.04102 12.8335C4.28162 12.8335 3.66602 13.4491 3.66602 14.2085C3.66602 14.9679 4.28162 15.5835 5.04102 15.5835Z" fill="#323232"/>
<path d="M17.4167 2.75H4.58333C3.3682 2.75146 2.20326 3.23481 1.34403 4.09403C0.484808 4.95326 0.00145554 6.1182 0 7.33333L0 14.6667C0.00145554 15.8818 0.484808 17.0467 1.34403 17.906C2.20326 18.7652 3.3682 19.2485 4.58333 19.25H17.4167C18.6318 19.2485 19.7967 18.7652 20.656 17.906C21.5152 17.0467 21.9985 15.8818 22 14.6667V7.33333C21.9985 6.1182 21.5152 4.95326 20.656 4.09403C19.7967 3.23481 18.6318 2.75146 17.4167 2.75ZM4.58333 4.58333H17.4167C18.146 4.58333 18.8455 4.87306 19.3612 5.38879C19.8769 5.90451 20.1667 6.60399 20.1667 7.33333H1.83333C1.83333 6.60399 2.12306 5.90451 2.63879 5.38879C3.15451 4.87306 3.85399 4.58333 4.58333 4.58333ZM17.4167 17.4167H4.58333C3.85399 17.4167 3.15451 17.1269 2.63879 16.6112C2.12306 16.0955 1.83333 15.396 1.83333 14.6667V9.16667H20.1667V14.6667C20.1667 15.396 19.8769 16.0955 19.3612 16.6112C18.8455 17.1269 18.146 17.4167 17.4167 17.4167Z" fill="#323232"/>
</svg>
