<svg width="22" height="22" viewBox="0 0 22 22" fill="none" xmlns="http://www.w3.org/2000/svg">
<g clip-path="url(#clip0_121_972)">
<path d="M14.6667 0H7.33333C6.1182 0.00145554 4.95326 0.484808 4.09403 1.34403C3.23481 2.20326 2.75146 3.3682 2.75 4.58333V21.0833C2.75013 21.2501 2.79573 21.4136 2.88189 21.5563C2.96805 21.6991 3.09151 21.8156 3.23898 21.8934C3.38645 21.9712 3.55235 22.0073 3.71881 21.9978C3.88527 21.9883 4.04599 21.9336 4.18367 21.8396L6.11417 20.5205L8.04467 21.8396C8.19719 21.944 8.37773 21.9999 8.56258 21.9999C8.74744 21.9999 8.92798 21.944 9.0805 21.8396L11.0055 20.5205L12.9305 21.8396C13.0831 21.9442 13.2638 22.0002 13.4489 22.0002C13.6339 22.0002 13.8146 21.9442 13.9673 21.8396L15.8923 20.5214L17.8173 21.8387C17.9549 21.9324 18.1154 21.9869 18.2816 21.9963C18.4479 22.0057 18.6135 21.9696 18.7608 21.892C18.9081 21.8143 19.0315 21.698 19.1177 21.5556C19.2038 21.4131 19.2496 21.2498 19.25 21.0833V4.58333C19.2485 3.3682 18.7652 2.20326 17.906 1.34403C17.0467 0.484808 15.8818 0.00145554 14.6667 0V0ZM17.4167 19.3417L16.4083 18.6523C16.2556 18.5475 16.0747 18.4914 15.8895 18.4914C15.7043 18.4914 15.5234 18.5475 15.3707 18.6523L13.4457 19.9714L11.5207 18.6523C11.3681 18.5477 11.1873 18.4917 11.0023 18.4917C10.8172 18.4917 10.6365 18.5477 10.4839 18.6523L8.55892 19.9714L6.63392 18.6523C6.48149 18.5481 6.30113 18.4923 6.11646 18.4923C5.93179 18.4923 5.75143 18.5481 5.599 18.6523L4.58333 19.3417V4.58333C4.58333 3.85399 4.87306 3.15451 5.38879 2.63879C5.90451 2.12306 6.60399 1.83333 7.33333 1.83333H14.6667C15.396 1.83333 16.0955 2.12306 16.6112 2.63879C17.1269 3.15451 17.4167 3.85399 17.4167 4.58333V19.3417Z" fill="#232323"/>
<path d="M14.666 7.3335H7.33268C6.82642 7.3335 6.41602 7.7439 6.41602 8.25016C6.41602 8.75642 6.82642 9.16683 7.33268 9.16683H14.666C15.1723 9.16683 15.5827 8.75642 15.5827 8.25016C15.5827 7.7439 15.1723 7.3335 14.666 7.3335Z" fill="#232323"/>
<path d="M12.8327 11H7.33268C6.82642 11 6.41602 11.4104 6.41602 11.9167C6.41602 12.4229 6.82642 12.8333 7.33268 12.8333H12.8327C13.3389 12.8333 13.7493 12.4229 13.7493 11.9167C13.7493 11.4104 13.3389 11 12.8327 11Z" fill="#232323"/>
</g>
<defs>
<clipPath id="clip0_121_972">
<rect width="22" height="22" fill="white"/>
</clipPath>
</defs>
</svg>
