<svg width="22" height="22" viewBox="0 0 22 22" fill="none" xmlns="http://www.w3.org/2000/svg">
<g clip-path="url(#clip0_121_963)">
<path d="M19.9833 5.11309L13.5667 0.782759C12.8097 0.267956 11.9154 -0.00732422 11 -0.00732422C10.0846 -0.00732422 9.1903 0.267956 8.43333 0.782759L2.01667 5.11309C1.39531 5.53309 0.886506 6.09914 0.534898 6.7616C0.18329 7.42406 -0.000379884 8.16269 5.89911e-07 8.91267V17.4157C0.00145613 18.6308 0.484809 19.7957 1.34404 20.655C2.20326 21.5142 3.36821 21.9976 4.58333 21.999H17.4167C18.6318 21.9976 19.7967 21.5142 20.656 20.655C21.5152 19.7957 21.9985 18.6308 22 17.4157V8.91267C22.0004 8.16269 21.8167 7.42406 21.4651 6.7616C21.1135 6.09914 20.6047 5.53309 19.9833 5.11309ZM20.1667 17.4157C20.1667 18.145 19.8769 18.8445 19.3612 19.3602C18.8455 19.8759 18.146 20.1657 17.4167 20.1657H4.58333C3.85399 20.1657 3.15452 19.8759 2.63879 19.3602C2.12307 18.8445 1.83333 18.145 1.83333 17.4157V8.91267C1.83331 8.46252 1.94379 8.01924 2.15508 7.62175C2.36637 7.22426 2.67201 6.88471 3.04517 6.63293L9.46183 2.30259C9.91557 1.99434 10.4515 1.82952 11 1.82952C11.5485 1.82952 12.0844 1.99434 12.5382 2.30259L18.9548 6.63293C19.328 6.88471 19.6336 7.22426 19.8449 7.62175C20.0562 8.01924 20.1667 8.46252 20.1667 8.91267V17.4157ZM11 6.42118C9.91122 6.42104 8.8469 6.74406 7.94186 7.34932C7.03681 7.95457 6.33177 8.81483 5.91605 9.82112C5.50032 10.8274 5.39261 11.9344 5.60657 13.002C5.82052 14.0695 6.34652 15.0496 7.11792 15.8179L8.78992 17.4533C9.38239 18.027 10.1748 18.3478 10.9995 18.3478C11.8243 18.3478 12.6167 18.027 13.2092 17.4533L14.8894 15.8106C15.6587 15.0414 16.1827 14.0613 16.3949 12.9944C16.6072 11.9274 16.4983 10.8214 16.082 9.81633C15.6656 8.81125 14.9606 7.95222 14.056 7.34788C13.1514 6.74354 12.0879 6.42104 11 6.42118ZM13.5997 14.5071L11.9268 16.1433C11.6781 16.3841 11.3456 16.5187 10.9995 16.5187C10.6535 16.5187 10.3209 16.3841 10.0723 16.1433L8.40675 14.5144C7.89429 14.0019 7.5452 13.3491 7.40358 12.6383C7.26195 11.9275 7.33414 11.1907 7.61103 10.5209C7.88791 9.85118 8.35708 9.27848 8.95926 8.8752C9.56144 8.47192 10.2696 8.25614 10.9944 8.25511C11.7191 8.25409 12.4279 8.46787 13.0312 8.86945C13.6346 9.27103 14.1053 9.84239 14.3841 10.5114C14.6629 11.1804 14.7372 11.917 14.5975 12.6281C14.4579 13.3393 14.1107 13.9932 13.5997 14.5071ZM11.9167 11.9157C11.9167 12.097 11.8629 12.2742 11.7622 12.4249C11.6615 12.5757 11.5183 12.6932 11.3508 12.7626C11.1833 12.8319 10.999 12.8501 10.8212 12.8147C10.6434 12.7794 10.48 12.6921 10.3518 12.5639C10.2236 12.4357 10.1363 12.2723 10.1009 12.0945C10.0656 11.9167 10.0837 11.7324 10.1531 11.5649C10.2225 11.3974 10.34 11.2542 10.4907 11.1535C10.6415 11.0528 10.8187 10.999 11 10.999C11.2431 10.999 11.4763 11.0956 11.6482 11.2675C11.8201 11.4394 11.9167 11.6726 11.9167 11.9157Z" fill="#323232"/>
</g>
<defs>
<clipPath id="clip0_121_963">
<rect width="22" height="22" fill="white"/>
</clipPath>
</defs>
</svg>
