<svg width="22" height="22" viewBox="0 0 22 22" fill="none" xmlns="http://www.w3.org/2000/svg">
<path d="M11.0007 7.33301C10.2755 7.33301 9.56654 7.54805 8.96356 7.95095C8.36058 8.35385 7.89062 8.92651 7.61309 9.5965C7.33557 10.2665 7.26296 11.0037 7.40444 11.715C7.54592 12.4263 7.89514 13.0796 8.40793 13.5924C8.92072 14.1052 9.57406 14.4544 10.2853 14.5959C10.9966 14.7374 11.7338 14.6648 12.4038 14.3872C13.0738 14.1097 13.6465 13.6397 14.0494 13.0368C14.4523 12.4338 14.6673 11.7249 14.6673 10.9997C14.6673 10.0272 14.281 9.09458 13.5934 8.40695C12.9057 7.71932 11.9731 7.33301 11.0007 7.33301ZM11.0007 12.833C10.6381 12.833 10.2836 12.7255 9.98211 12.524C9.68062 12.3226 9.44563 12.0363 9.30687 11.7013C9.16811 11.3663 9.13181 10.9976 9.20255 10.642C9.27329 10.2864 9.44789 9.95971 9.70429 9.70331C9.96069 9.44692 10.2874 9.27231 10.643 9.20157C10.9986 9.13083 11.3672 9.16713 11.7022 9.3059C12.0372 9.44466 12.3236 9.67964 12.525 9.98113C12.7265 10.2826 12.834 10.6371 12.834 10.9997C12.834 11.4859 12.6408 11.9522 12.297 12.296C11.9532 12.6399 11.4869 12.833 11.0007 12.833Z" fill="#323232"/>
<path d="M19.52 12.7417L19.113 12.507C19.2962 11.5101 19.2962 10.4881 19.113 9.49117L19.52 9.2565C19.833 9.07593 20.1073 8.83549 20.3274 8.54889C20.5474 8.26229 20.7089 7.93516 20.8025 7.58617C20.8961 7.23717 20.9201 6.87315 20.8731 6.51489C20.826 6.15664 20.7089 5.81115 20.5283 5.49817C20.3477 5.18518 20.1073 4.91083 19.8207 4.69077C19.5341 4.47071 19.207 4.30926 18.858 4.21562C18.509 4.12199 18.145 4.09802 17.7867 4.14506C17.4284 4.19211 17.083 4.30927 16.77 4.48983L16.3621 4.72542C15.5916 4.06718 14.7062 3.55689 13.7505 3.22025V2.75C13.7505 2.02065 13.4607 1.32118 12.945 0.805456C12.4293 0.289731 11.7298 0 11.0005 0C10.2711 0 9.57165 0.289731 9.05592 0.805456C8.5402 1.32118 8.25047 2.02065 8.25047 2.75V3.22025C7.29474 3.5581 6.40966 4.06963 5.6398 4.72908L5.23005 4.49167C4.59795 4.12699 3.84687 4.02836 3.14205 4.21746C2.43723 4.40656 1.83639 4.8679 1.47172 5.5C1.10704 6.1321 1.00841 6.88318 1.19751 7.588C1.38661 8.29282 1.84795 8.89366 2.48005 9.25833L2.88705 9.493C2.70382 10.4899 2.70382 11.5119 2.88705 12.5088L2.48005 12.7435C1.84795 13.1082 1.38661 13.709 1.19751 14.4138C1.00841 15.1187 1.10704 15.8697 1.47172 16.5018C1.83639 17.1339 2.43723 17.5953 3.14205 17.7844C3.84687 17.9735 4.59795 17.8748 5.23005 17.5102L5.63797 17.2746C6.40867 17.9329 7.29436 18.4432 8.25047 18.7798V19.25C8.25047 19.9793 8.5402 20.6788 9.05592 21.1945C9.57165 21.7103 10.2711 22 11.0005 22C11.7298 22 12.4293 21.7103 12.945 21.1945C13.4607 20.6788 13.7505 19.9793 13.7505 19.25V18.7798C14.7062 18.4419 15.5913 17.9304 16.3611 17.2709L16.7709 17.5074C17.403 17.8721 18.1541 17.9707 18.8589 17.7816C19.5637 17.5925 20.1645 17.1312 20.5292 16.4991C20.8939 15.867 20.9925 15.1159 20.8034 14.4111C20.6143 13.7063 20.153 13.1054 19.5209 12.7408L19.52 12.7417ZM17.1843 9.28033C17.4947 10.4051 17.4947 11.593 17.1843 12.7178C17.1301 12.9136 17.1425 13.1218 17.2194 13.3098C17.2964 13.4978 17.4337 13.6549 17.6096 13.7564L18.6033 14.3303C18.814 14.4518 18.9677 14.6521 19.0307 14.887C19.0937 15.1219 19.0608 15.3722 18.9393 15.5829C18.8177 15.7935 18.6174 15.9473 18.3825 16.0103C18.1476 16.0733 17.8973 16.0404 17.6866 15.9188L16.6911 15.3432C16.515 15.2412 16.31 15.2007 16.1084 15.2281C15.9067 15.2554 15.7199 15.3492 15.5774 15.4944C14.7615 16.3274 13.7336 16.9216 12.6046 17.2132C12.4076 17.2638 12.233 17.3786 12.1083 17.5394C11.9837 17.7002 11.9161 17.898 11.9162 18.1014V19.25C11.9162 19.4931 11.8196 19.7263 11.6477 19.8982C11.4758 20.0701 11.2427 20.1667 10.9995 20.1667C10.7564 20.1667 10.5233 20.0701 10.3514 19.8982C10.1795 19.7263 10.0829 19.4931 10.0829 19.25V18.1023C10.083 17.8989 10.0154 17.7012 9.89075 17.5403C9.76612 17.3795 9.59152 17.2647 9.39447 17.2141C8.26545 16.9214 7.23785 16.3258 6.42263 15.4917C6.28011 15.3464 6.09331 15.2527 5.89166 15.2253C5.69001 15.1979 5.48498 15.2384 5.30888 15.3404L4.31522 15.9152C4.21093 15.9763 4.09557 16.0162 3.9758 16.0326C3.85602 16.049 3.73419 16.0415 3.61732 16.0106C3.50044 15.9797 3.39083 15.926 3.2948 15.8525C3.19877 15.7791 3.11821 15.6874 3.05777 15.5827C2.99732 15.478 2.95818 15.3624 2.9426 15.2425C2.92702 15.1226 2.9353 15.0009 2.96697 14.8842C2.99865 14.7675 3.05309 14.6583 3.12715 14.5627C3.20122 14.4672 3.29346 14.3873 3.39855 14.3275L4.39222 13.7537C4.56817 13.6521 4.70542 13.4951 4.7824 13.3071C4.85939 13.1191 4.87175 12.9109 4.81755 12.7151C4.50713 11.5903 4.50713 10.4024 4.81755 9.27758C4.87078 9.08222 4.85782 8.87474 4.78071 8.68752C4.7036 8.5003 4.56667 8.34387 4.3913 8.24267L3.39763 7.66883C3.18697 7.54728 3.03323 7.34701 2.97023 7.1121C2.90722 6.87719 2.94012 6.62687 3.06167 6.41621C3.18323 6.20555 3.3835 6.05181 3.61841 5.9888C3.85332 5.9258 4.10364 5.95869 4.3143 6.08025L5.3098 6.65592C5.48541 6.75814 5.69002 6.79911 5.89145 6.7724C6.09288 6.74568 6.27973 6.6528 6.42263 6.50833C7.23855 5.6754 8.26644 5.0811 9.39538 4.78958C9.59305 4.73877 9.7681 4.62344 9.8928 4.46188C10.0175 4.30031 10.0847 4.10176 10.0838 3.89767V2.75C10.0838 2.50688 10.1804 2.27373 10.3523 2.10182C10.5242 1.92991 10.7574 1.83333 11.0005 1.83333C11.2436 1.83333 11.4767 1.92991 11.6486 2.10182C11.8206 2.27373 11.9171 2.50688 11.9171 2.75V3.89767C11.917 4.10113 11.9846 4.29884 12.1093 4.45966C12.2339 4.62047 12.4085 4.73526 12.6055 4.78592C13.7349 5.07847 14.7628 5.67406 15.5783 6.50833C15.7208 6.65359 15.9076 6.7473 16.1093 6.77469C16.3109 6.80207 16.516 6.76158 16.692 6.65958L17.6857 6.08483C17.79 6.02369 17.9054 5.98379 18.0251 5.96741C18.1449 5.95103 18.2667 5.95851 18.3836 5.98941C18.5005 6.02031 18.6101 6.07402 18.7061 6.14745C18.8022 6.22089 18.8827 6.31259 18.9432 6.41728C19.0036 6.52198 19.0428 6.63759 19.0583 6.75747C19.0739 6.87736 19.0656 6.99913 19.034 7.1158C19.0023 7.23247 18.9478 7.34172 18.8738 7.43726C18.7997 7.5328 18.7075 7.61275 18.6024 7.6725L17.6087 8.24633C17.4337 8.34781 17.2971 8.50435 17.2204 8.69155C17.1436 8.87875 17.1309 9.08609 17.1843 9.28125V9.28033Z" fill="#323232"/>
</svg>
