<svg width="22" height="22" viewBox="0 0 22 22" fill="none" xmlns="http://www.w3.org/2000/svg">
<g clip-path="url(#clip0_121_959)">
<path d="M15.584 12.8334C15.584 13.0765 15.4874 13.3096 15.3155 13.4815C15.1436 13.6534 14.9104 13.75 14.6673 13.75H7.33398C7.09087 13.75 6.85771 13.6534 6.6858 13.4815C6.5139 13.3096 6.41732 13.0765 6.41732 12.8334C6.41732 12.5902 6.5139 12.3571 6.6858 12.1852C6.85771 12.0133 7.09087 11.9167 7.33398 11.9167H14.6673C14.9104 11.9167 15.1436 12.0133 15.3155 12.1852C15.4874 12.3571 15.584 12.5902 15.584 12.8334ZM11.9173 15.5834H7.33398C7.09087 15.5834 6.85771 15.6799 6.6858 15.8518C6.5139 16.0237 6.41732 16.2569 6.41732 16.5C6.41732 16.7431 6.5139 16.9763 6.6858 17.1482C6.85771 17.3201 7.09087 17.4167 7.33398 17.4167H11.9173C12.1604 17.4167 12.3936 17.3201 12.5655 17.1482C12.7374 16.9763 12.834 16.7431 12.834 16.5C12.834 16.2569 12.7374 16.0237 12.5655 15.8518C12.3936 15.6799 12.1604 15.5834 11.9173 15.5834ZM20.1673 9.61127V17.4167C20.1659 18.6318 19.6825 19.7968 18.8233 20.656C17.9641 21.5152 16.7991 21.9986 15.584 22H6.41732C5.20219 21.9986 4.03725 21.5152 3.17802 20.656C2.31879 19.7968 1.83544 18.6318 1.83398 17.4167V4.58335C1.83544 3.36823 2.31879 2.20328 3.17802 1.34406C4.03725 0.48483 5.20219 0.00147666 6.41732 2.1128e-05H10.5561C11.3991 -0.00214855 12.2341 0.16281 13.0129 0.485359C13.7918 0.807908 14.4989 1.28165 15.0936 1.87919L18.2872 5.07469C18.8851 5.66891 19.3592 6.37586 19.6819 7.15458C20.0046 7.93331 20.1696 8.76832 20.1673 9.61127ZM13.7974 3.17535C13.5089 2.89592 13.185 2.65553 12.834 2.46035V6.41669C12.834 6.6598 12.9306 6.89296 13.1025 7.06487C13.2744 7.23678 13.5075 7.33335 13.7507 7.33335H17.707C17.5117 6.98244 17.271 6.65882 16.9911 6.37085L13.7974 3.17535ZM18.334 9.61127C18.334 9.46002 18.3047 9.31519 18.2909 9.16669H13.7507C13.0213 9.16669 12.3218 8.87696 11.8061 8.36123C11.2904 7.84551 11.0007 7.14603 11.0007 6.41669V1.87644C10.8522 1.86269 10.7064 1.83335 10.5561 1.83335H6.41732C5.68797 1.83335 4.9885 2.12309 4.47277 2.63881C3.95705 3.15454 3.66732 3.85401 3.66732 4.58335V17.4167C3.66732 18.146 3.95705 18.8455 4.47277 19.3612C4.9885 19.877 5.68797 20.1667 6.41732 20.1667H15.584C16.3133 20.1667 17.0128 19.877 17.5285 19.3612C18.0443 18.8455 18.334 18.146 18.334 17.4167V9.61127Z" fill="#323232"/>
</g>
<defs>
<clipPath id="clip0_121_959">
<rect width="22" height="22" fill="white"/>
</clipPath>
</defs>
</svg>
