<svg width="22" height="22" viewBox="0 0 22 22" fill="none" xmlns="http://www.w3.org/2000/svg">
<g clip-path="url(#clip0_121_978)">
<path d="M16.0422 1.75586C15.01 1.77191 14.0003 2.06006 13.1151 2.59119C12.2298 3.12232 11.5004 3.87764 11.0005 4.78086C10.5006 3.87764 9.77122 3.12232 8.886 2.59119C8.00078 2.06006 6.99108 1.77191 5.95887 1.75586C4.31339 1.82735 2.7631 2.54718 1.64667 3.75807C0.530236 4.96897 -0.0615732 6.57251 0.000531428 8.21836C0.000531428 12.3864 4.3877 16.9386 8.0672 20.025C8.88873 20.7154 9.92744 21.0939 11.0005 21.0939C12.0736 21.0939 13.1123 20.7154 13.9339 20.025C17.6134 16.9386 22.0005 12.3864 22.0005 8.21836C22.0626 6.57251 21.4708 4.96897 20.3544 3.75807C19.238 2.54718 17.6877 1.82735 16.0422 1.75586ZM12.7559 18.6225C12.2646 19.0363 11.6429 19.2632 11.0005 19.2632C10.3582 19.2632 9.73646 19.0363 9.24511 18.6225C4.53528 14.6708 1.83386 10.8794 1.83386 8.21836C1.7712 7.05852 2.1697 5.92095 2.94245 5.05375C3.7152 4.18656 4.7995 3.6601 5.95887 3.58919C7.11823 3.6601 8.20253 4.18656 8.97528 5.05375C9.74803 5.92095 10.1465 7.05852 10.0839 8.21836C10.0839 8.46147 10.1804 8.69463 10.3524 8.86654C10.5243 9.03845 10.7574 9.13503 11.0005 9.13503C11.2436 9.13503 11.4768 9.03845 11.6487 8.86654C11.8206 8.69463 11.9172 8.46147 11.9172 8.21836C11.8545 7.05852 12.253 5.92095 13.0258 5.05375C13.7985 4.18656 14.8828 3.6601 16.0422 3.58919C17.2016 3.6601 18.2859 4.18656 19.0586 5.05375C19.8314 5.92095 20.2299 7.05852 20.1672 8.21836C20.1672 10.8794 17.4658 14.6708 12.7559 18.6189V18.6225Z" fill="#323232"/>
</g>
<defs>
<clipPath id="clip0_121_978">
<rect width="22" height="22" fill="white"/>
</clipPath>
</defs>
</svg>
