<svg width="18" height="18" viewBox="0 0 18 18" fill="none" xmlns="http://www.w3.org/2000/svg">
<g clip-path="url(#clip0_1_585)">
<path d="M17.9251 8.57694C17.6304 6.3085 16.483 4.23739 14.7161 2.78457C12.9492 1.33175 10.6953 0.606248 8.41272 0.755526C6.1301 0.904804 3.98997 1.91766 2.42733 3.58822C0.864681 5.25879 -0.00321018 7.4617 5.55405e-05 9.74919C-0.00426776 10.9736 0.243849 12.1857 0.728917 13.3099C1.21398 14.4341 1.92559 15.4463 2.81931 16.2832C3.50281 16.916 4.40342 17.2619 5.33481 17.2492H12.6601C13.644 17.2515 14.5894 16.8665 15.2918 16.1774C16.2928 15.2035 17.0523 14.009 17.5095 12.6894C17.9667 11.3697 18.109 9.9614 17.9251 8.57694ZM14.2433 15.1019C13.8213 15.5177 13.2524 15.7503 12.6601 15.7492H5.33481C4.78676 15.7604 4.25518 15.5616 3.84906 15.1934C3.10451 14.496 2.51167 13.6527 2.10752 12.716C1.70337 11.7793 1.49658 10.7693 1.50006 9.74919C1.50079 8.69337 1.72414 7.64957 2.15551 6.68589C2.58688 5.72222 3.21659 4.86032 4.00355 4.15644C5.37091 2.92337 7.14833 2.24347 8.98956 2.24919C9.28375 2.24931 9.5777 2.26584 9.87006 2.29869C11.2768 2.46207 12.6084 3.02061 13.7108 3.90963C14.8131 4.79865 15.641 5.98177 16.0987 7.32196C16.5563 8.66214 16.6249 10.1045 16.2966 11.4821C15.9682 12.8597 15.2563 14.1161 14.2433 15.1057V15.1019ZM5.85531 12.9629C5.99753 13.1022 6.07861 13.2922 6.08072 13.4912C6.08283 13.6903 6.00579 13.882 5.86656 14.0242C5.72732 14.1664 5.53728 14.2475 5.33826 14.2496C5.13924 14.2517 4.94753 14.1747 4.80531 14.0354C3.95403 13.2016 3.37033 12.1331 3.12861 10.9662C2.8869 9.79937 2.99812 8.58695 3.44809 7.48353C3.89807 6.38011 4.66642 5.43567 5.6552 4.7706C6.64399 4.10553 7.80841 3.74995 9.00006 3.74919C9.28688 3.74911 9.57335 3.76941 9.8573 3.80994C9.95482 3.824 10.0486 3.85713 10.1333 3.90745C10.218 3.95777 10.292 4.02429 10.351 4.1032C10.41 4.18211 10.4528 4.27188 10.4771 4.36736C10.5014 4.46285 10.5067 4.56218 10.4926 4.65969C10.4796 4.75774 10.4472 4.85221 10.3973 4.93755C10.3473 5.0229 10.2808 5.09739 10.2016 5.15665C10.1224 5.21591 10.0322 5.25873 9.93626 5.28261C9.84029 5.30649 9.74052 5.31094 9.64281 5.29569C8.70417 5.16162 7.74717 5.32746 6.90837 5.76954C6.06958 6.21163 5.39186 6.90736 4.97192 7.75746C4.55199 8.60755 4.4113 9.56857 4.56994 10.5034C4.72858 11.4382 5.17843 12.299 5.85531 12.9629ZM14.9393 8.89194C14.9798 9.17589 15.0001 9.46236 15.0001 9.74919C15.0025 10.5484 14.8438 11.34 14.5335 12.0766C14.2232 12.8131 13.7677 13.4796 13.1941 14.0362C13.0516 14.1754 12.8597 14.2524 12.6606 14.2501C12.4614 14.2479 12.2713 14.1666 12.1321 14.0242C11.9928 13.8818 11.9159 13.6899 11.9181 13.4907C11.9204 13.2915 12.0016 13.1014 12.1441 12.9622C12.6508 12.4683 13.0335 11.8614 13.2608 11.1913C13.4881 10.5212 13.5537 9.80675 13.4521 9.10644C13.4236 8.90942 13.4746 8.70917 13.5938 8.54974C13.713 8.39031 13.8907 8.28476 14.0877 8.25632C14.2847 8.22787 14.485 8.27886 14.6444 8.39806C14.8038 8.51727 14.9094 8.69492 14.9378 8.89194H14.9393ZM10.4446 9.36519C10.5348 9.68976 10.515 10.0351 10.3883 10.3472C10.2616 10.6594 10.0351 10.9207 9.74414 11.0906C9.45319 11.2604 9.11419 11.3291 8.78009 11.2859C8.44599 11.2427 8.1356 11.0901 7.89739 10.8519C7.65918 10.6136 7.50656 10.3033 7.46338 9.96915C7.42019 9.63505 7.48887 9.29605 7.65869 9.00511C7.8285 8.71416 8.08989 8.48764 8.40203 8.36092C8.71417 8.23421 9.05949 8.21444 9.38406 8.30469L12.2198 5.46894C12.289 5.39731 12.3717 5.34017 12.4633 5.30087C12.5548 5.26156 12.6532 5.24087 12.7528 5.24C12.8523 5.23914 12.9511 5.25811 13.0433 5.29582C13.1354 5.33354 13.2192 5.38923 13.2896 5.45964C13.36 5.53006 13.4157 5.6138 13.4534 5.70598C13.4911 5.79815 13.5101 5.89691 13.5092 5.99649C13.5084 6.09608 13.4877 6.19449 13.4484 6.28599C13.4091 6.3775 13.3519 6.46026 13.2803 6.52944L10.4446 9.36519Z" fill="#646464"/>
</g>
<defs>
<clipPath id="clip0_1_585">
<rect width="18" height="18" fill="white"/>
</clipPath>
</defs>
</svg>
