<svg width="18" height="18" viewBox="0 0 18 18" fill="none" xmlns="http://www.w3.org/2000/svg">
<g clip-path="url(#clip0_1_563)">
<path d="M11.2489 2.88761C11.2512 3.03676 11.2972 3.18196 11.381 3.30536C11.4648 3.42875 11.5829 3.52495 11.7206 3.58211C12.9523 4.12404 13.9939 5.02174 14.7117 6.15994C15.4294 7.29813 15.7906 8.62489 15.7489 9.96986C15.7198 11.7601 14.9808 13.4654 13.6944 14.7108C12.408 15.9561 10.6796 16.6394 8.88939 16.6104C7.09917 16.5813 5.39382 15.8423 4.14849 14.5559C2.90315 13.2695 2.21985 11.5411 2.24889 9.75086C2.25062 8.44303 2.63225 7.16386 3.34738 6.06887C4.0625 4.97387 5.08034 4.1102 6.27714 3.58286C6.41498 3.52535 6.53304 3.42887 6.61684 3.30523C6.70064 3.1816 6.74653 3.0362 6.74889 2.88686C6.74908 2.76402 6.7191 2.64301 6.66157 2.53446C6.60404 2.42592 6.52074 2.33317 6.41897 2.26437C6.31721 2.19556 6.2001 2.15281 6.07794 2.13986C5.95578 2.12691 5.83231 2.14416 5.71839 2.19011C3.97785 2.94471 2.55055 4.27611 1.67691 5.96005C0.803266 7.64399 0.536658 9.57757 0.921994 11.4351C1.30733 13.2926 2.32106 14.9606 3.79244 16.1581C5.26382 17.3556 7.10293 18.0094 9.00001 18.0094C10.8971 18.0094 12.7362 17.3556 14.2076 16.1581C15.679 14.9606 16.6927 13.2926 17.078 11.4351C17.4634 9.57757 17.1968 7.64399 16.3231 5.96005C15.4495 4.27611 14.0222 2.94471 12.2816 2.19011C12.1675 2.14366 12.0438 2.12604 11.9212 2.1388C11.7987 2.15155 11.6812 2.19429 11.5791 2.26324C11.477 2.33219 11.3935 2.42522 11.3359 2.53412C11.2783 2.64301 11.2484 2.76442 11.2489 2.88761Z" fill="#646464"/>
<path d="M9.75001 0.75C9.75001 0.335786 9.41422 0 9 0C8.58579 0 8.25 0.335786 8.25 0.75V5.25C8.25 5.66421 8.58579 6 9 6C9.41422 6 9.75001 5.66421 9.75001 5.25V0.75Z" fill="#646464"/>
</g>
<defs>
<clipPath id="clip0_1_563">
<rect width="18" height="18" fill="white"/>
</clipPath>
</defs>
</svg>
