<svg width="18" height="18" viewBox="0 0 18 18" fill="none" xmlns="http://www.w3.org/2000/svg">
<g clip-path="url(#clip0_1_606)">
<path d="M16.7448 13.8161C17.2908 14.5916 17.9996 15.4878 17.9996 16.1246C17.9996 16.6219 17.802 17.0988 17.4504 17.4504C17.0988 17.802 16.6219 17.9996 16.1246 17.9996C15.6273 17.9996 15.1504 17.802 14.7988 17.4504C14.4471 17.0988 14.2496 16.6219 14.2496 16.1246C14.2496 15.5433 14.9703 14.6186 15.5186 13.8228C15.5873 13.7242 15.6787 13.6435 15.7851 13.5875C15.8915 13.5316 16.0097 13.502 16.13 13.5014C16.2502 13.5007 16.3688 13.529 16.4758 13.5837C16.5828 13.6385 16.6751 13.7182 16.7448 13.8161ZM16.0871 10.3976L9.58308 16.9016C8.87923 17.6037 7.92564 17.998 6.93145 17.998C5.93727 17.998 4.98367 17.6037 4.27982 16.9016L1.09832 13.7193C0.395078 13.0161 0 12.0622 0 11.0677C0 10.0731 0.395078 9.11933 1.09832 8.41607L5.38007 4.13357L3.23807 1.96607C3.10204 1.82389 3.02733 1.63394 3.03006 1.43718C3.03279 1.24042 3.11274 1.05262 3.25267 0.914264C3.3926 0.775911 3.58129 0.698092 3.77807 0.697589C3.97485 0.697085 4.16394 0.773937 4.30457 0.911573L6.44058 3.07457L7.60158 1.91207L6.96933 1.27982C6.83271 1.13837 6.75711 0.94892 6.75882 0.752272C6.76053 0.555624 6.83941 0.367515 6.97846 0.228459C7.11752 0.0894029 7.30563 0.0105262 7.50227 0.00881741C7.69892 0.0071086 7.88837 0.0827044 8.02983 0.219323L17.7798 9.96932C17.8515 10.0385 17.9086 10.1213 17.9479 10.2128C17.9872 10.3043 18.0079 10.4027 18.0088 10.5023C18.0096 10.6019 17.9907 10.7006 17.9529 10.7928C17.9152 10.885 17.8595 10.9687 17.7891 11.0391C17.7187 11.1095 17.635 11.1652 17.5428 11.2029C17.4506 11.2406 17.3519 11.2596 17.2523 11.2588C17.1527 11.2579 17.0543 11.2372 16.9628 11.1979C16.8713 11.1586 16.7885 11.1015 16.7193 11.0298L16.0871 10.3976ZM15.0266 9.33707L8.66208 2.97257L7.49433 4.14107L11.0328 7.72457C11.1096 7.79278 11.1716 7.87604 11.2149 7.96919C11.2582 8.06234 11.2819 8.16339 11.2845 8.26607C11.2872 8.36876 11.2687 8.47089 11.2302 8.56614C11.1918 8.66139 11.1342 8.74772 11.061 8.81979C10.9878 8.89185 10.9006 8.94812 10.8047 8.98508C10.7089 9.02205 10.6065 9.03894 10.5038 9.0347C10.4012 9.03046 10.3005 9.00519 10.2081 8.96044C10.1156 8.91569 10.0333 8.85243 9.96633 8.77457L6.43458 5.20082L2.15957 9.47582C1.9506 9.68476 1.78483 9.93281 1.67174 10.2058C1.55864 10.4788 1.50043 10.7714 1.50043 11.0669C1.50043 11.3625 1.55864 11.6551 1.67174 11.9281C1.78483 12.2011 1.9506 12.4491 2.15957 12.6581L5.34107 15.8403C5.76353 16.2614 6.3357 16.4979 6.9322 16.4979C7.5287 16.4979 8.10087 16.2614 8.52333 15.8403L15.0266 9.33707Z" fill="#646464"/>
</g>
<defs>
<clipPath id="clip0_1_606">
<rect width="18" height="18" fill="white"/>
</clipPath>
</defs>
</svg>
