<svg width="19" height="18" viewBox="0 0 19 18" fill="none" xmlns="http://www.w3.org/2000/svg">
<g clip-path="url(#clip0_1_577)">
<path d="M18.666 9C18.666 9.19891 18.587 9.38968 18.4463 9.53033C18.3057 9.67098 18.1149 9.75 17.916 9.75C17.7171 9.75 17.5263 9.67098 17.3857 9.53033C17.245 9.38968 17.166 9.19891 17.166 9C17.1638 7.01155 16.373 5.10516 14.9669 3.69911C13.5609 2.29306 11.6545 1.50218 9.66602 1.5C9.4671 1.5 9.27634 1.42098 9.13569 1.28033C8.99503 1.13968 8.91602 0.948912 8.91602 0.75C8.91602 0.551088 8.99503 0.360322 9.13569 0.21967C9.27634 0.0790176 9.4671 0 9.66602 0C12.0522 0.00258081 14.3399 0.951621 16.0271 2.63889C17.7144 4.32616 18.6634 6.61384 18.666 9ZM12.666 9.75C12.8649 9.75 13.0557 9.67098 13.1963 9.53033C13.337 9.38968 13.416 9.19891 13.416 9C13.416 8.80109 13.337 8.61032 13.1963 8.46967C13.0557 8.32902 12.8649 8.25 12.666 8.25H10.9583C10.8276 8.02532 10.6407 7.83846 10.416 7.70775V5.25C10.416 5.05109 10.337 4.86032 10.1963 4.71967C10.0557 4.57902 9.86493 4.5 9.66602 4.5C9.4671 4.5 9.27634 4.57902 9.13569 4.71967C8.99503 4.86032 8.91602 5.05109 8.91602 5.25V7.70775C8.7171 7.82229 8.54721 7.98108 8.41952 8.17182C8.29183 8.36256 8.20975 8.58014 8.17966 8.8077C8.14957 9.03525 8.17226 9.26668 8.24598 9.48406C8.3197 9.70144 8.44247 9.89893 8.60477 10.0612C8.76708 10.2236 8.96457 10.3463 9.18195 10.42C9.39933 10.4938 9.63076 10.5164 9.85832 10.4864C10.0859 10.4563 10.3035 10.3742 10.4942 10.2465C10.6849 10.1188 10.8437 9.94892 10.9583 9.75H12.666ZM2.03627 5.088C1.88793 5.088 1.74293 5.13199 1.61959 5.2144C1.49625 5.29681 1.40012 5.41394 1.34336 5.55099C1.28659 5.68803 1.27174 5.83883 1.30068 5.98432C1.32962 6.1298 1.40105 6.26344 1.50594 6.36833C1.61083 6.47322 1.74446 6.54465 1.88995 6.57359C2.03543 6.60253 2.18623 6.58768 2.32328 6.53091C2.46032 6.47414 2.57746 6.37801 2.65987 6.25468C2.74228 6.13134 2.78627 5.98634 2.78627 5.838C2.78627 5.63909 2.70725 5.44832 2.5666 5.30767C2.42594 5.16702 2.23518 5.088 2.03627 5.088ZM2.16602 9C2.16602 8.85166 2.12203 8.70666 2.03962 8.58332C1.95721 8.45998 1.84007 8.36386 1.70303 8.30709C1.56598 8.25032 1.41518 8.23547 1.2697 8.26441C1.12421 8.29335 0.990575 8.36478 0.885686 8.46967C0.780796 8.57456 0.709366 8.7082 0.680427 8.85368C0.651488 8.99917 0.666341 9.14997 0.723106 9.28701C0.779872 9.42406 0.876001 9.54119 0.999338 9.6236C1.12268 9.70601 1.26768 9.75 1.41602 9.75C1.61493 9.75 1.80569 9.67098 1.94635 9.53033C2.087 9.38968 2.16602 9.19891 2.16602 9ZM9.66602 16.5C9.51768 16.5 9.37267 16.544 9.24934 16.6264C9.126 16.7088 9.02987 16.8259 8.97311 16.963C8.91634 17.1 8.90149 17.2508 8.93043 17.3963C8.95937 17.5418 9.0308 17.6754 9.13569 17.7803C9.24057 17.8852 9.37421 17.9566 9.5197 17.9856C9.66518 18.0145 9.81598 17.9997 9.95303 17.9429C10.0901 17.8861 10.2072 17.79 10.2896 17.6667C10.372 17.5433 10.416 17.3983 10.416 17.25C10.416 17.0511 10.337 16.8603 10.1963 16.7197C10.0557 16.579 9.86493 16.5 9.66602 16.5ZM3.83177 2.40525C3.68343 2.40525 3.53843 2.44924 3.41509 2.53165C3.29175 2.61406 3.19562 2.73119 3.13886 2.86824C3.08209 3.00528 3.06724 3.15608 3.09618 3.30157C3.12512 3.44705 3.19655 3.58069 3.30144 3.68558C3.40633 3.79047 3.53996 3.8619 3.68545 3.89084C3.83093 3.91978 3.98173 3.90493 4.11878 3.84816C4.25582 3.79139 4.37296 3.69526 4.45537 3.57193C4.53778 3.44859 4.58177 3.30359 4.58177 3.15525C4.58177 2.95634 4.50275 2.76557 4.3621 2.62492C4.22144 2.48427 4.03068 2.40525 3.83177 2.40525ZM6.50027 0.63075C6.35193 0.63075 6.20692 0.674737 6.08359 0.757148C5.96025 0.839559 5.86412 0.956693 5.80736 1.09374C5.75059 1.23078 5.73574 1.38158 5.76468 1.52707C5.79362 1.67255 5.86505 1.80619 5.96994 1.91108C6.07483 2.01597 6.20846 2.0874 6.35395 2.11634C6.49943 2.14528 6.65023 2.13043 6.78728 2.07366C6.92432 2.01689 7.04146 1.92076 7.12387 1.79743C7.20628 1.67409 7.25027 1.52909 7.25027 1.38075C7.25027 1.18184 7.17125 0.991072 7.0306 0.85042C6.88994 0.709768 6.69918 0.63075 6.50027 0.63075ZM2.03627 11.412C1.88793 11.412 1.74293 11.456 1.61959 11.5384C1.49625 11.6208 1.40012 11.7379 1.34336 11.875C1.28659 12.012 1.27174 12.1628 1.30068 12.3083C1.32962 12.4538 1.40105 12.5874 1.50594 12.6923C1.61083 12.7972 1.74446 12.8686 1.88995 12.8976C2.03543 12.9265 2.18623 12.9117 2.32328 12.8549C2.46032 12.7981 2.57746 12.702 2.65987 12.5787C2.74228 12.4553 2.78627 12.3103 2.78627 12.162C2.78627 11.9631 2.70725 11.7723 2.5666 11.6317C2.42594 11.491 2.23518 11.412 2.03627 11.412ZM3.83177 14.0947C3.68343 14.0947 3.53843 14.1387 3.41509 14.2211C3.29175 14.3036 3.19562 14.4207 3.13886 14.5577C3.08209 14.6948 3.06724 14.8456 3.09618 14.9911C3.12512 15.1366 3.19655 15.2702 3.30144 15.3751C3.40633 15.48 3.53996 15.5514 3.68545 15.5803C3.83093 15.6093 3.98173 15.5944 4.11878 15.5377C4.25582 15.4809 4.37296 15.3848 4.45537 15.2614C4.53778 15.1381 4.58177 14.9931 4.58177 14.8447C4.58177 14.6458 4.50275 14.4551 4.3621 14.3144C4.22144 14.1738 4.03068 14.0947 3.83177 14.0947ZM6.50027 15.8693C6.35193 15.8693 6.20692 15.9132 6.08359 15.9956C5.96025 16.0781 5.86412 16.1952 5.80736 16.3322C5.75059 16.4693 5.73574 16.6201 5.76468 16.7656C5.79362 16.9111 5.86505 17.0447 5.96994 17.1496C6.07483 17.2545 6.20846 17.3259 6.35395 17.3548C6.49943 17.3838 6.65023 17.3689 6.78728 17.3122C6.92432 17.2554 7.04146 17.1593 7.12387 17.0359C7.20628 16.9126 7.25027 16.7676 7.25027 16.6193C7.25027 16.4203 7.17125 16.2296 7.0306 16.0889C6.88994 15.9483 6.69918 15.8693 6.50027 15.8693ZM17.2958 11.412C17.1474 11.412 17.0024 11.456 16.8791 11.5384C16.7558 11.6208 16.6596 11.7379 16.6029 11.875C16.5461 12.012 16.5312 12.1628 16.5602 12.3083C16.5891 12.4538 16.6605 12.5874 16.7654 12.6923C16.8703 12.7972 17.004 12.8686 17.1494 12.8976C17.2949 12.9265 17.4457 12.9117 17.5828 12.8549C17.7198 12.7981 17.837 12.702 17.9194 12.5787C18.0018 12.4553 18.0458 12.3103 18.0458 12.162C18.0458 11.9631 17.9667 11.7723 17.8261 11.6317C17.6854 11.491 17.4947 11.412 17.2958 11.412ZM15.5003 14.0947C15.3519 14.0947 15.2069 14.1387 15.0836 14.2211C14.9603 14.3036 14.8641 14.4207 14.8074 14.5577C14.7506 14.6948 14.7357 14.8456 14.7647 14.9911C14.7936 15.1366 14.865 15.2702 14.9699 15.3751C15.0748 15.48 15.2085 15.5514 15.3539 15.5803C15.4994 15.6093 15.6502 15.5944 15.7873 15.5377C15.9243 15.4809 16.0415 15.3848 16.1239 15.2614C16.2063 15.1381 16.2503 14.9931 16.2503 14.8447C16.2503 14.6458 16.1712 14.4551 16.0306 14.3144C15.8899 14.1738 15.6992 14.0947 15.5003 14.0947ZM12.8318 15.8693C12.6834 15.8693 12.5384 15.9132 12.4151 15.9956C12.2918 16.0781 12.1956 16.1952 12.1389 16.3322C12.0821 16.4693 12.0672 16.6201 12.0962 16.7656C12.1251 16.9111 12.1965 17.0447 12.3014 17.1496C12.4063 17.2545 12.54 17.3259 12.6854 17.3548C12.8309 17.3838 12.9817 17.3689 13.1188 17.3122C13.2558 17.2554 13.373 17.1593 13.4554 17.0359C13.5378 16.9126 13.5818 16.7676 13.5818 16.6193C13.5818 16.4203 13.5027 16.2296 13.3621 16.0889C13.2214 15.9483 13.0307 15.8693 12.8318 15.8693Z" fill="#646464"/>
</g>
<defs>
<clipPath id="clip0_1_577">
<rect width="18" height="18" fill="white" transform="translate(0.666016)"/>
</clipPath>
</defs>
</svg>
