<svg width="19" height="18" viewBox="0 0 19 18" fill="none" xmlns="http://www.w3.org/2000/svg">
<g clip-path="url(#clip0_1_571)">
<path d="M17.5406 5.12767L15.9041 3.49042L16.6143 2.78017C16.6859 2.71098 16.7431 2.62822 16.7824 2.53672C16.8217 2.44522 16.8424 2.3468 16.8433 2.24722C16.8441 2.14763 16.8251 2.04887 16.7874 1.9567C16.7497 1.86453 16.694 1.78079 16.6236 1.71037C16.5532 1.63995 16.4694 1.58426 16.3773 1.54655C16.2851 1.50884 16.1863 1.48986 16.0868 1.49073C15.9872 1.49159 15.8888 1.51228 15.7973 1.55159C15.7058 1.5909 15.623 1.64803 15.5538 1.71967L14.8436 2.42992L13.2063 0.793415C12.6903 0.301657 12.0048 0.0273438 11.2919 0.0273438C10.5791 0.0273437 9.89361 0.301657 9.37756 0.793415C9.12598 1.04479 8.9264 1.34328 8.79024 1.67182C8.65407 2.00037 8.58398 2.35252 8.58398 2.70817C8.58398 3.06381 8.65407 3.41597 8.79024 3.74451C8.9264 4.07305 9.12598 4.37154 9.37756 4.62292L11.0141 6.25942L6.59356 10.6799L4.95631 9.04342C4.44027 8.55166 3.75477 8.27734 3.04194 8.27734C2.3291 8.27734 1.64361 8.55166 1.12756 9.04342C0.875981 9.29479 0.676403 9.59328 0.540237 9.92182C0.40407 10.2504 0.333984 10.6025 0.333984 10.9582C0.333984 11.3138 0.40407 11.666 0.540237 11.9945C0.676403 12.3231 0.875981 12.6215 1.12756 12.8729L2.76406 14.5094L2.05381 15.2197C1.98218 15.2889 1.92504 15.3716 1.88574 15.4631C1.84643 15.5546 1.82574 15.653 1.82487 15.7526C1.82401 15.8522 1.84299 15.951 1.8807 16.0431C1.91841 16.1353 1.9741 16.219 2.04452 16.2895C2.11494 16.3599 2.19867 16.4156 2.29085 16.4533C2.38302 16.491 2.48178 16.51 2.58136 16.5091C2.68095 16.5082 2.77936 16.4875 2.87087 16.4482C2.96237 16.4089 3.04513 16.3518 3.11431 16.2802L3.82456 15.5699L5.46181 17.2064C5.71317 17.4579 6.01161 17.6574 6.34009 17.7935C6.66856 17.9296 7.02063 17.9996 7.37619 17.9996C7.73174 17.9996 8.08381 17.9296 8.41229 17.7935C8.74076 17.6574 9.0392 17.4579 9.29056 17.2064C9.54212 16.9551 9.74168 16.6567 9.87784 16.3282C10.014 15.9997 10.0841 15.6476 10.0841 15.292C10.0841 14.9365 10.014 14.5844 9.87784 14.2559C9.74168 13.9274 9.54212 13.629 9.29056 13.3777L7.65406 11.7412L12.0791 7.31992L13.7156 8.95642C13.9669 9.20788 14.2654 9.40737 14.5938 9.54347C14.9223 9.67957 15.2744 9.74962 15.6299 9.74962C15.9855 9.74962 16.3376 9.67957 16.666 9.54347C16.9945 9.40737 17.293 9.20788 17.5443 8.95642C17.7959 8.70511 17.9954 8.40668 18.1316 8.0782C18.2677 7.74972 18.3378 7.39762 18.3378 7.04204C18.3378 6.68646 18.2677 6.33436 18.1316 6.00588C17.9954 5.6774 17.7959 5.37898 17.5443 5.12767H17.5406ZM8.58406 15.2924C8.58439 15.451 8.55327 15.6081 8.4925 15.7546C8.43174 15.9011 8.34254 16.0341 8.23006 16.1459C8.00018 16.3658 7.69432 16.4886 7.37619 16.4886C7.05806 16.4886 6.7522 16.3658 6.52231 16.1459L2.18806 11.8117C1.9616 11.5852 1.83438 11.2781 1.83438 10.9578C1.83438 10.6375 1.9616 10.3304 2.18806 10.1039C2.41452 9.87745 2.72167 9.75023 3.04194 9.75023C3.3622 9.75023 3.66935 9.87745 3.89581 10.1039L8.23006 14.4382C8.34263 14.5501 8.43188 14.6832 8.49265 14.8298C8.55341 14.9765 8.58449 15.1337 8.58406 15.2924ZM16.4801 7.89592C16.2502 8.11582 15.9443 8.23856 15.6262 8.23856C15.3081 8.23856 15.0022 8.11582 14.7723 7.89592L10.4381 3.56167C10.3259 3.44953 10.237 3.31641 10.1763 3.1699C10.1156 3.0234 10.0844 2.86637 10.0844 2.70779C10.0844 2.38753 10.2116 2.08038 10.4381 1.85392C10.6645 1.62745 10.9717 1.50023 11.2919 1.50023C11.6122 1.50023 11.9194 1.62745 12.1458 1.85392L16.4801 6.18817C16.5923 6.30024 16.6813 6.43335 16.7421 6.57986C16.8028 6.72638 16.8341 6.88343 16.8341 7.04204C16.8341 7.20065 16.8028 7.3577 16.7421 7.50422C16.6813 7.65073 16.5923 7.78384 16.4801 7.89592Z" fill="#646464"/>
</g>
<defs>
<clipPath id="clip0_1_571">
<rect width="18" height="18" fill="white" transform="translate(0.333984)"/>
</clipPath>
</defs>
</svg>
