<svg width="18" height="18" viewBox="0 0 18 18" fill="none" xmlns="http://www.w3.org/2000/svg">
<g clip-path="url(#clip0_1_591)">
<path d="M7.50525 2.25L6 2.2395C5.99722 1.64458 5.75895 1.07498 5.33729 0.655293C4.91563 0.235605 4.34492 -6.47794e-06 3.75 1.33582e-10L2.25 1.33582e-10C1.65326 1.33583e-10 1.08097 0.237053 0.65901 0.65901C0.237053 1.08097 0 1.65326 0 2.25L0 3.75C-1.62197e-06 4.34583 0.23633 4.91733 0.657153 5.33914C1.07797 5.76094 1.64892 5.99861 2.24475 6L2.23425 7.49475C2.23356 7.5933 2.2523 7.69103 2.2894 7.78234C2.3265 7.87364 2.38123 7.95675 2.45047 8.02689C2.5197 8.09703 2.60209 8.15284 2.6929 8.19112C2.78372 8.2294 2.88119 8.24941 2.97975 8.25H2.98425C3.18226 8.25 3.37223 8.17171 3.51273 8.03219C3.65323 7.89267 3.73286 7.70325 3.73425 7.50525L3.74475 6H3.75C4.34674 6 4.91903 5.76295 5.34099 5.34099C5.76295 4.91903 6 4.34674 6 3.75V3.7395L7.49475 3.75H7.5C7.59849 3.75034 7.69609 3.73129 7.78721 3.69391C7.87834 3.65654 7.96121 3.60159 8.0311 3.53219C8.10099 3.46279 8.15652 3.3803 8.19453 3.28944C8.23254 3.19858 8.25228 3.10112 8.25262 3.00262C8.25297 2.90413 8.23391 2.80654 8.19654 2.71541C8.15917 2.62429 8.10421 2.54141 8.03481 2.47153C7.96541 2.40164 7.88292 2.3461 7.79206 2.30809C7.7012 2.27009 7.60374 2.25034 7.50525 2.25ZM4.5 3.75C4.5 3.94891 4.42098 4.13968 4.28033 4.28033C4.13968 4.42098 3.94891 4.5 3.75 4.5H2.25C2.05109 4.5 1.86032 4.42098 1.71967 4.28033C1.57902 4.13968 1.5 3.94891 1.5 3.75V2.25C1.5 2.05109 1.57902 1.86032 1.71967 1.71967C1.86032 1.57902 2.05109 1.5 2.25 1.5H3.75C3.94891 1.5 4.13968 1.57902 4.28033 1.71967C4.42098 1.86032 4.5 2.05109 4.5 2.25V3.75Z" fill="#646464"/>
<path d="M15.7487 0H14.2487C13.6529 -1.62197e-06 13.0814 0.23633 12.6596 0.657153C12.2378 1.07797 12.0001 1.64892 11.9987 2.24475L10.5032 2.23425H10.4987C10.2998 2.23355 10.1088 2.3119 9.96762 2.45206C9.82648 2.59222 9.74679 2.78271 9.7461 2.98163C9.7454 3.18054 9.82375 3.37158 9.96391 3.51272C10.1041 3.65387 10.2946 3.73355 10.4935 3.73425L11.9987 3.74475V3.75C11.9987 4.34674 12.2358 4.91903 12.6577 5.34099C13.0797 5.76295 13.652 6 14.2487 6H14.2592L14.2487 7.49475C14.248 7.59324 14.2667 7.69091 14.3038 7.78216C14.3409 7.87342 14.3955 7.95649 14.4647 8.02662C14.5338 8.09676 14.6161 8.15258 14.7069 8.19091C14.7976 8.22923 14.895 8.24931 14.9935 8.25H14.9987C15.1967 8.25 15.3867 8.17171 15.5272 8.03219C15.6677 7.89267 15.7473 7.70325 15.7487 7.50525L15.7592 6C16.3541 5.99722 16.9237 5.75895 17.3434 5.33729C17.7631 4.91563 17.9987 4.34492 17.9987 3.75V2.25C17.9987 1.65326 17.7617 1.08097 17.3397 0.65901C16.9178 0.237053 16.3455 0 15.7487 0V0ZM16.4987 3.75C16.4987 3.94891 16.4197 4.13968 16.2791 4.28033C16.1384 4.42098 15.9476 4.5 15.7487 4.5H14.2487C14.0498 4.5 13.859 4.42098 13.7184 4.28033C13.5777 4.13968 13.4987 3.94891 13.4987 3.75V2.25C13.4987 2.05109 13.5777 1.86032 13.7184 1.71967C13.859 1.57902 14.0498 1.5 14.2487 1.5H15.7487C15.9476 1.5 16.1384 1.57902 16.2791 1.71967C16.4197 1.86032 16.4987 2.05109 16.4987 2.25V3.75Z" fill="#646464"/>
<path d="M15.754 12L15.7645 10.5045C15.7651 10.406 15.7463 10.3084 15.7091 10.2171C15.672 10.1259 15.6172 10.0429 15.548 9.97285C15.4788 9.90279 15.3964 9.84705 15.3056 9.80881C15.2149 9.77057 15.1175 9.75059 15.019 9.75H15.0145C14.8165 9.75 14.6265 9.82829 14.486 9.96781C14.3455 10.1073 14.2659 10.2967 14.2645 10.4947L14.254 12H14.2487C13.652 12 13.0797 12.237 12.6577 12.659C12.2358 13.081 11.9987 13.6533 11.9987 14.25V14.2605L10.504 14.25H10.4987C10.2998 14.2493 10.1088 14.3276 9.96762 14.4678C9.82648 14.608 9.74679 14.7985 9.7461 14.9974C9.7454 15.1963 9.82375 15.3873 9.96391 15.5285C10.1041 15.6696 10.2946 15.7493 10.4935 15.75L11.9987 15.7605C12.0015 16.3554 12.2398 16.925 12.6614 17.3447C13.0831 17.7644 13.6538 18 14.2487 18H15.7487C16.3455 18 16.9178 17.7629 17.3397 17.341C17.7617 16.919 17.9987 16.3467 17.9987 15.75V14.25C17.9987 13.6542 17.7624 13.0827 17.3416 12.6609C16.9207 12.2391 16.3498 12.0014 15.754 12ZM16.4987 15.75C16.4987 15.9489 16.4197 16.1397 16.2791 16.2803C16.1384 16.421 15.9476 16.5 15.7487 16.5H14.2487C14.0498 16.5 13.859 16.421 13.7184 16.2803C13.5777 16.1397 13.4987 15.9489 13.4987 15.75V14.25C13.4987 14.0511 13.5777 13.8603 13.7184 13.7197C13.859 13.579 14.0498 13.5 14.2487 13.5H15.7487C15.9476 13.5 16.1384 13.579 16.2791 13.7197C16.4197 13.8603 16.4987 14.0511 16.4987 14.25V15.75Z" fill="#646464"/>
<path d="M7.50525 14.2657L6 14.2552V14.25C6 13.6533 5.76295 13.081 5.34099 12.659C4.91903 12.237 4.34674 12 3.75 12H3.7395L3.75 10.5052C3.75069 10.4068 3.73198 10.3091 3.69492 10.2178C3.65787 10.1266 3.6032 10.0435 3.53405 9.97338C3.46489 9.90325 3.3826 9.84742 3.29187 9.80909C3.20113 9.77077 3.10374 9.75069 3.00525 9.75H3C2.80199 9.75 2.61202 9.82829 2.47152 9.96781C2.33102 10.1073 2.25139 10.2967 2.25 10.4947L2.2395 12C1.64458 12.0028 1.07498 12.2411 0.655293 12.6627C0.235605 13.0844 -6.47794e-06 13.6551 1.33582e-10 14.25L1.33582e-10 15.75C1.33583e-10 16.3467 0.237053 16.919 0.65901 17.341C1.08097 17.7629 1.65326 18 2.25 18H3.75C4.34583 18 4.91733 17.7637 5.33914 17.3428C5.76094 16.922 5.99861 16.3511 6 15.7552L7.4955 15.7657H7.5C7.69891 15.7664 7.88995 15.6881 8.0311 15.5479C8.17224 15.4078 8.25193 15.2173 8.25262 15.0184C8.25332 14.8195 8.17497 14.6284 8.03481 14.4873C7.89465 14.3461 7.70416 14.2664 7.50525 14.2657ZM4.5 15.75C4.5 15.9489 4.42098 16.1397 4.28033 16.2803C4.13968 16.421 3.94891 16.5 3.75 16.5H2.25C2.05109 16.5 1.86032 16.421 1.71967 16.2803C1.57902 16.1397 1.5 15.9489 1.5 15.75V14.25C1.5 14.0511 1.57902 13.8603 1.71967 13.7197C1.86032 13.579 2.05109 13.5 2.25 13.5H3.75C3.94891 13.5 4.13968 13.579 4.28033 13.7197C4.42098 13.8603 4.5 14.0511 4.5 14.25V15.75Z" fill="#646464"/>
</g>
<defs>
<clipPath id="clip0_1_591">
<rect width="18" height="18" fill="white"/>
</clipPath>
</defs>
</svg>
