<svg width="43" height="44" viewBox="0 0 43 44" fill="none" xmlns="http://www.w3.org/2000/svg">
<g clip-path="url(#clip0_100_45)">
<path d="M21.5 0.5C9.62624 0.5 0 10.1262 0 22C0 33.8738 9.62624 43.5 21.5 43.5C33.3738 43.5 43 33.8738 43 22C43 10.1262 33.3738 0.5 21.5 0.5ZM41.6019 22C41.6019 33.1014 32.6027 42.1019 21.5 42.1019C10.3973 42.1019 1.39811 33.1014 1.39811 22C1.39811 10.8986 10.3986 1.89811 21.5 1.89811C32.6014 1.89811 41.6019 10.8986 41.6019 22Z" fill="#323232"/>
<path d="M21.4998 9.25V9.94903C28.144 9.94903 33.5506 15.3544 33.5506 21.9998H34.2496C34.2496 14.9587 28.5409 9.25 21.4998 9.25ZM21.4998 34.0506C14.8557 34.0506 9.44903 28.6453 9.44903 21.9998H8.75C8.75 29.0409 14.4588 34.7496 21.4998 34.7496" fill="#323232"/>
<path d="M31.9206 12.8791C32.2127 13.1926 32.6336 13.6982 32.87 14.0055L37.2236 11.2421C37.0061 10.9576 36.6598 10.5253 36.4007 10.2206L33.6436 12.0435L33.4553 12.2053L33.5956 12.0005L34.8129 9.57094L33.9521 8.71004L31.5212 9.92743L31.3164 10.0677L31.4795 9.8794L33.3036 7.1236C32.9825 6.85055 32.6741 6.60026 32.2809 6.29688L29.5176 10.6467C29.8677 10.9159 30.3291 11.3116 30.6237 11.5808L33.2252 10.2308L33.3921 10.1082L33.2694 10.275L31.9206 12.8791Z" fill="#323232"/>
<path d="M22.0417 7.36451L23.2313 4.69976L23.3072 4.46337L23.2857 4.70988L23.4108 8.27088C23.828 8.31006 24.259 8.36821 24.6837 8.439L24.4903 3.16513C23.8962 3.0994 23.3046 3.05262 22.713 3.02734L21.5412 5.93606L21.4995 6.15223L21.4578 5.93606L20.2872 3.02734C19.6956 3.05262 19.104 3.0994 18.5098 3.16513L18.3164 8.439C18.7412 8.36821 19.1723 8.31132 19.5894 8.27088L19.7146 4.70988L19.6931 4.46337L19.7689 4.69976L20.9584 7.36451H22.0417Z" fill="#323232"/>
<path d="M12.4192 11.5686C13.1069 10.8444 13.4961 10.0075 12.8085 9.20857C12.4344 8.775 11.8061 8.68015 11.2852 8.89377L11.2334 8.91406L11.2498 8.86854C11.327 8.66247 11.3762 8.00512 10.8163 7.5513C10.5432 7.33008 10.2006 7.24792 9.85428 7.28331C9.20831 7.34905 8.71154 7.79022 7.35892 9.2983C6.95061 9.75337 6.35648 10.4714 6 10.9366L9.71522 14.461C10.9465 13.0982 11.4483 12.5913 12.4192 11.5686ZM7.57129 10.7065C8.31967 9.79134 9.11477 8.96079 9.47507 8.63212C9.58882 8.52846 9.71271 8.4248 9.86313 8.38435C10.1071 8.31735 10.3587 8.49054 10.4156 8.74084C10.4724 8.99243 10.3144 9.23128 10.1387 9.42851C9.74305 9.87474 8.29184 11.393 8.29184 11.393L7.57129 10.7065ZM9.02625 12.087C9.02625 12.087 10.4396 10.5928 10.901 10.1149C11.0842 9.92529 11.2018 9.81024 11.3282 9.74834C11.4913 9.66867 11.6695 9.65228 11.8288 9.75848C11.9855 9.86338 12.0576 10.0441 12.0184 10.2236C11.9717 10.4372 11.7972 10.6408 11.6531 10.7962C11.4584 11.0048 9.78224 12.7987 9.77972 12.8012L9.02625 12.087Z" fill="#323232"/>
<path d="M21.4998 9.25V21.9998H8.75C8.75 14.9537 14.4537 9.25 21.4998 9.25Z" fill="#323232"/>
<path d="M34.2498 22C34.2498 29.0462 28.5462 34.7498 21.5 34.7498V22H34.2498Z" fill="#323232"/>
</g>
<defs>
<clipPath id="clip0_100_45">
<rect width="43" height="43" fill="white" transform="translate(0 0.5)"/>
</clipPath>
</defs>
</svg>
