<svg width="43" height="43" viewBox="0 0 43 43" fill="none" xmlns="http://www.w3.org/2000/svg">
<g clip-path="url(#clip0_103_403)">
<path d="M21.5 0C9.62624 0 0 9.62624 0 21.5C0 33.3738 9.62624 43 21.5 43C33.3738 43 43 33.3738 43 21.5C43 9.62624 33.3738 0 21.5 0ZM41.6019 21.5C41.6019 32.6014 32.6027 41.6019 21.5 41.6019C10.3973 41.6019 1.39811 32.6014 1.39811 21.5C1.39811 10.3986 10.3986 1.39811 21.5 1.39811C32.6014 1.39811 41.6019 10.3986 41.6019 21.5Z" fill="#6F6F6F"/>
<path d="M21.4998 8.75V9.44903C28.144 9.44903 33.5506 14.8544 33.5506 21.4998H34.2496C34.2496 14.4587 28.5409 8.75 21.4998 8.75ZM21.4998 33.5506C14.8557 33.5506 9.44903 28.1453 9.44903 21.4998H8.75C8.75 28.5409 14.4588 34.2496 21.4998 34.2496" fill="#6F6F6F"/>
<path d="M31.9206 12.3791C32.2127 12.6926 32.6336 13.1982 32.87 13.5055L37.2236 10.7421C37.0061 10.4576 36.6598 10.0253 36.4007 9.72064L33.6436 11.5435L33.4553 11.7053L33.5956 11.5005L34.8129 9.07094L33.9521 8.21004L31.5212 9.42743L31.3164 9.56771L31.4795 9.3794L33.3036 6.6236C32.9825 6.35055 32.6741 6.10026 32.2809 5.79688L29.5176 10.1467C29.8677 10.4159 30.3291 10.8116 30.6237 11.0808L33.2252 9.73078L33.3921 9.60819L33.2694 9.775L31.9206 12.3791Z" fill="#6F6F6F"/>
<path d="M22.0417 6.86451L23.2313 4.19976L23.3072 3.96337L23.2857 4.20988L23.4108 7.77088C23.828 7.81006 24.259 7.86821 24.6837 7.939L24.4903 2.66513C23.8962 2.5994 23.3046 2.55262 22.713 2.52734L21.5412 5.43606L21.4995 5.65223L21.4578 5.43606L20.2872 2.52734C19.6956 2.55262 19.104 2.5994 18.5098 2.66513L18.3164 7.939C18.7412 7.86821 19.1723 7.81132 19.5894 7.77088L19.7146 4.20988L19.6931 3.96337L19.7689 4.19976L20.9584 6.86451H22.0417Z" fill="#6F6F6F"/>
<path d="M12.4192 11.0686C13.1069 10.3444 13.4961 9.50747 12.8085 8.70857C12.4344 8.275 11.8061 8.18015 11.2852 8.39377L11.2334 8.41406L11.2498 8.36854C11.327 8.16247 11.3762 7.50512 10.8163 7.0513C10.5432 6.83008 10.2006 6.74792 9.85428 6.78331C9.20831 6.84905 8.71154 7.29022 7.35892 8.7983C6.95061 9.25337 6.35648 9.97139 6 10.4366L9.71522 13.961C10.9465 12.5982 11.4483 12.0913 12.4192 11.0686ZM7.57129 10.2065C8.31967 9.29134 9.11477 8.46079 9.47507 8.13212C9.58882 8.02846 9.71271 7.9248 9.86313 7.88435C10.1071 7.81735 10.3587 7.99054 10.4156 8.24084C10.4724 8.49243 10.3144 8.73128 10.1387 8.92851C9.74305 9.37474 8.29184 10.893 8.29184 10.893L7.57129 10.2065ZM9.02625 11.587C9.02625 11.587 10.4396 10.0928 10.901 9.61489C11.0842 9.42529 11.2018 9.31024 11.3282 9.24834C11.4913 9.16867 11.6695 9.15228 11.8288 9.25848C11.9855 9.36338 12.0576 9.54414 12.0184 9.72361C11.9717 9.93723 11.7972 10.1408 11.6531 10.2962C11.4584 10.5048 9.78224 12.2987 9.77972 12.3012L9.02625 11.587Z" fill="#6F6F6F"/>
<path d="M21.4998 8.75V21.4998H8.75C8.75 14.4537 14.4537 8.75 21.4998 8.75Z" fill="#0066B1"/>
<path d="M34.2498 21.5C34.2498 28.5462 28.5462 34.2498 21.5 34.2498V21.5H34.2498Z" fill="#0066B1"/>
</g>
<defs>
<clipPath id="clip0_103_403">
<rect width="43" height="43" fill="white"/>
</clipPath>
</defs>
</svg>
