<svg width="13" height="9" viewBox="0 0 13 9" fill="none" xmlns="http://www.w3.org/2000/svg">
<path d="M11.5329 0.769726L4.9204 7.38176C4.87594 7.42639 4.82311 7.46181 4.76493 7.48597C4.70675 7.51014 4.64437 7.52258 4.58137 7.52258C4.51838 7.52258 4.456 7.51014 4.39782 7.48597C4.33964 7.46181 4.28681 7.42639 4.24235 7.38176L1.6852 4.82222C1.64074 4.77758 1.58791 4.74217 1.52973 4.718C1.47155 4.69384 1.40917 4.6814 1.34618 4.6814C1.28318 4.6814 1.2208 4.69384 1.16262 4.718C1.10444 4.74217 1.05161 4.77758 1.00715 4.82222C0.962519 4.86667 0.927104 4.91951 0.902938 4.97769C0.878773 5.03587 0.866333 5.09824 0.866333 5.16124C0.866333 5.22424 0.878773 5.28661 0.902938 5.34479C0.927104 5.40297 0.962519 5.45581 1.00715 5.50026L3.56526 8.05789C3.83511 8.32725 4.20081 8.47852 4.58209 8.47852C4.96337 8.47852 5.32907 8.32725 5.59892 8.05789L12.211 1.44729C12.2555 1.40285 12.2909 1.35004 12.315 1.29191C12.3391 1.23377 12.3515 1.17145 12.3515 1.10851C12.3515 1.04557 12.3391 0.983248 12.315 0.925114C12.2909 0.866979 12.2555 0.814176 12.211 0.769726C12.1665 0.725093 12.1137 0.689677 12.0555 0.665511C11.9973 0.641346 11.9349 0.628906 11.8719 0.628906C11.8089 0.628906 11.7466 0.641346 11.6884 0.665511C11.6302 0.689677 11.5774 0.725093 11.5329 0.769726Z" fill="white"/>
</svg>
