<svg width="18" height="18" viewBox="0 0 18 18" fill="none" xmlns="http://www.w3.org/2000/svg">
<g clip-path="url(#clip0_1_21869)">
<path d="M13.992 0.697066L4.84802 9.84107C4.49877 10.1884 4.2219 10.6016 4.03343 11.0567C3.84495 11.5118 3.74862 11.9997 3.75001 12.4923V13.4996C3.75001 13.6985 3.82903 13.8892 3.96968 14.0299C4.11034 14.1705 4.3011 14.2496 4.50001 14.2496H5.50727C5.99984 14.251 6.48779 14.1546 6.94288 13.9662C7.39797 13.7777 7.81116 13.5008 8.15852 13.1516L17.3025 4.00757C17.7408 3.56819 17.987 2.97292 17.987 2.35232C17.987 1.73171 17.7408 1.13644 17.3025 0.697066C16.8568 0.270986 16.2639 0.0332031 15.6473 0.0332031C15.0306 0.0332031 14.4378 0.270986 13.992 0.697066ZM16.242 2.94707L7.09802 12.0911C6.67511 12.5114 6.10352 12.748 5.50727 12.7496H5.25002V12.4923C5.25158 11.8961 5.48819 11.3245 5.90851 10.9016L15.0525 1.75757C15.2127 1.60453 15.4257 1.51914 15.6473 1.51914C15.8688 1.51914 16.0818 1.60453 16.242 1.75757C16.3995 1.91545 16.4879 2.12933 16.4879 2.35232C16.4879 2.5753 16.3995 2.78918 16.242 2.94707Z" fill="#323232"/>
<path d="M17.25 6.73425C17.0511 6.73425 16.8603 6.81327 16.7197 6.95392C16.579 7.09457 16.5 7.28534 16.5 7.48425V11.25H13.5C12.9033 11.25 12.331 11.4871 11.909 11.909C11.4871 12.331 11.25 12.9033 11.25 13.5V16.5H3.75C3.15326 16.5 2.58097 16.263 2.15901 15.841C1.73705 15.419 1.5 14.8467 1.5 14.25V3.75C1.5 3.15326 1.73705 2.58097 2.15901 2.15901C2.58097 1.73705 3.15326 1.5 3.75 1.5H10.5315C10.7304 1.5 10.9212 1.42098 11.0618 1.28033C11.2025 1.13968 11.2815 0.948913 11.2815 0.75C11.2815 0.551088 11.2025 0.360322 11.0618 0.21967C10.9212 0.0790177 10.7304 0 10.5315 0L3.75 0C2.7558 0.00119089 1.80267 0.396662 1.09967 1.09967C0.396662 1.80267 0.00119089 2.7558 0 3.75L0 14.25C0.00119089 15.2442 0.396662 16.1973 1.09967 16.9003C1.80267 17.6033 2.7558 17.9988 3.75 18H12.2573C12.7499 18.0014 13.238 17.9051 13.6932 17.7166C14.1484 17.5281 14.5618 17.2513 14.9093 16.902L16.9013 14.9085C17.2506 14.5612 17.5275 14.148 17.7161 13.6929C17.9047 13.2378 18.0012 12.7499 18 12.2573V7.48425C18 7.28534 17.921 7.09457 17.7803 6.95392C17.6397 6.81327 17.4489 6.73425 17.25 6.73425ZM13.8488 15.8415C13.5473 16.1423 13.166 16.3505 12.75 16.4415V13.5C12.75 13.3011 12.829 13.1103 12.9697 12.9697C13.1103 12.829 13.3011 12.75 13.5 12.75H16.4438C16.351 13.1651 16.143 13.5457 15.8438 13.848L13.8488 15.8415Z" fill="#323232"/>
</g>
<defs>
<clipPath id="clip0_1_21869">
<rect width="18" height="18" fill="white"/>
</clipPath>
</defs>
</svg>
