<svg width="18" height="18" viewBox="0 0 18 18" fill="none" xmlns="http://www.w3.org/2000/svg">
<g clip-path="url(#clip0_1_22358)">
<path d="M17.4527 7.06323C16.2894 5.16873 13.6434 1.99023 8.99943 1.99023C4.35543 1.99023 1.70943 5.16873 0.546178 7.06323C0.186574 7.64486 -0.00390625 8.31517 -0.00390625 8.99898C-0.00390625 9.6828 0.186574 10.3531 0.546178 10.9347C1.70943 12.8292 4.35543 16.0077 8.99943 16.0077C13.6434 16.0077 16.2894 12.8292 17.4527 10.9347C17.8123 10.3531 18.0028 9.6828 18.0028 8.99898C18.0028 8.31517 17.8123 7.64486 17.4527 7.06323ZM16.1739 10.1495C15.1749 11.774 12.9137 14.5077 8.99943 14.5077C5.08518 14.5077 2.82393 11.774 1.82493 10.1495C1.61128 9.80377 1.49812 9.40539 1.49812 8.99898C1.49812 8.59258 1.61128 8.1942 1.82493 7.84848C2.82393 6.22398 5.08518 3.49023 8.99943 3.49023C12.9137 3.49023 15.1749 6.22098 16.1739 7.84848C16.3876 8.1942 16.5007 8.59258 16.5007 8.99898C16.5007 9.40539 16.3876 9.80377 16.1739 10.1495Z" fill="#323232"/>
<path d="M9 5.25C8.25832 5.25 7.5333 5.46993 6.91661 5.88199C6.29993 6.29404 5.81928 6.87971 5.53545 7.56494C5.25162 8.25016 5.17736 9.00416 5.32206 9.73159C5.46675 10.459 5.8239 11.1272 6.34835 11.6517C6.8728 12.1761 7.54098 12.5333 8.26841 12.6779C8.99584 12.8226 9.74984 12.7484 10.4351 12.4645C11.1203 12.1807 11.706 11.7001 12.118 11.0834C12.5301 10.4667 12.75 9.74168 12.75 9C12.7488 8.0058 12.3533 7.05267 11.6503 6.34967C10.9473 5.64666 9.9942 5.25119 9 5.25ZM9 11.25C8.55499 11.25 8.11998 11.118 7.74997 10.8708C7.37996 10.6236 7.09157 10.2722 6.92127 9.86104C6.75098 9.4499 6.70642 8.9975 6.79323 8.56105C6.88005 8.12459 7.09434 7.72368 7.40901 7.40901C7.72368 7.09434 8.12459 6.88005 8.56105 6.79323C8.99751 6.70642 9.44991 6.75097 9.86104 6.92127C10.2722 7.09157 10.6236 7.37996 10.8708 7.74997C11.118 8.11998 11.25 8.55499 11.25 9C11.25 9.59674 11.0129 10.169 10.591 10.591C10.169 11.0129 9.59674 11.25 9 11.25Z" fill="#323232"/>
</g>
<defs>
<clipPath id="clip0_1_22358">
<rect width="18" height="18" fill="white"/>
</clipPath>
</defs>
</svg>
