<svg width="18" height="18" viewBox="0 0 18 18" fill="none" xmlns="http://www.w3.org/2000/svg">
<g clip-path="url(#clip0_1_24358)">
<path d="M0.75 3.56269H2.802C2.96298 4.15499 3.31438 4.67786 3.80199 5.05064C4.28961 5.42342 4.88634 5.62539 5.50012 5.62539C6.11391 5.62539 6.71064 5.42342 7.19826 5.05064C7.68587 4.67786 8.03727 4.15499 8.19825 3.56269H17.25C17.4489 3.56269 17.6397 3.48368 17.7803 3.34302C17.921 3.20237 18 3.01161 18 2.81269C18 2.61378 17.921 2.42302 17.7803 2.28236C17.6397 2.14171 17.4489 2.06269 17.25 2.06269H8.19825C8.03727 1.4704 7.68587 0.947523 7.19826 0.574746C6.71064 0.201968 6.11391 0 5.50012 0C4.88634 0 4.28961 0.201968 3.80199 0.574746C3.31438 0.947523 2.96298 1.4704 2.802 2.06269H0.75C0.551088 2.06269 0.360322 2.14171 0.21967 2.28236C0.0790176 2.42302 0 2.61378 0 2.81269C0 3.01161 0.0790176 3.20237 0.21967 3.34302C0.360322 3.48368 0.551088 3.56269 0.75 3.56269ZM5.49975 1.50019C5.75934 1.50019 6.0131 1.57717 6.22894 1.72139C6.44478 1.86561 6.613 2.07059 6.71234 2.31042C6.81168 2.55025 6.83767 2.81415 6.78703 3.06875C6.73639 3.32335 6.61138 3.55721 6.42783 3.74077C6.24427 3.92433 6.01041 4.04933 5.75581 4.09997C5.50121 4.15062 5.23731 4.12463 4.99748 4.02529C4.75765 3.92595 4.55267 3.75772 4.40845 3.54188C4.26423 3.32604 4.18725 3.07228 4.18725 2.81269C4.18765 2.46472 4.32606 2.13111 4.57211 1.88505C4.81817 1.639 5.15178 1.50059 5.49975 1.50019Z" fill="#828282"/>
<path d="M17.25 8.24946H15.198C15.0373 7.65702 14.686 7.13396 14.1985 6.76103C13.7109 6.3881 13.1141 6.18604 12.5002 6.18604C11.8864 6.18604 11.2896 6.3881 10.802 6.76103C10.3145 7.13396 9.96321 7.65702 9.8025 8.24946H0.75C0.551088 8.24946 0.360322 8.32847 0.21967 8.46913C0.0790176 8.60978 0 8.80054 0 8.99946C0 9.19837 0.0790176 9.38913 0.21967 9.52978C0.360322 9.67044 0.551088 9.74945 0.75 9.74945H9.8025C9.96321 10.3419 10.3145 10.8649 10.802 11.2379C11.2896 11.6108 11.8864 11.8129 12.5002 11.8129C13.1141 11.8129 13.7109 11.6108 14.1985 11.2379C14.686 10.8649 15.0373 10.3419 15.198 9.74945H17.25C17.4489 9.74945 17.6397 9.67044 17.7803 9.52978C17.921 9.38913 18 9.19837 18 8.99946C18 8.80054 17.921 8.60978 17.7803 8.46913C17.6397 8.32847 17.4489 8.24946 17.25 8.24946ZM12.5002 10.312C12.2407 10.312 11.9869 10.235 11.7711 10.0908C11.5552 9.94654 11.387 9.74155 11.2877 9.50173C11.1883 9.2619 11.1623 8.998 11.213 8.7434C11.2636 8.4888 11.3886 8.25494 11.5722 8.07138C11.7557 7.88782 11.9896 7.76282 12.2442 7.71218C12.4988 7.66153 12.7627 7.68753 13.0025 7.78687C13.2424 7.88621 13.4473 8.05443 13.5916 8.27027C13.7358 8.48611 13.8127 8.73987 13.8127 8.99946C13.8124 9.34743 13.6739 9.68104 13.4279 9.92709C13.1818 10.1731 12.8482 10.3116 12.5002 10.312Z" fill="#828282"/>
<path d="M17.25 14.4377H8.19825C8.03727 13.8454 7.68587 13.3225 7.19826 12.9497C6.71064 12.577 6.11391 12.375 5.50012 12.375C4.88634 12.375 4.28961 12.577 3.80199 12.9497C3.31438 13.3225 2.96298 13.8454 2.802 14.4377H0.75C0.551088 14.4377 0.360322 14.5167 0.21967 14.6574C0.0790176 14.798 0 14.9888 0 15.1877C0 15.3866 0.0790176 15.5774 0.21967 15.718C0.360322 15.8587 0.551088 15.9377 0.75 15.9377H2.802C2.96298 16.53 3.31438 17.0528 3.80199 17.4256C4.28961 17.7984 4.88634 18.0004 5.50012 18.0004C6.11391 18.0004 6.71064 17.7984 7.19826 17.4256C7.68587 17.0528 8.03727 16.53 8.19825 15.9377H17.25C17.4489 15.9377 17.6397 15.8587 17.7803 15.718C17.921 15.5774 18 15.3866 18 15.1877C18 14.9888 17.921 14.798 17.7803 14.6574C17.6397 14.5167 17.4489 14.4377 17.25 14.4377ZM5.49975 16.5002C5.24016 16.5002 4.9864 16.4232 4.77056 16.279C4.55472 16.1348 4.3865 15.9298 4.28716 15.69C4.18782 15.4501 4.16183 15.1862 4.21247 14.9316C4.26311 14.677 4.38812 14.4432 4.57167 14.2596C4.75523 14.0761 4.98909 13.9511 5.24369 13.9004C5.49829 13.8498 5.76219 13.8758 6.00202 13.9751C6.24185 14.0744 6.44683 14.2427 6.59105 14.4585C6.73527 14.6743 6.81225 14.9281 6.81225 15.1877C6.81166 15.5356 6.67318 15.8691 6.42717 16.1151C6.18116 16.3611 5.84766 16.4996 5.49975 16.5002Z" fill="#828282"/>
</g>
<defs>
<clipPath id="clip0_1_24358">
<rect width="18" height="18" fill="white"/>
</clipPath>
</defs>
</svg>
