<svg width="28" height="28" viewBox="0 0 28 28" fill="none" xmlns="http://www.w3.org/2000/svg">
<g clip-path="url(#clip0_1_1149)">
<path d="M20.3926 3.07812C22.0457 3.07814 23.6362 3.74747 24.8711 4.99023C26.2276 6.35537 27.0127 8.30301 27 10.334C26.9898 11.9508 26.3439 13.7739 24.9531 15.7637C23.8785 17.3011 22.3704 18.9243 20.4541 20.583C17.4826 23.1549 14.553 24.9344 13.999 25.2637C13.4402 24.9338 10.4912 23.1534 7.50977 20.582C5.58622 18.9231 4.0771 17.3005 3.00684 15.7637C1.62078 13.7735 0.989928 11.9522 1 10.3369C1.0124 8.37906 1.7132 6.5574 2.95117 5.19727C4.20695 3.81779 5.85895 3.07817 7.60742 3.07812C9.84128 3.07812 11.9243 4.33037 13.1396 6.37988L14 7.83008L14.8604 6.37988C16.0757 4.33039 18.1587 3.07812 20.3926 3.07812Z" stroke="#646464" stroke-width="2"/>
</g>
<defs>
<clipPath id="clip0_1_1149">
<rect width="28" height="28" fill="white"/>
</clipPath>
</defs>
</svg>
