<svg width="19" height="19" viewBox="0 0 19 19" fill="none" xmlns="http://www.w3.org/2000/svg">
<g clip-path="url(#clip0_1_298)">
<path d="M9.19178 17.2636C9.09879 17.2636 9.00583 17.2396 8.92253 17.1915C8.83205 17.1393 6.68236 15.8911 4.50183 14.0105C3.20945 12.8959 2.17782 11.7903 1.43566 10.7247C0.475264 9.34569 -0.00769867 8.01927 9.27824e-05 6.78223C0.00921273 5.34278 0.524777 3.98908 1.45192 2.97045C2.39473 1.93465 3.65292 1.36426 4.99481 1.36426C6.71457 1.36426 8.2869 2.3276 9.19182 3.85365C10.0967 2.32763 11.6691 1.36426 13.3888 1.36426C14.6566 1.36426 15.8661 1.87892 16.7948 2.81347C17.8139 3.83903 18.3929 5.2881 18.3835 6.78905C18.3756 8.02394 17.8836 9.34834 16.9211 10.7254C16.1767 11.7906 15.1465 12.8956 13.8591 14.0099C11.6866 15.8903 9.55234 17.1384 9.46254 17.1906C9.37885 17.2393 9.28528 17.2636 9.19178 17.2636Z" fill="#FF3B58"/>
</g>
<defs>
<clipPath id="clip0_1_298">
<rect width="18.3836" height="18.3836" fill="white"/>
</clipPath>
</defs>
</svg>
