<svg width="51" height="28" viewBox="0 0 51 28" fill="none" xmlns="http://www.w3.org/2000/svg">
<path d="M43.9762 5.01459C47.3406 6.90219 51.1487 10.2196 50.7505 14.6439C50.2912 18.7436 46.5614 21.6063 43.2299 23.3293C33.505 28.0954 19.8434 28.2443 9.80025 24.0787C6.40602 22.6301 2.5979 20.1436 1.16809 16.4013C0.0753481 13.3285 1.40796 10.1224 3.64517 7.99179C8.32341 3.63181 14.2888 2.13458 20.4298 1.27231C27.0928 0.441389 34.1055 1.17511 40.0724 3.27279C41.405 3.77761 42.7219 4.33104 43.9746 5.01302L43.9762 5.01459ZM38.4874 4.88446C34.5052 3.74626 30.3161 3.06271 25.8731 3.0972C23.8099 3.12855 22.3189 5.09611 21.4786 6.77206C20.8437 8.10467 20.1146 9.69909 20.6524 11.2292C20.9393 11.7325 21.3986 12.0758 21.9066 12.2044C24.0795 12.692 26.0471 11.8125 27.999 11.3264C31.8384 10.0409 35.5995 8.57657 38.8825 5.94271C39.0251 5.76398 39.2791 5.58526 39.1521 5.30776C39.011 5.06319 38.7241 5.01459 38.4874 4.88446ZM17.7818 4.10371C17.6705 3.89363 17.3836 3.92498 17.1625 3.92498C15.0366 4.26676 13.0205 4.86878 11.0858 5.61818C7.81702 7.03231 3.89758 9.11432 2.93026 13.0181C2.32824 16.011 4.42122 18.5319 6.73839 20.0934C7.19775 20.3035 7.69003 20.9557 8.19799 20.4681C10.8005 14.8555 13.5441 9.21152 17.7175 4.34828L17.7802 4.10371H17.7818ZM45.4687 8.39941C44.8964 8.00747 44.3885 7.43836 43.6751 7.37409C43.539 7.42248 43.4183 7.50638 43.3255 7.61709C42.5561 9.37292 41.7305 11.1036 40.85 12.8064C38.9311 16.5973 36.7425 20.338 33.853 23.6711L33.806 23.9C33.8374 24.096 34.0443 24.063 34.1713 24.0787C36.2016 23.8843 38.0751 23.2321 39.9313 22.5987C43.3412 21.2316 47.6244 19.0854 48.6089 15.0515C49.2125 12.3188 47.4347 10.0581 45.4671 8.39784L45.4687 8.39941ZM31.0138 17.019C30.7598 16.3355 30.0465 15.8322 29.3316 15.7335C27.6023 15.5061 25.9671 15.9937 24.4291 16.4484C20.3059 17.8656 16.1309 19.2139 12.6238 22.1268C12.467 22.2742 12.3557 22.4827 12.4357 22.7116C12.5367 22.8721 12.6946 22.9886 12.8778 23.0377C16.839 24.2524 20.9526 24.8985 25.0955 24.9567C26.9846 25.1526 28.554 23.8514 29.5056 22.3385C30.3632 20.7111 31.3948 19.0368 31.0138 17.019Z" fill="#323232"/>
</svg>
