<svg width="52" height="14" viewBox="0 0 52 14" fill="none" xmlns="http://www.w3.org/2000/svg">
<path d="M30.0425 11.7939C30.0425 11.8964 30.0938 11.9477 30.145 11.9477C30.1963 11.9477 30.2476 11.9477 30.2476 11.8964L46.3967 1.38669C46.7043 1.18163 46.9606 1.07909 47.3195 1.07909H50.8569C51.4209 1.07909 51.7797 1.43796 51.7797 2.0019V8.76915C51.7797 9.58942 51.5747 10.0508 50.8569 10.5122L46.5505 13.0756C46.4992 13.1268 46.4479 13.1268 46.3967 13.1268C46.3454 13.1268 46.2941 13.0756 46.2941 12.9218V5.02665C46.2941 4.92412 46.2429 4.87285 46.1916 4.87285C46.1403 4.87285 46.0891 4.87285 46.0891 4.92412L34.2977 12.6142C33.9901 12.8192 33.6825 12.8705 33.3749 12.8705H25.5823C25.0183 12.8705 24.6595 12.5116 24.6595 11.9477V2.20697C24.6595 2.1557 24.6082 2.05317 24.5569 2.05317C24.5057 2.05317 24.4544 2.05317 24.4544 2.10443L16.6618 6.821C16.5593 6.87227 16.5593 6.92354 16.5593 6.92354C16.5593 6.9748 16.5593 6.9748 16.6105 7.02607L22.1474 12.5629C22.1986 12.6142 22.2499 12.7167 22.2499 12.768C22.2499 12.8192 22.1474 12.8705 22.0961 12.8705H17.0719C16.6618 12.8705 16.3542 12.8192 16.1491 12.6142L12.7655 9.23055C12.7142 9.17929 12.7142 9.17929 12.663 9.17929C12.6117 9.17929 12.6117 9.17929 12.5604 9.23055L6.92105 12.6142C6.56218 12.8192 6.35711 12.8705 5.99824 12.8705H0.922807C0.358869 12.8705 0 12.5116 0 11.9477V5.28299C0 4.46272 0.205068 4.00131 0.922807 3.53991L5.22924 0.925291C5.28051 0.874024 5.33177 0.874023 5.33177 0.874023C5.38304 0.874023 5.43431 0.925291 5.43431 1.07909V9.94829C5.43431 10.0508 5.48557 10.1021 5.53684 10.1021C5.58811 10.1021 5.63938 10.1021 5.69064 10.0508L20.3018 1.23289C20.6606 1.02782 20.8657 0.976558 21.2758 0.976558H29.171C29.7349 0.976558 30.0938 1.33543 30.0938 1.89936V11.7939H30.0425Z" fill="#323232"/>
</svg>
