<svg width="51" height="40" viewBox="0 0 51 40" fill="none" xmlns="http://www.w3.org/2000/svg">
<g clip-path="url(#clip0_100_59)">
<path d="M25.7977 1.37996C25.8359 1.38004 25.8741 1.38008 25.9122 1.3801C26.2921 1.38054 26.6682 1.39084 27.0456 1.43568C27.0812 1.43955 27.1168 1.44342 27.1525 1.44729C27.5421 1.49199 27.9256 1.5744 28.3053 1.67082C28.3201 1.67454 28.3349 1.67827 28.3502 1.68211C28.5194 1.72484 28.6869 1.77153 28.8528 1.82569C28.8819 1.83514 28.9111 1.84446 28.9403 1.8537C29.5937 2.06054 30.2307 2.33583 30.8247 2.67856C30.8378 2.68606 30.851 2.69356 30.8645 2.70129C31.3426 2.97535 31.7991 3.29422 32.2233 3.64559C32.2495 3.66716 32.2759 3.68843 32.3024 3.70965C32.3969 3.78552 32.487 3.86502 32.5754 3.94791C32.6215 3.99117 32.6682 4.03337 32.7162 4.07453C32.796 4.14425 32.8709 4.21849 32.9457 4.2935C32.9601 4.30793 32.9746 4.32235 32.9895 4.33722C33.0198 4.36756 33.0502 4.39792 33.0805 4.4283C33.1266 4.47451 33.1728 4.52062 33.219 4.56672C33.2486 4.59636 33.2782 4.62601 33.3079 4.65566C33.3284 4.67611 33.3284 4.67611 33.3493 4.69697C33.4204 4.7684 33.489 4.84103 33.5545 4.91765C33.5888 4.95709 33.6257 4.99351 33.6631 5.02995C33.7241 5.09016 33.7814 5.15194 33.8371 5.217C33.8733 5.25808 33.9122 5.29605 33.9513 5.33441C33.981 5.36464 34.0088 5.39577 34.0364 5.42793C34.0998 5.50076 34.1656 5.57092 34.2321 5.64089C34.3168 5.7305 34.4008 5.82058 34.4828 5.91264C34.5276 5.96245 34.5729 6.01164 34.6184 6.06078C34.7781 6.23347 34.9366 6.40712 35.0936 6.58224C35.1629 6.65937 35.2326 6.73608 35.3028 6.81239C35.3626 6.87737 35.4213 6.94303 35.4792 7.00974C35.5198 7.05581 35.5614 7.101 35.603 7.1462C35.6642 7.21269 35.7246 7.27976 35.7838 7.34801C35.8431 7.41584 35.9038 7.48245 35.9641 7.5493C36.108 7.70867 36.108 7.70867 36.173 7.78339C36.2202 7.83761 36.2684 7.89088 36.3168 7.944C36.3748 8.0076 36.4321 8.07172 36.4885 8.13669C36.5233 8.17636 36.5586 8.21555 36.594 8.25472C36.6488 8.31546 36.7029 8.37672 36.7567 8.43842C36.7917 8.47826 36.8272 8.51766 36.8627 8.55704C36.9433 8.64645 37.0229 8.73656 37.1009 8.82833C37.1859 8.92831 37.2717 9.02699 37.3613 9.12284C37.4212 9.18687 37.4786 9.25171 37.5335 9.32019C37.6105 9.41615 37.694 9.50519 37.7781 9.59489C37.8516 9.67334 37.9217 9.75453 37.9914 9.8364C38.0084 9.85643 38.0255 9.87646 38.0426 9.89649C38.0512 9.90663 38.0599 9.91677 38.0688 9.92722C38.1256 9.99348 38.1837 10.0583 38.2431 10.1222C38.2997 10.1831 38.3538 10.2452 38.4058 10.3101C38.4738 10.3947 38.5468 10.4735 38.6212 10.5525C38.6891 10.625 38.7521 10.7002 38.8142 10.7778C38.8589 10.8316 38.906 10.8826 38.9538 10.9336C39.0283 11.0132 39.0981 11.0952 39.1663 11.1803C39.2113 11.2342 39.2585 11.2855 39.3065 11.3367C39.381 11.4163 39.4508 11.4983 39.519 11.5834C39.564 11.6373 39.6112 11.6886 39.6592 11.7398C39.7337 11.8194 39.8035 11.9014 39.8717 11.9865C39.9167 12.0404 39.9639 12.0917 40.0119 12.1429C40.0868 12.2229 40.157 12.3052 40.2256 12.3907C40.2675 12.4413 40.3115 12.4896 40.3562 12.5376C40.4279 12.6147 40.4949 12.6944 40.5609 12.7764C40.6105 12.8361 40.663 12.8927 40.7159 12.9495C40.7658 13.0034 40.813 13.0587 40.859 13.116C40.9156 13.1863 40.9748 13.2528 41.0364 13.3186C41.1113 13.3986 41.1815 13.4809 41.2501 13.5664C41.292 13.617 41.336 13.6653 41.3807 13.7133C41.4528 13.7907 41.5202 13.8708 41.5865 13.9532C41.6258 14.0006 41.6666 14.046 41.7082 14.0912C41.7632 14.1509 41.8158 14.2117 41.8668 14.2749C41.9282 14.3511 41.9929 14.423 42.0595 14.4946C42.123 14.5633 42.1818 14.6351 42.2405 14.7079C42.2827 14.7587 42.3267 14.8071 42.3717 14.8554C42.4437 14.9328 42.5111 15.0129 42.5775 15.0953C42.6167 15.1427 42.6575 15.1881 42.6992 15.2333C42.7542 15.293 42.8068 15.3538 42.8577 15.417C42.9118 15.4841 42.968 15.5482 43.0267 15.6112C43.0988 15.6886 43.1662 15.7687 43.2325 15.8511C43.2717 15.8985 43.3126 15.9439 43.3542 15.9891C43.423 16.0638 43.4873 16.1411 43.551 16.2201C43.5905 16.2676 43.6315 16.3132 43.6733 16.3586C43.7421 16.4333 43.8064 16.5106 43.8702 16.5896C43.9096 16.6371 43.9506 16.6827 43.9925 16.7281C44.0612 16.8028 44.1255 16.8801 44.1893 16.9591C44.2287 17.0066 44.2697 17.0522 44.3116 17.0976C44.3803 17.1723 44.4447 17.2496 44.5084 17.3286C44.5478 17.3761 44.5889 17.4217 44.6307 17.4671C44.6994 17.5418 44.7638 17.6191 44.8275 17.6981C44.867 17.7456 44.908 17.7912 44.9498 17.8366C45.0189 17.9117 45.0837 17.9893 45.1477 18.0687C45.1842 18.1129 45.2219 18.1554 45.2605 18.1977C45.3125 18.2548 45.3622 18.313 45.4106 18.373C45.4623 18.4369 45.5156 18.4984 45.5712 18.5589C45.6403 18.6339 45.7051 18.7115 45.7692 18.7909C45.8056 18.8351 45.8434 18.8776 45.882 18.92C45.934 18.977 45.9836 19.0352 46.0321 19.0953C46.0837 19.1591 46.137 19.2206 46.1927 19.2811C46.2618 19.3561 46.3266 19.4337 46.3906 19.5131C46.4271 19.5573 46.4648 19.5998 46.5034 19.6422C46.5692 19.7144 46.6309 19.7893 46.6924 19.8652C46.741 19.924 46.7922 19.9801 46.8436 20.0364C46.8823 20.08 46.9192 20.1248 46.9558 20.1702C47.0075 20.2341 47.0608 20.2955 47.1164 20.356C47.1855 20.4311 47.2503 20.5087 47.3144 20.588C47.3509 20.6322 47.3886 20.6748 47.4272 20.7171C47.493 20.7893 47.5547 20.8642 47.6161 20.9402C47.6528 20.9845 47.6907 21.0273 47.7295 21.0698C47.7953 21.142 47.857 21.2169 47.9184 21.2929C47.9551 21.3372 47.993 21.38 48.0318 21.4225C48.0976 21.4947 48.1593 21.5696 48.2208 21.6456C48.2575 21.6899 48.2954 21.7327 48.3341 21.7752C48.4 21.8474 48.4616 21.9223 48.5231 21.9983C48.5598 22.0426 48.5977 22.0854 48.6365 22.1279C48.7007 22.1984 48.761 22.2714 48.821 22.3455C48.8701 22.4051 48.9206 22.4634 48.9713 22.5216C49.0081 22.5639 49.0448 22.6062 49.0815 22.6486C49.0959 22.6652 49.1103 22.6818 49.1252 22.6988C49.932 23.6461 50.4503 24.8507 50.7107 26.0581C50.7157 26.0811 50.7157 26.0811 50.7208 26.1046C50.7413 26.2008 50.7603 26.2972 50.7779 26.394C50.7802 26.4065 50.7824 26.4189 50.7848 26.4318C50.8023 26.5308 50.816 26.6301 50.8283 26.7299C50.8306 26.7485 50.8329 26.767 50.8353 26.7861C50.9128 27.4331 50.9101 28.0991 50.8283 28.7454C50.8248 28.7753 50.8248 28.7753 50.8212 28.8058C50.7845 29.1163 50.7199 29.4168 50.6435 29.7196C50.6401 29.7335 50.6366 29.7474 50.633 29.7618C50.5926 29.9232 50.5443 30.0821 50.4924 30.2402C50.4867 30.2576 50.481 30.275 50.4752 30.2929C50.3844 30.569 50.2834 30.8364 50.1613 31.1004C50.1413 31.1437 50.1216 31.1872 50.1021 31.2306C49.8207 31.8485 49.4337 32.4256 48.9976 32.9443C48.9902 32.9531 48.9829 32.9618 48.9754 32.9708C48.7404 33.251 48.4913 33.5339 48.2112 33.7699C48.1806 33.7958 48.1506 33.8221 48.1206 33.8487C47.965 33.9862 47.8035 34.1135 47.6371 34.2376C47.624 34.2474 47.6109 34.2572 47.5974 34.2673C46.7647 34.8913 45.824 35.3659 44.8658 35.766C44.8552 35.7705 44.8446 35.7749 44.8336 35.7795C44.4833 35.926 44.1292 36.061 43.7725 36.191C43.7264 36.2078 43.6804 36.2248 43.6343 36.2417C43.4118 36.323 43.1878 36.4 42.9637 36.4767C42.9489 36.4818 42.934 36.4868 42.9187 36.4921C42.6772 36.5748 42.4347 36.6509 42.189 36.7202C42.0418 36.7619 41.8953 36.805 41.7492 36.8504C41.5543 36.9107 41.3571 36.9612 41.1593 37.0114C41.1013 37.0263 41.0434 37.0417 40.9855 37.0572C40.5289 37.1794 40.0709 37.2957 39.6088 37.3952C39.5907 37.3991 39.5726 37.403 39.554 37.407C39.4111 37.4379 39.2682 37.4686 39.1253 37.4992C39.0919 37.5063 39.0586 37.5135 39.0253 37.5206C38.6186 37.6077 38.211 37.6879 37.8012 37.7584C37.7453 37.768 37.6894 37.7777 37.6336 37.7874C37.6201 37.7897 37.6065 37.7921 37.5926 37.7945C37.51 37.8089 37.4275 37.824 37.3452 37.8396C37.0433 37.8966 36.7408 37.9458 36.4365 37.9883C36.3821 37.9959 36.3277 38.0036 36.2733 38.0113C36.2361 38.0165 36.1989 38.0217 36.1617 38.027C36.0416 38.0439 35.9215 38.0614 35.8015 38.0792C35.2134 38.1663 34.6234 38.2358 34.0326 38.3021C34.0042 38.3053 34.0042 38.3053 33.9752 38.3086C32.6483 38.4575 31.3147 38.5534 28.8733 38.6637C28.741 38.6676 28.6088 38.6716 28.4766 38.6759C27.671 38.7024 26.8661 38.7106 26.0601 38.7096C25.9508 38.7094 25.8414 38.7095 25.7321 38.7096C25.0601 38.7105 24.3885 38.707 23.7167 38.6896C23.703 38.6892 23.6894 38.6889 23.6753 38.6885C23.1749 38.6754 22.6744 38.6596 22.1743 38.6364C22.1619 38.6358 22.1495 38.6353 22.1367 38.6347C20.6224 38.5649 19.1099 38.4522 16.2334 38.1142C16.2141 38.1116 16.1947 38.109 16.1747 38.1063C15.6717 38.0378 15.1703 37.9593 14.6693 37.877C14.6573 37.875 14.6453 37.8731 14.6328 37.871C14.091 37.7821 13.5505 37.6882 13.0141 37.5702C12.8965 37.5445 12.7783 37.5213 12.6602 37.4981C11.7156 37.311 10.7701 37.0833 9.85001 36.799C9.7317 36.7625 9.61292 36.7279 9.49359 36.6949C8.95653 36.5442 8.42002 36.3668 7.8986 36.1691C7.88584 36.1643 7.87308 36.1594 7.85993 36.1545C6.85095 35.772 5.8169 35.3679 4.89613 34.7983C4.85134 34.7706 4.80634 34.7433 4.76135 34.7159C4.57262 34.6004 4.39154 34.4801 4.21681 34.3444C4.16759 34.307 4.11674 34.2719 4.06604 34.2365C3.95805 34.1605 3.85827 34.0767 3.75848 33.9903C3.72107 33.9585 3.68251 33.9281 3.64405 33.8975C3.45552 33.7435 3.2831 33.5705 3.11079 33.3989C3.0976 33.3858 3.08441 33.3727 3.07083 33.3591C2.99147 33.2796 2.91618 33.1976 2.8431 33.1123C2.82716 33.0941 2.81119 33.0759 2.79521 33.0578C2.66419 32.9076 2.54216 32.7515 2.42321 32.5916C2.40953 32.5733 2.40953 32.5733 2.39558 32.5546C2.17386 32.2565 1.98109 31.9427 1.80177 31.6175C1.78944 31.5952 1.78944 31.5952 1.77685 31.5724C1.563 31.1822 1.39026 30.7739 1.24637 30.3531C1.23204 30.3112 1.21739 30.2695 1.20264 30.2278C1.02583 29.7213 0.913955 29.1787 0.86586 28.6446C0.861406 28.5963 0.856191 28.5481 0.850852 28.4998C0.791753 27.921 0.807321 27.3237 0.878014 26.7467C0.880441 26.7263 0.882869 26.7059 0.88537 26.6848C0.997576 25.7623 1.2875 24.8887 1.701 24.0594C1.71259 24.0361 1.71259 24.0361 1.72442 24.0124C1.98931 23.4842 2.32383 22.9875 2.71527 22.5449C2.75972 22.4945 2.80354 22.4435 2.8473 22.3925C2.85565 22.3827 2.86399 22.373 2.87258 22.363C2.92347 22.3035 2.97332 22.2433 3.02261 22.1825C3.08232 22.1089 3.14488 22.0386 3.20867 21.9686C3.24622 21.9264 3.28204 21.8832 3.31758 21.8393C3.40517 21.7311 3.49668 21.6265 3.58805 21.5215C3.63143 21.4716 3.6745 21.4213 3.71753 21.3711C3.72577 21.3614 3.73402 21.3518 3.74251 21.3419C3.75912 21.3225 3.77573 21.3031 3.79233 21.2837C3.8258 21.2446 3.8593 21.2055 3.89281 21.1664C3.90958 21.1468 3.92635 21.1273 3.94311 21.1077C3.98566 21.058 4.02827 21.0084 4.07096 20.9589C4.14806 20.8693 4.22467 20.7795 4.29908 20.6877C4.3587 20.6142 4.42115 20.544 4.48488 20.4741C4.52399 20.4301 4.56123 20.385 4.59825 20.3392C4.65889 20.2642 4.72227 20.1926 4.7872 20.1214C4.82631 20.0774 4.86355 20.0322 4.90057 19.9865C4.96121 19.9115 5.0246 19.8399 5.08952 19.7687C5.12863 19.7247 5.16587 19.6795 5.20289 19.6338C5.26353 19.5588 5.32692 19.4872 5.39184 19.416C5.43096 19.372 5.46819 19.3268 5.50522 19.2811C5.56585 19.2061 5.62924 19.1345 5.69417 19.0632C5.73328 19.0192 5.77051 18.9741 5.80754 18.9284C5.86818 18.8534 5.93156 18.7818 5.99649 18.7105C6.0356 18.6665 6.07284 18.6214 6.10986 18.5756C6.17052 18.5007 6.23392 18.429 6.29888 18.3578C6.33764 18.3141 6.37448 18.2694 6.41113 18.224C6.47596 18.1438 6.5444 18.0679 6.61419 17.9921C6.66827 17.9318 6.71885 17.8691 6.76968 17.8061C6.81804 17.7475 6.86914 17.6917 6.92032 17.6355C6.95908 17.5919 6.99592 17.5472 7.03257 17.5018C7.09739 17.4216 7.16584 17.3457 7.23563 17.2698C7.2897 17.2096 7.34029 17.1469 7.39112 17.0839C7.43948 17.0253 7.49058 16.9695 7.54175 16.9133C7.58052 16.8697 7.61736 16.825 7.65401 16.7796C7.71885 16.6994 7.78731 16.6234 7.85713 16.5476C7.89765 16.5024 7.93609 16.4562 7.97418 16.409C8.03862 16.3291 8.10676 16.2536 8.17625 16.1781C8.21677 16.1329 8.25521 16.0867 8.29329 16.0395C8.35774 15.9596 8.42588 15.8841 8.49537 15.8086C8.53589 15.7634 8.57433 15.7172 8.61241 15.67C8.67686 15.5901 8.74499 15.5146 8.81448 15.4391C8.855 15.3939 8.89345 15.3477 8.93153 15.3005C8.99598 15.2206 9.06411 15.145 9.1336 15.0696C9.17412 15.0244 9.21256 14.9782 9.25065 14.931C9.31509 14.8511 9.38323 14.7755 9.45272 14.7C9.49324 14.6549 9.53168 14.6087 9.56976 14.5615C9.63423 14.4816 9.70239 14.406 9.7719 14.3305C9.81208 14.2857 9.85013 14.2399 9.88783 14.193C9.94926 14.1169 10.0139 14.0449 10.0805 13.9733C10.1444 13.9043 10.2037 13.8322 10.2627 13.7589C10.3152 13.6954 10.3711 13.6353 10.4269 13.5747C10.4671 13.5299 10.5052 13.4841 10.5429 13.4372C10.6043 13.361 10.669 13.2891 10.7356 13.2175C10.7858 13.1632 10.8334 13.1075 10.8798 13.0499C10.9409 12.974 11.0053 12.9024 11.0716 12.8312C11.1215 12.7772 11.1687 12.7219 11.2147 12.6646C11.2792 12.5844 11.3479 12.5092 11.4182 12.4341C11.4841 12.3634 11.5453 12.2896 11.6058 12.2142C11.6551 12.1547 11.7076 12.0983 11.7602 12.0418C11.8101 11.9878 11.8573 11.9325 11.9033 11.8752C11.9679 11.795 12.0365 11.7198 12.1069 11.6447C12.1727 11.574 12.2339 11.5002 12.2944 11.4248C12.3438 11.3653 12.3962 11.3089 12.4489 11.2523C12.4984 11.1988 12.5453 11.1438 12.5909 11.0869C12.6589 11.0023 12.7319 10.9235 12.8063 10.8445C12.8742 10.772 12.9372 10.6967 12.9993 10.6192C13.0521 10.5556 13.1086 10.4957 13.1651 10.4354C13.2171 10.3795 13.2664 10.3225 13.3141 10.2628C13.3818 10.1785 13.4545 10.1001 13.5285 10.0215C13.583 9.96332 13.6349 9.90417 13.6847 9.84191C13.7613 9.74623 13.8445 9.6576 13.9283 9.56825C14.0018 9.4898 14.0719 9.40862 14.1415 9.32675C14.2394 9.2119 14.3388 9.09901 14.4412 8.98821C14.4853 8.94032 14.5282 8.89159 14.5708 8.84243C14.6054 8.80292 14.6405 8.76396 14.6756 8.725C14.7208 8.67493 14.7657 8.62468 14.81 8.57383C14.867 8.50841 14.9251 8.44404 14.9832 8.37963C15.0153 8.34383 15.0471 8.30779 15.0787 8.27151C15.1357 8.20609 15.1938 8.14172 15.2519 8.07731C15.2841 8.04151 15.3159 8.00547 15.3475 7.96919C15.4293 7.87531 15.5131 7.78317 15.5965 7.69075C15.6532 7.62788 15.7098 7.56495 15.7653 7.50101C15.8233 7.43437 15.8831 7.36944 15.9429 7.30446C15.9858 7.25782 16.0282 7.21087 16.0697 7.163C16.1269 7.09698 16.1861 7.0328 16.2452 6.96854C16.2881 6.9219 16.3305 6.87496 16.372 6.82709C16.4285 6.76192 16.4868 6.69845 16.5452 6.63499C16.5942 6.58174 16.6428 6.52822 16.6911 6.47438C16.785 6.36981 16.8802 6.26644 16.9752 6.16297C16.9988 6.13731 17.0224 6.11165 17.0459 6.08598C17.0537 6.07754 17.0614 6.06911 17.0694 6.06042C17.1161 6.0094 17.1625 5.95806 17.2086 5.90647C17.2822 5.82455 17.3572 5.74413 17.4324 5.66376C17.496 5.59586 17.5593 5.52772 17.6222 5.45929C17.6996 5.37535 17.7773 5.29177 17.8553 5.2084C17.8655 5.19742 17.8758 5.18643 17.8863 5.17511C17.935 5.12313 17.9842 5.07193 18.035 5.02195C18.0734 4.98383 18.1095 4.94475 18.1446 4.90347C18.2236 4.81262 18.309 4.72808 18.3942 4.64306C18.4118 4.62546 18.4294 4.60786 18.447 4.59026C18.4837 4.55357 18.5203 4.51692 18.5571 4.48028C18.6038 4.43366 18.6504 4.38697 18.697 4.34025C18.7333 4.30395 18.7695 4.26769 18.8058 4.23144C18.823 4.21425 18.8402 4.19705 18.8574 4.17984C18.9526 4.08451 19.0489 3.99178 19.1517 3.90464C19.1701 3.88869 19.1884 3.87273 19.2068 3.85675C19.74 3.39624 20.3148 2.98588 20.932 2.64497C20.9506 2.63465 20.9692 2.62433 20.9883 2.6137C21.6791 2.2313 22.4183 1.92239 23.1826 1.72121C23.2091 1.71417 23.2091 1.71417 23.2361 1.70698C23.524 1.63084 23.8128 1.56958 24.1064 1.51966C24.1229 1.51683 24.1393 1.51401 24.1563 1.5111C24.2822 1.48978 24.4083 1.47051 24.5347 1.45247C24.5531 1.4497 24.5715 1.44693 24.5904 1.44408C24.9909 1.3873 25.394 1.37896 25.7977 1.37996Z" fill="#323232"/>
<path d="M26.659 5.90428C26.6732 5.90599 26.6875 5.9077 26.7022 5.90946C26.9419 5.93939 27.1787 5.98819 27.4148 6.03864C27.4304 6.04198 27.446 6.04531 27.4621 6.04875C27.687 6.09753 27.9038 6.16201 28.1202 6.24019C28.1368 6.24619 28.1535 6.25218 28.1706 6.25836C29.0118 6.56447 29.7667 7.01009 30.438 7.60064C30.4536 7.6143 30.4691 7.62796 30.4852 7.64204C30.5999 7.74506 30.7095 7.85319 30.819 7.96175C30.8412 7.98357 30.8412 7.98357 30.8638 8.00583C30.9517 8.09367 31.0327 8.18458 31.1104 8.28161C31.1366 8.31438 31.1633 8.34644 31.1909 8.37803C31.3198 8.52588 31.4343 8.68273 31.5465 8.84352C31.5576 8.85942 31.5576 8.85942 31.569 8.87565C32.2519 9.8575 32.2519 9.8575 32.2519 10.1704C31.9304 10.1704 31.609 10.1704 31.2778 10.1704C31.2113 10.0484 31.1447 9.9265 31.0762 9.80087C30.7011 9.16577 30.2298 8.57967 29.6486 8.1213C29.6378 8.11263 29.6269 8.10395 29.6158 8.095C29.4375 7.95202 29.2557 7.82074 29.0607 7.70141C29.0495 7.6945 29.0383 7.68758 29.0267 7.68046C28.6783 7.46685 28.317 7.29337 27.9354 7.14716C27.9209 7.14147 27.9063 7.13578 27.8913 7.12992C27.3446 6.91758 26.7243 6.79426 26.1381 6.79045C26.1174 6.79028 26.0966 6.79012 26.0753 6.78995C26.0084 6.78953 25.9416 6.78931 25.8748 6.7892C25.8635 6.78917 25.8521 6.78915 25.8405 6.78913C25.4985 6.78853 25.1651 6.79641 24.8282 6.86163C24.8134 6.86432 24.7985 6.86701 24.7832 6.86978C24.7045 6.8841 24.6266 6.90061 24.5488 6.91934C24.5055 6.92967 24.462 6.9393 24.4185 6.94895C23.9888 7.04723 23.5769 7.20392 23.1823 7.39909C23.1673 7.40644 23.1523 7.4138 23.1368 7.42137C22.6448 7.66439 22.2016 7.98265 21.7968 8.35159C21.7673 8.37848 21.7376 8.40514 21.7077 8.43163C21.5104 8.60833 21.3287 8.80179 21.1668 9.01148C21.1532 9.0289 21.1532 9.0289 21.1394 9.04667C20.9094 9.34423 20.7041 9.65292 20.5285 9.98562C20.5213 9.99906 20.5141 10.0125 20.5067 10.0263C20.119 10.7511 19.8915 11.5785 19.8462 12.399C19.8455 12.4111 19.8449 12.4232 19.8442 12.4357C19.8403 12.5166 19.8397 12.5972 19.8398 12.6781C19.8398 12.6992 19.8398 12.7203 19.8398 12.742C19.8399 12.766 19.8399 12.766 19.8399 12.7905C19.8518 12.7786 19.8518 12.7786 19.8639 12.7665C20.3335 12.2958 20.8032 11.8252 21.273 11.3548C21.3295 11.2983 21.386 11.2417 21.4425 11.1852C21.4537 11.1739 21.465 11.1626 21.4766 11.151C21.6584 10.969 21.8401 10.7869 22.0217 10.6048C22.2083 10.4178 22.395 10.2308 22.5817 10.044C22.6968 9.92876 22.8119 9.81349 22.9269 9.69813C23.0058 9.6189 23.0849 9.53977 23.164 9.46071C23.2096 9.41517 23.2551 9.36959 23.3005 9.3239C23.7173 8.90474 23.7173 8.90474 23.9769 8.75639C23.9888 8.7495 24.0008 8.74261 24.013 8.73552C24.3919 8.52111 24.7948 8.41522 25.2291 8.41711C25.2561 8.41704 25.2831 8.41695 25.3101 8.41684C25.3825 8.41661 25.4548 8.4167 25.5272 8.41686C25.6036 8.41699 25.68 8.41687 25.7564 8.41679C25.8846 8.4167 26.0128 8.41682 26.141 8.41706C26.2884 8.41733 26.4358 8.41724 26.5832 8.41697C26.7106 8.41674 26.838 8.41671 26.9654 8.41684C27.0411 8.41691 27.1168 8.41693 27.1925 8.41676C27.9244 8.41535 27.9244 8.41535 28.2461 8.53385C28.2622 8.53965 28.2783 8.54544 28.2949 8.55141C28.5663 8.65259 28.8047 8.79296 29.0271 8.97788C29.0369 8.98598 29.0466 8.99407 29.0567 9.00241C29.5215 9.39575 29.8237 9.98523 29.8837 10.5903C29.9111 11.0325 29.8492 11.4299 29.6654 11.8331C29.6574 11.8512 29.6493 11.8692 29.641 11.8878C29.4793 12.232 29.2203 12.5521 28.9096 12.7737C28.8985 12.7737 28.8874 12.7737 28.876 12.7737C28.876 12.7848 28.876 12.7959 28.876 12.8073C28.8902 12.8138 28.8902 12.8138 28.9048 12.8205C29.3189 13.0406 29.6346 13.5649 29.7715 13.9999C29.7875 14.0557 29.8023 14.1115 29.8165 14.1677C29.8251 14.1966 29.8251 14.1966 29.8339 14.226C29.995 14.8134 29.8427 15.4615 29.5531 15.9821C29.3106 16.3782 28.97 16.6946 28.5569 16.9054C28.5469 16.9105 28.537 16.9156 28.5267 16.9209C28.3288 17.02 28.1177 17.0774 27.9018 17.1238C27.8895 17.1265 27.8772 17.1293 27.8645 17.1321C27.7367 17.1583 27.6136 17.1619 27.4833 17.1612C27.4605 17.1612 27.4376 17.1612 27.4148 17.1612C27.3533 17.1612 27.2918 17.161 27.2303 17.1608C27.1659 17.1606 27.1014 17.1605 27.0369 17.1605C26.9151 17.1604 26.7933 17.1601 26.6715 17.1598C26.5067 17.1593 26.3419 17.1592 26.1771 17.159C25.9178 17.1587 25.6586 17.158 25.3993 17.1574C25.3993 16.5144 25.3993 15.8715 25.3993 15.2091C25.3272 15.198 25.2552 15.1869 25.1809 15.1755C25.128 15.1602 25.0787 15.1448 25.0277 15.1251C25.0143 15.12 25.001 15.115 24.9872 15.1098C24.6436 14.9751 24.3501 14.7799 24.0892 14.5205C24.0811 14.5124 24.0729 14.5043 24.0645 14.4959C23.9352 14.3659 23.8308 14.224 23.7365 14.067C23.7259 14.0493 23.7259 14.0493 23.7151 14.0314C23.5817 13.8056 23.4301 13.511 23.4342 13.244C23.0826 13.2299 22.7311 13.2201 22.3793 13.2149C22.2158 13.2124 22.0526 13.2086 21.8893 13.2017C21.0693 13.1371 21.0693 13.1371 20.35 13.4578C20.0936 13.6879 20.0936 13.6879 19.9548 13.9871C19.9587 14.0273 19.9587 14.0273 19.9743 14.0838C19.9785 14.1048 19.9827 14.1259 19.9871 14.1475C20.2089 15.1168 20.6712 16.0294 21.3347 16.7711C21.3514 16.79 21.3514 16.79 21.3685 16.8092C21.4599 16.9119 21.5545 17.0109 21.6518 17.108C21.6665 17.1228 21.6813 17.1375 21.6965 17.1527C21.7956 17.2509 21.8963 17.3407 22.0066 17.4261C22.037 17.4523 22.0675 17.4786 22.0979 17.5048C23.05 18.2958 24.3632 18.8011 25.605 18.8068C25.6224 18.8069 25.6399 18.807 25.6579 18.8071C26.2024 18.8108 26.2024 18.8108 26.7429 18.753C26.7631 18.7497 26.7833 18.7465 26.8042 18.7431C27.7061 18.594 28.588 18.2509 29.3295 17.7116C29.3435 17.7015 29.3435 17.7015 29.3577 17.6911C29.474 17.606 29.5876 17.5175 29.699 17.4261C29.715 17.4132 29.731 17.4003 29.7475 17.3871C29.8863 17.2733 30.0139 17.1484 30.1409 17.022C30.1538 17.0092 30.1538 17.0092 30.167 16.9962C30.282 16.882 30.3876 16.7639 30.4884 16.6367C30.5054 16.616 30.5224 16.5954 30.5395 16.5748C30.8225 16.2298 31.0427 15.849 31.261 15.461C31.5824 15.461 31.9039 15.461 32.2351 15.461C32.2122 15.5296 32.1903 15.5891 32.1595 15.6534C32.1513 15.6706 32.1431 15.6877 32.1346 15.7054C32.1259 15.7235 32.1171 15.7416 32.1081 15.7602C32.099 15.779 32.0899 15.7978 32.0806 15.8171C31.8905 16.2083 31.6734 16.574 31.4121 16.9222C31.4047 16.9323 31.3972 16.9423 31.3895 16.9526C31.2803 17.0992 31.1634 17.2386 31.0426 17.3757C31.0289 17.3913 31.0153 17.4069 31.0012 17.423C30.8973 17.5386 30.7881 17.6488 30.6784 17.7589C30.6634 17.7739 30.6484 17.789 30.633 17.8045C30.5483 17.889 30.4622 17.9703 30.3708 18.0475C30.3601 18.0566 30.3495 18.0657 30.3385 18.0751C29.9783 18.3805 29.5906 18.641 29.1783 18.8705C29.1648 18.8781 29.1513 18.8856 29.1374 18.8934C27.7919 19.6375 26.1729 19.8843 23.9473 19.4635C23.5217 19.3383 23.1043 19.1785 22.7114 18.9718C22.6753 18.9529 22.6388 18.9344 22.6024 18.916C22.1947 18.708 21.8147 18.4487 21.464 18.1551C21.4246 18.1224 21.3843 18.0909 21.3442 18.0591C21.1145 17.871 20.8888 17.6577 20.6963 17.4316C20.6693 17.4 20.6419 17.3688 20.6143 17.3377C20.3267 17.0125 20.0811 16.6556 19.8593 16.2828C19.8427 16.2551 19.8258 16.2277 19.8088 16.2003C19.5792 15.8237 19.2017 15.1778 19.2017 14.722C19.0871 14.8143 18.9898 14.9214 18.8915 15.0303C18.674 15.2712 18.4519 15.5077 18.2281 15.7427C18.0991 15.8783 17.9715 16.0149 17.8467 16.1543C17.7018 16.3159 17.554 16.4742 17.4011 16.6282C17.3887 16.6407 17.3764 16.6531 17.3637 16.6659C17.0272 17.0014 16.7354 17.198 16.2497 17.201C16.0053 17.1976 15.7633 17.17 15.5234 17.1238C15.5988 17.0333 15.6787 16.9499 15.7626 16.8673C15.7762 16.8538 15.7899 16.8402 15.804 16.8263C15.8338 16.7968 15.8637 16.7673 15.8935 16.7378C15.9422 16.6898 15.9907 16.6418 16.0393 16.5938C16.0563 16.5769 16.0733 16.5601 16.0904 16.5432C16.0989 16.5347 16.1075 16.5262 16.1163 16.5175C16.143 16.4911 16.1696 16.4648 16.1962 16.4385C16.3259 16.3103 16.4554 16.1819 16.5848 16.0533C16.5941 16.044 16.6035 16.0347 16.6132 16.0251C16.7001 15.9387 16.7871 15.8523 16.874 15.7659C16.9336 15.7068 16.9931 15.6476 17.0526 15.5885C17.0675 15.5738 17.0675 15.5738 17.0826 15.5587C17.2429 15.3995 17.4037 15.2406 17.5645 15.0819C17.7298 14.9187 17.8947 14.7551 18.0592 14.5911C18.1606 14.4901 18.2623 14.3894 18.3644 14.2891C18.4344 14.2203 18.5039 14.1512 18.5732 14.0817C18.6131 14.0417 18.6533 14.0019 18.6938 13.9624C18.7378 13.9196 18.781 13.8761 18.8242 13.8324C18.8371 13.8202 18.8499 13.8079 18.8632 13.7953C18.9345 13.7214 18.9573 13.6723 18.9581 13.5684C18.956 13.533 18.9533 13.4976 18.9498 13.4623C18.9483 13.4444 18.9469 13.4265 18.9454 13.4081C18.9428 13.3756 18.9399 13.3432 18.9369 13.3108C18.9301 13.2251 18.9299 13.1395 18.9295 13.0537C18.9294 13.0345 18.9293 13.0153 18.9292 12.9955C18.9221 11.516 19.2684 10.1056 20.1254 8.87711C20.1327 8.86658 20.14 8.85605 20.1475 8.8452C20.4612 8.39324 20.8311 7.95757 21.2508 7.60064C21.2749 7.5793 21.2749 7.5793 21.2995 7.55754C22.1675 6.79334 23.2458 6.25095 24.3776 6.01512C24.42 6.00613 24.4622 5.99645 24.5045 5.98642C25.1945 5.8275 25.9585 5.81903 26.659 5.90428Z" fill="white"/>
<path d="M18.3799 23.7744C18.3932 23.7793 18.4065 23.7842 18.4202 23.7893C18.9754 23.9972 19.4659 24.3015 19.8915 24.715C19.9017 24.7247 19.9118 24.7344 19.9223 24.7444C20.0715 24.8876 20.2057 25.0354 20.3282 25.202C20.3389 25.2164 20.3389 25.2164 20.3499 25.2311C20.4593 25.3779 20.557 25.5298 20.6473 25.6891C20.654 25.7007 20.6606 25.7123 20.6675 25.7243C21.2199 26.695 21.3062 27.8484 21.0237 28.9178C20.9429 29.2085 20.8227 29.4878 20.6809 29.7537C20.6752 29.7646 20.6694 29.7755 20.6635 29.7867C20.5211 30.0562 20.3451 30.2982 20.1434 30.5263C20.1311 30.5405 20.1187 30.5547 20.106 30.5694C19.9476 30.7491 19.7796 30.918 19.5892 31.0637C19.5802 31.0707 19.5711 31.0776 19.5618 31.0848C19.1997 31.3622 18.8083 31.5781 18.3799 31.7355C18.3616 31.7425 18.3434 31.7495 18.3245 31.7567C18.1137 31.8325 17.894 31.8774 17.6745 31.9203C17.6587 31.9234 17.643 31.9265 17.6268 31.9296C17.1544 32.0173 16.649 31.9947 16.1797 31.9035C16.1515 31.8986 16.1234 31.8937 16.0952 31.8888C15.3784 31.7586 14.7045 31.3944 14.1642 30.9126C14.1507 30.9007 14.1507 30.9007 14.137 30.8885C13.415 30.2472 12.9156 29.3359 12.7869 28.3764C12.7855 28.3658 12.7841 28.3552 12.7826 28.3443C12.7571 28.1499 12.7472 27.9583 12.7481 27.7623C12.7482 27.7485 12.7482 27.7346 12.7482 27.7204C12.7525 26.797 13.0498 25.8944 13.6267 25.1684C13.6386 25.1534 13.6504 25.1384 13.6626 25.1228C13.7623 24.9982 13.8697 24.8811 13.9794 24.7653C13.9974 24.7464 13.9974 24.7464 14.0157 24.727C14.1035 24.6365 14.2002 24.5584 14.2986 24.4798C14.3113 24.4691 14.324 24.4585 14.3371 24.4475C14.7459 24.1076 15.2374 23.8648 15.743 23.7072C15.7647 23.7004 15.7647 23.7004 15.7869 23.6935C16.6168 23.4416 17.5686 23.4732 18.3799 23.7744Z" fill="white"/>
<path d="M31.2268 23.6729C31.8143 23.6729 32.4018 23.6729 33.0072 23.6729C33.0074 23.8189 33.0076 23.965 33.0079 24.1154C33.0087 24.5836 33.0098 25.0517 33.011 25.5198C33.0112 25.5926 33.0114 25.6654 33.0116 25.7382C33.0116 25.7527 33.0116 25.7672 33.0117 25.7821C33.0123 26.0163 33.0127 26.2505 33.013 26.4846C33.0134 26.7252 33.014 26.9658 33.0147 27.2063C33.0151 27.3546 33.0154 27.5029 33.0155 27.6511C33.0156 27.753 33.0159 27.8549 33.0163 27.9567C33.0166 28.0154 33.0167 28.074 33.0166 28.1327C33.0164 28.6775 33.1133 29.1476 33.4774 29.5681C33.4848 29.5766 33.4921 29.5851 33.4997 29.5939C33.7625 29.8909 34.1183 30.0723 34.502 30.156C34.528 30.1617 34.528 30.1617 34.5545 30.1675C35.029 30.2552 35.5261 30.1345 35.9255 29.8675C36.2307 29.653 36.4317 29.3832 36.5846 29.0475C36.5953 29.0247 36.5953 29.0247 36.6061 29.0014C36.7009 28.783 36.7214 28.5454 36.7217 28.3102C36.7218 28.2804 36.7218 28.2804 36.7219 28.25C36.7221 28.1952 36.7223 28.1403 36.7224 28.0855C36.7225 28.0262 36.7227 27.9669 36.723 27.9077C36.7233 27.8051 36.7236 27.7025 36.7239 27.6C36.7243 27.4517 36.7247 27.3034 36.7252 27.1551C36.726 26.9145 36.7268 26.6738 36.7274 26.4332C36.7281 26.1995 36.7288 25.9658 36.7295 25.7321C36.7296 25.7105 36.7296 25.7105 36.7297 25.6884C36.7299 25.6161 36.7301 25.5438 36.7304 25.4715C36.7323 24.872 36.7341 24.2724 36.7358 23.6729C37.3178 23.6729 37.8997 23.6729 38.4993 23.6729C38.5001 24.2986 38.5007 24.9244 38.5011 25.5502C38.5011 25.6242 38.5011 25.6982 38.5012 25.7722C38.5012 25.7943 38.5012 25.7943 38.5012 25.8169C38.5014 26.0549 38.5016 26.2929 38.5019 26.5309C38.5022 26.7755 38.5024 27.02 38.5025 27.2646C38.5025 27.4152 38.5027 27.5659 38.503 27.7166C38.5031 27.8202 38.5032 27.9238 38.5032 28.0274C38.5031 28.087 38.5032 28.1466 38.5033 28.2062C38.5051 28.8235 38.5051 28.8235 38.4301 29.1178C38.4265 29.1322 38.4229 29.1466 38.4192 29.1614C38.2476 29.8267 37.9324 30.4004 37.458 30.895C37.4449 30.9088 37.4317 30.9227 37.4182 30.9369C37.3258 31.0319 37.2266 31.116 37.1221 31.1973C37.1131 31.2044 37.1042 31.2114 37.095 31.2187C36.4664 31.7109 35.6745 31.9791 34.8778 31.9752C34.8646 31.9751 34.8514 31.9751 34.8378 31.975C33.8361 31.9707 32.9264 31.5445 32.2246 30.8398C32.1237 30.7361 32.034 30.6256 31.949 30.5087C31.9423 30.4995 31.9356 30.4902 31.9287 30.4807C31.8837 30.4182 31.8405 30.3546 31.7979 30.2903C31.7871 30.2745 31.7763 30.2586 31.7651 30.2423C31.5001 29.8358 31.3302 29.3448 31.2674 28.865C31.2626 28.8291 31.2575 28.7932 31.252 28.7573C31.2207 28.5329 31.2222 28.3095 31.2229 28.0833C31.2231 28.0239 31.223 27.9646 31.223 27.9052C31.223 27.8027 31.2231 27.7002 31.2233 27.5977C31.2235 27.4495 31.2236 27.3013 31.2237 27.153C31.2237 26.9125 31.224 26.672 31.2243 26.4314C31.2246 26.198 31.2248 25.9645 31.225 25.731C31.225 25.7166 31.225 25.7021 31.225 25.6873C31.225 25.6149 31.2251 25.5426 31.2251 25.4702C31.2255 24.8711 31.2261 24.272 31.2268 23.6729Z" fill="white"/>
<path d="M44.6139 23.5897C44.626 23.5908 44.638 23.5919 44.6505 23.593C45.0281 23.6276 45.3993 23.7344 45.756 23.8584C45.7685 23.8627 45.7811 23.8669 45.794 23.8713C46.5245 24.1189 46.5245 24.1189 46.6126 24.2951C46.6008 24.3345 46.6008 24.3345 46.5808 24.3851C46.5732 24.4046 46.5656 24.424 46.5577 24.444C46.5491 24.4658 46.5404 24.4875 46.5318 24.5093C46.5229 24.5319 46.514 24.5545 46.5051 24.5771C46.4852 24.6278 46.4652 24.6785 46.4452 24.7291C46.4072 24.8254 46.3696 24.9217 46.3321 25.0181C46.3049 25.0878 46.2776 25.1576 46.2504 25.2273C46.2438 25.2443 46.2371 25.2614 46.2303 25.279C46.2111 25.3281 46.1919 25.3771 46.1727 25.4262C46.167 25.4408 46.1613 25.4555 46.1554 25.4706C46.1244 25.5497 46.0923 25.6281 46.0583 25.706C45.9933 25.6823 45.9345 25.6514 45.874 25.6182C45.6731 25.5085 45.4651 25.4199 45.2521 25.3364C45.2389 25.3313 45.2257 25.3261 45.2121 25.3207C44.5194 25.0519 43.6329 24.9529 42.9328 25.2402C42.7247 25.3356 42.54 25.5004 42.4578 25.7175C42.4373 25.7809 42.4191 25.8409 42.4137 25.9075C42.4124 25.9217 42.4112 25.936 42.4099 25.9507C42.4007 26.1354 42.4604 26.3043 42.5809 26.4453C42.6846 26.5458 42.8137 26.6052 42.9438 26.6644C42.9549 26.6695 42.9661 26.6746 42.9776 26.6798C43.2042 26.779 43.4446 26.8452 43.6835 26.9069C43.7238 26.9173 43.764 26.9279 43.8042 26.9385C43.9491 26.9765 44.0944 27.0119 44.241 27.043C44.3595 27.0684 44.4748 27.103 44.5906 27.1384C44.6395 27.153 44.6886 27.1667 44.7378 27.1806C45.4618 27.3869 45.4618 27.3869 45.7896 27.5535C45.8063 27.5616 45.8229 27.5698 45.8401 27.5781C46.3039 27.816 46.6863 28.2249 46.8572 28.7185C47.0462 29.306 46.9781 29.9667 46.6994 30.5125C46.6097 30.6824 46.5097 30.838 46.3771 30.9782C46.3414 31.0149 46.3414 31.0149 46.304 31.0648C45.8266 31.5991 45.0309 31.8535 44.3452 31.9371C44.3278 31.9393 44.3278 31.9393 44.3101 31.9415C44.0836 31.9687 43.8594 31.9768 43.6314 31.976C43.6062 31.976 43.6062 31.976 43.5805 31.9759C43.306 31.9753 43.038 31.962 42.7664 31.9203C42.7531 31.9184 42.7397 31.9164 42.726 31.9144C42.6563 31.9038 42.5872 31.8914 42.5182 31.8774C42.4761 31.869 42.4339 31.8612 42.3917 31.8534C41.7762 31.7361 41.2064 31.5135 40.6669 31.1981C40.6764 30.9559 40.7089 30.7171 40.7404 30.477C40.7507 30.3977 40.761 30.3185 40.7712 30.2393C40.7738 30.2199 40.7763 30.2005 40.7789 30.1806C40.7987 30.0276 40.8174 29.8746 40.8354 29.7214C40.8454 29.6368 40.856 29.5524 40.8685 29.4682C40.9298 29.4854 40.9683 29.5139 41.0143 29.5561C41.5407 30.0237 42.2868 30.2708 42.9679 30.3919C42.9832 30.3947 42.9984 30.3975 43.014 30.4003C43.4216 30.472 43.8724 30.4794 44.278 30.3919C44.2911 30.3891 44.3043 30.3864 44.3178 30.3835C44.576 30.3261 44.8451 30.224 45.0034 30.0014C45.0195 29.9751 45.0353 29.9485 45.0506 29.9217C45.0576 29.91 45.0646 29.8984 45.0718 29.8864C45.1209 29.7887 45.1247 29.6921 45.1262 29.5847C45.1265 29.5706 45.1268 29.5565 45.1271 29.542C45.1255 29.3836 45.0584 29.2465 44.9498 29.1323C44.4878 28.721 43.7661 28.6248 43.1817 28.4805C42.4464 28.298 41.6966 28.0975 41.1446 27.5514C41.126 27.533 41.126 27.533 41.107 27.5143C40.705 27.1058 40.5908 26.5621 40.5938 26.007C40.5967 25.8453 40.6104 25.6946 40.6501 25.538C40.6527 25.5271 40.6552 25.5161 40.6578 25.5049C40.7504 25.1076 40.9577 24.7558 41.238 24.4631C41.2491 24.4509 41.2602 24.4388 41.2716 24.4263C42.1016 23.5475 43.4925 23.4801 44.6139 23.5897Z" fill="white"/>
<path d="M22.5453 23.6729C24.7346 23.6729 26.9239 23.6729 29.1796 23.6729C29.2128 23.95 29.2461 24.2271 29.2804 24.5126C29.3011 24.6767 29.3221 24.8406 29.3436 25.0046C29.35 25.0533 29.3563 25.102 29.3626 25.1507C29.3645 25.1649 29.3664 25.1791 29.3684 25.1937C29.37 25.2068 29.3717 25.2199 29.3735 25.2334C29.375 25.2447 29.3765 25.256 29.378 25.2676C29.3816 25.3069 29.3811 25.3465 29.3811 25.386C28.5109 25.386 27.6408 25.386 26.7442 25.386C26.7442 27.5199 26.7442 29.6538 26.7442 31.8523C26.1567 31.8523 25.5692 31.8523 24.9639 31.8523C24.9639 29.7184 24.9639 27.5846 24.9639 25.386C24.0992 25.386 23.2346 25.386 22.3438 25.386C22.363 25.0391 22.363 25.0391 22.3861 24.868C22.3886 24.849 22.3911 24.83 22.3936 24.8105C22.4014 24.7507 22.4093 24.691 22.4172 24.6313C22.4276 24.5527 22.4378 24.4742 22.4481 24.3957C22.4506 24.3764 22.4531 24.3572 22.4557 24.3374C22.4769 24.1741 22.4952 24.0105 22.5122 23.8467C22.5141 23.8287 22.516 23.8108 22.518 23.7924C22.5204 23.7686 22.5204 23.7686 22.5229 23.7444C22.5285 23.7064 22.5285 23.7064 22.5453 23.6729Z" fill="white"/>
<path d="M5.71484 23.6729C6.30236 23.6729 6.88987 23.6729 7.49518 23.6729C7.49518 25.8012 7.49518 27.9295 7.49518 30.1224C8.94179 30.1224 10.3884 30.1224 11.8788 30.1224C11.8018 30.8548 11.8018 30.8548 11.7592 31.1763C11.7528 31.2252 11.7464 31.2741 11.74 31.323C11.7362 31.3526 11.7323 31.3822 11.7283 31.4118C11.7091 31.5585 11.6937 31.7052 11.6773 31.8523C9.70969 31.8523 7.74208 31.8523 5.71484 31.8523C5.71484 29.1531 5.71484 26.4539 5.71484 23.6729Z" fill="white"/>
<path d="M17.5894 25.285C17.6026 25.2886 17.6158 25.2922 17.6294 25.2959C18.1593 25.4416 18.6526 25.7567 18.9824 26.2014C18.991 26.2131 18.9997 26.2248 19.0087 26.2368C19.0883 26.3458 19.1566 26.4582 19.2185 26.5782C19.2242 26.5889 19.2298 26.5995 19.2356 26.6105C19.4219 26.9673 19.4946 27.3375 19.4936 27.7371C19.4936 27.7517 19.4935 27.7663 19.4935 27.7813C19.4928 27.9972 19.4842 28.2013 19.4201 28.409C19.4162 28.4223 19.4123 28.4356 19.4084 28.4493C19.3197 28.7483 19.1807 29.0395 18.9834 29.2823C18.9719 29.2972 18.9605 29.312 18.9486 29.3273C18.7128 29.626 18.4302 29.847 18.0932 30.0213C18.0763 30.0304 18.0594 30.0395 18.042 30.0489C17.923 30.1088 17.7998 30.1474 17.6723 30.1851C17.6556 30.19 17.6389 30.195 17.6217 30.2001C17.4219 30.2569 17.2312 30.2788 17.024 30.2777C16.987 30.2775 16.95 30.2777 16.913 30.2779C16.7079 30.2781 16.5084 30.2571 16.3098 30.204C16.2898 30.1987 16.2898 30.1987 16.2695 30.1933C15.6302 30.0141 15.076 29.5737 14.7489 28.9973C14.448 28.4444 14.329 27.7836 14.4899 27.1678C14.4984 27.1347 14.5058 27.1013 14.5131 27.0679C14.5972 26.7053 14.7914 26.3685 15.0364 26.0912C15.0471 26.0788 15.0471 26.0788 15.058 26.0662C15.1641 25.944 15.2764 25.8362 15.4059 25.7384C15.4148 25.7317 15.4237 25.7249 15.4329 25.7179C16.0341 25.2613 16.8554 25.0732 17.5894 25.285Z" fill="#323232"/>
<path d="M26.3078 13.2427C26.6428 13.2407 26.6428 13.2407 26.7867 13.2403C26.8845 13.24 26.9823 13.2396 27.0802 13.2389C27.1591 13.2384 27.2381 13.2381 27.317 13.2379C27.347 13.2378 27.3769 13.2377 27.4069 13.2374C27.8008 13.2339 28.1522 13.3368 28.4577 13.5954C28.4686 13.604 28.4796 13.6125 28.4909 13.6213C28.7177 13.8048 28.8779 14.0859 28.9447 14.368C28.9505 14.3871 28.9563 14.4061 28.9623 14.4258C29.0254 14.6802 29.0003 14.996 28.9111 15.2414C28.9002 15.2717 28.9002 15.2717 28.889 15.3027C28.7325 15.6968 28.4372 15.9798 28.0537 16.1514C27.9721 16.1857 27.8886 16.2115 27.8026 16.2323C27.7872 16.2366 27.7872 16.2366 27.7715 16.2409C27.6242 16.2764 27.4747 16.2701 27.3243 16.2692C27.2945 16.2692 27.2646 16.2691 27.2347 16.2691C27.1565 16.2689 27.0784 16.2686 27.0003 16.2682C26.9062 16.2678 26.8122 16.2677 26.7182 16.2675C26.5758 16.2672 26.4334 16.2665 26.291 16.2659C26.291 15.9168 26.291 15.5676 26.291 15.2078C26.3852 15.1856 26.4795 15.1635 26.5765 15.1406C26.6339 15.1216 26.6881 15.1029 26.7434 15.0797C26.7643 15.0712 26.7643 15.0712 26.7855 15.0625C27.022 14.9626 27.2372 14.8363 27.4331 14.6703C27.4416 14.6631 27.4502 14.6559 27.4589 14.6485C27.6171 14.5133 27.7575 14.362 27.8725 14.1882C27.886 14.1679 27.886 14.1679 27.8997 14.1472C27.9064 14.1369 27.9132 14.1267 27.9202 14.1161C27.7622 14.1156 27.6042 14.1157 27.4462 14.1166C27.3728 14.117 27.2995 14.1172 27.2261 14.1168C27.1551 14.1165 27.0841 14.1168 27.0131 14.1175C26.9862 14.1177 26.9593 14.1176 26.9324 14.1173C26.7632 14.1159 26.6432 14.1353 26.4964 14.222C26.4422 14.2505 26.4422 14.2505 26.3078 14.284C26.3078 13.9404 26.3078 13.5968 26.3078 13.2427Z" fill="#323232"/>
<path d="M26.3066 9.3129C26.6396 9.31021 26.6396 9.31021 26.7831 9.30962C26.8805 9.30922 26.9778 9.30876 27.0752 9.30784C27.1538 9.3071 27.2324 9.3067 27.3111 9.30653C27.3409 9.30641 27.3706 9.30617 27.4004 9.3058C27.8491 9.3005 28.2393 9.44858 28.5625 9.76219C28.8662 10.0701 28.9829 10.4572 28.9835 10.8805C28.9814 11.0443 28.9565 11.1914 28.8974 11.3441C28.893 11.3556 28.8885 11.3671 28.884 11.379C28.7326 11.7638 28.4463 12.0536 28.0723 12.2238C27.831 12.3187 27.6134 12.3458 27.3564 12.3427C27.3259 12.3426 27.2954 12.3425 27.2649 12.3424C27.1856 12.3421 27.1063 12.3415 27.027 12.3407C26.9313 12.3399 26.8357 12.3396 26.74 12.3392C26.5956 12.3386 26.4511 12.3373 26.3066 12.3361C26.3066 11.9925 26.3066 11.6488 26.3066 11.2948C26.3892 11.3085 26.4277 11.3202 26.4966 11.36C26.6569 11.4517 26.7926 11.4651 26.9743 11.4627C27.0017 11.4629 27.0292 11.4631 27.0567 11.4633C27.1281 11.4638 27.1994 11.4635 27.2707 11.463C27.3439 11.4626 27.4171 11.463 27.4903 11.4633C27.6332 11.4639 27.7761 11.4636 27.919 11.4627C27.8949 11.4276 27.8708 11.3925 27.8466 11.3574C27.8399 11.3475 27.8331 11.3376 27.8261 11.3274C27.779 11.2591 27.7304 11.1975 27.6734 11.1373C27.659 11.122 27.6445 11.1066 27.6297 11.0908C27.6143 11.0749 27.5989 11.0591 27.5831 11.0429C27.574 11.0334 27.5648 11.0239 27.5554 11.0142C27.2159 10.6673 26.7715 10.4804 26.3066 10.371C26.3066 10.0218 26.3066 9.67267 26.3066 9.3129Z" fill="#323232"/>
<path d="M25.3997 9.31348C25.3997 9.66266 25.3997 10.0118 25.3997 10.3716C25.3055 10.3938 25.2113 10.4159 25.1142 10.4388C25.0562 10.4581 25.0013 10.4773 24.9452 10.5007C24.9312 10.5064 24.9173 10.5122 24.9029 10.5181C24.6133 10.6402 24.3684 10.8108 24.14 11.0266C24.1264 11.0392 24.1128 11.0517 24.0988 11.0646C23.856 11.2959 23.6782 11.591 23.5543 11.9011C23.5499 11.9119 23.5455 11.9228 23.541 11.9339C23.4912 12.0658 23.4675 12.1972 23.4346 12.3367C22.8194 12.3367 22.2042 12.3367 21.5703 12.3367C21.6376 12.2582 21.7044 12.1833 21.7773 12.1105C21.7926 12.0951 21.7926 12.0951 21.8082 12.0794C21.8421 12.0453 21.8761 12.0112 21.9101 11.9772C21.9345 11.9526 21.959 11.928 21.9834 11.9035C22.0635 11.8231 22.1436 11.7428 22.2238 11.6624C22.2515 11.6347 22.2791 11.6069 22.3068 11.5792C22.4369 11.4487 22.5671 11.3183 22.6973 11.188C22.8472 11.038 22.9969 10.8878 23.1465 10.7376C23.2624 10.6211 23.3785 10.5048 23.4946 10.3886C23.5639 10.3193 23.633 10.25 23.7021 10.1805C23.7671 10.1151 23.8323 10.0498 23.8976 9.98469C23.9214 9.9609 23.9452 9.93706 23.9688 9.91315C24.3928 9.48521 24.788 9.31348 25.3997 9.31348Z" fill="#323232"/>
<path d="M25.4003 11.2959C25.4003 12.2825 25.4003 13.2691 25.4003 14.2855C25.2867 14.2666 25.2867 14.2666 25.2374 14.2424C25.2266 14.2371 25.2157 14.2318 25.2045 14.2263C25.1933 14.2206 25.182 14.2148 25.1705 14.2089C25.1587 14.2029 25.1469 14.1969 25.1347 14.1908C25.0308 14.1367 24.9372 14.0738 24.8461 14C24.8268 13.9848 24.8268 13.9848 24.8071 13.9694C24.5042 13.7176 24.3233 13.3367 24.2817 12.9491C24.2442 12.5074 24.3749 12.102 24.6552 11.7618C24.8216 11.568 25.0165 11.4329 25.2492 11.3295C25.2639 11.3229 25.2786 11.3163 25.2938 11.3095C25.3332 11.2959 25.3332 11.2959 25.4003 11.2959Z" fill="#323232"/>
</g>
<defs>
<clipPath id="clip0_100_59">
<rect width="50" height="38.0952" fill="white" transform="translate(0.779297 0.952148)"/>
</clipPath>
</defs>
</svg>
