<svg width="46" height="38" viewBox="0 0 46 38" fill="none" xmlns="http://www.w3.org/2000/svg">
<g clip-path="url(#clip0_100_72)">
<mask id="mask0_100_72" style="mask-type:luminance" maskUnits="userSpaceOnUse" x="0" y="0" width="46" height="38">
<path d="M45.7793 0.0214844H0.779297V37.6657H45.7793V0.0214844Z" fill="white"/>
</mask>
<g mask="url(#mask0_100_72)">
<path d="M7.23348 13.2459C9.56976 6.41765 16.0264 1.83018 23.2905 1.83018C30.5546 1.83018 37.0122 6.41765 39.3485 13.2459L39.3674 13.3026H44.4795V12.6909L42.3532 12.4441C41.0427 12.2909 40.7622 11.7132 40.4065 10.9805L40.3157 10.7999C37.243 4.25248 30.5584 0.0214844 23.2858 0.0214844C16.0132 0.0214844 9.32868 4.25248 6.25682 10.7999L6.16984 10.9777C5.81527 11.7104 5.53162 12.2881 4.22404 12.4413L2.09766 12.6909V13.3054H7.20984L7.23348 13.2459Z" fill="#323232"/>
<path d="M39.3618 24.3827L39.3429 24.4394C37.0056 31.2676 30.5537 35.8541 23.2858 35.8541C16.016 35.8541 9.56409 31.2648 7.23348 24.4356L7.21364 24.3789H2.09766V24.9925L4.22309 25.2402C5.53162 25.3934 5.81527 25.972 6.1689 26.7038L6.25491 26.8797C9.32676 33.4299 16.0113 37.6629 23.2839 37.6638C30.5546 37.6638 37.2392 33.4318 40.3122 26.8854L40.399 26.7067C40.7535 25.9758 41.0333 25.3972 42.3446 25.2449L44.4721 24.9972V24.3836L39.3618 24.3827Z" fill="#323232"/>
<path d="M11.0137 16.2227H9.85547V21.4606H11.0137V16.2227Z" fill="#323232"/>
<path d="M7.29174 21.4596V16.2227H6.13258V20.1256L2.27126 16.2227H0.779297V21.4596H1.93845V17.5302L5.8272 21.4596H7.29174Z" fill="#323232"/>
<path d="M33.2274 16.2227L29.957 21.4596H31.3629L31.9444 20.5246H35.7585L36.34 21.4596H37.7449L34.4764 16.2227H33.2274ZM35.16 19.5318H32.5419L33.8524 17.4272L35.16 19.5318Z" fill="#323232"/>
<path d="M27.0178 20.369C26.9848 20.3747 26.8372 20.3794 26.7786 20.3794H22.1165V21.4591H26.8514C26.8912 21.4591 27.1634 21.4591 27.2296 21.4516C28.1959 21.3655 28.6355 20.5609 28.6355 19.8509C28.6355 19.1408 28.1742 18.3551 27.2977 18.2691C27.172 18.2566 27.0458 18.2509 26.9195 18.2521H23.824C23.7087 18.2542 23.5935 18.2453 23.4798 18.2256C23.3806 18.1988 23.2936 18.1389 23.2331 18.0558C23.1725 17.9728 23.1422 17.8716 23.147 17.7689C23.1467 17.6662 23.1798 17.5661 23.2414 17.4839C23.303 17.4017 23.3897 17.3418 23.4884 17.3132C23.5948 17.29 23.704 17.282 23.8126 17.2896H28.281V16.2212H23.7427C23.591 16.2186 23.4394 16.2265 23.2889 16.2448C22.9181 16.2893 22.5772 16.4703 22.3325 16.7524C22.0879 17.0344 21.9569 17.3975 21.9652 17.7708C21.9652 18.4194 22.3727 19.1758 23.2681 19.3053C23.4298 19.3231 23.5924 19.3304 23.755 19.3271H26.7711C26.8278 19.3271 26.9601 19.3271 26.9894 19.3337C27.1142 19.3486 27.2294 19.4078 27.314 19.5006C27.3986 19.5934 27.447 19.7135 27.4503 19.839C27.4536 19.9646 27.4117 20.0871 27.3321 20.1842C27.2525 20.2814 27.1406 20.3466 27.0169 20.3681" fill="#323232"/>
<path d="M18.3254 20.37C18.2914 20.3757 18.1439 20.3804 18.0862 20.3804H13.4231V21.4601H18.159C18.1978 21.4601 18.471 21.4601 18.5372 21.4526C19.5035 21.3665 19.9441 20.5619 19.9441 19.8519C19.9441 19.1418 19.4855 18.3561 18.61 18.271C18.4843 18.2586 18.3581 18.2528 18.2318 18.254H15.1316C15.0163 18.2562 14.9011 18.2473 14.7874 18.2276C14.6882 18.2008 14.601 18.1409 14.5403 18.0579C14.4796 17.9749 14.4491 17.8736 14.4537 17.7709C14.4534 17.668 14.4866 17.5679 14.5484 17.4857C14.6102 17.4034 14.6971 17.3436 14.796 17.3152C14.9024 17.2919 15.0116 17.2839 15.1202 17.2915H19.5876V16.2231H15.0493C14.8977 16.2205 14.746 16.2284 14.5955 16.2468C14.2249 16.2915 13.8841 16.4725 13.6394 16.7545C13.3948 17.0366 13.2637 17.3995 13.2718 17.7728C13.2718 18.4214 13.6793 19.1778 14.5747 19.3073C14.7367 19.3251 14.8997 19.3323 15.0626 19.329H18.0777C18.1354 19.329 18.2668 19.329 18.297 19.3357C18.4218 19.3505 18.5369 19.4097 18.6216 19.5025C18.7062 19.5953 18.7546 19.7155 18.7579 19.841C18.7612 19.9665 18.7192 20.089 18.6397 20.1862C18.5601 20.2833 18.4482 20.3486 18.3245 20.37" fill="#323232"/>
<path d="M45.7781 21.4596V16.2227H44.6191V20.1256L40.7577 16.2227H39.2656V21.4596H40.4247V17.5302L44.3135 21.4596H45.7781Z" fill="#323232"/>
<path d="M43.1303 34.4319C43.3244 34.4351 43.5138 34.4957 43.6738 34.6061C43.8334 34.7165 43.9575 34.8718 44.0295 35.0524C44.1011 35.233 44.1183 35.4309 44.078 35.621C44.0377 35.8112 43.9418 35.9852 43.8029 36.1212C43.664 36.2571 43.4879 36.3489 43.297 36.385C43.106 36.4211 42.9084 36.3999 42.7296 36.324C42.5504 36.2481 42.3981 36.121 42.2913 35.9586C42.1841 35.7962 42.1278 35.6058 42.1289 35.4114C42.1289 35.2809 42.1548 35.1517 42.2052 35.0313C42.2557 34.911 42.3297 34.802 42.4232 34.7107C42.5163 34.6194 42.6271 34.5477 42.7484 34.4998C42.8701 34.452 42.9996 34.4289 43.1303 34.4319ZM43.1303 36.2085C43.2328 36.2085 43.3345 36.1879 43.4288 36.1478C43.5235 36.1077 43.6088 36.049 43.6804 35.9751C43.7517 35.9012 43.8072 35.8137 43.844 35.7179C43.8808 35.622 43.8976 35.5197 43.8941 35.4171C43.8894 35.2662 43.8405 35.12 43.7532 34.9968C43.666 34.8736 43.5443 34.7789 43.4034 34.7245C43.2625 34.6701 43.1087 34.6585 42.9612 34.6911C42.8137 34.7236 42.6791 34.7989 42.5742 34.9075C42.4694 35.0161 42.3989 35.1533 42.3715 35.3018C42.3445 35.4502 42.3614 35.6035 42.4208 35.7423C42.4799 35.8812 42.5789 35.9994 42.7053 36.0823C42.8313 36.1653 42.9792 36.2091 43.1303 36.2085ZM42.7519 35.9248V34.933C42.8728 34.9105 42.9953 34.8994 43.1178 34.8999C43.2958 34.8999 43.5537 34.933 43.5537 35.1911C43.5501 35.247 43.5282 35.3 43.4914 35.342C43.4543 35.3839 43.4046 35.4124 43.3494 35.4228V35.4388C43.4441 35.471 43.495 35.5513 43.5216 35.6809C43.5345 35.7667 43.5599 35.8502 43.5971 35.9286H43.3713C43.3334 35.8504 43.3079 35.7668 43.2958 35.6809C43.2578 35.5249 43.1718 35.5249 42.9675 35.5249V35.9286L42.7519 35.9248ZM42.9722 35.3651C43.1397 35.3651 43.3232 35.3651 43.3232 35.2138C43.3232 35.1193 43.2578 35.0578 43.1017 35.0578C43.0583 35.0566 43.0148 35.0604 42.9722 35.0691V35.3651Z" fill="#323232"/>
</g>
</g>
<defs>
<clipPath id="clip0_100_72">
<rect width="45" height="37.9565" fill="white" transform="translate(0.779297 0.0214844)"/>
</clipPath>
</defs>
</svg>
