<svg width="80" height="80" viewBox="0 0 80 80" fill="none" xmlns="http://www.w3.org/2000/svg">
<g clip-path="url(#clip0_1_289)">
<rect width="80" height="80" rx="40" fill="#323232"/>
<path d="M40 0.00195312C17.9109 0.00195312 0 17.9094 0 40.0002C0 62.091 17.9092 79.9984 40 79.9984C62.0926 79.9984 80 62.091 80 40.0002C80 17.9094 62.0926 0.00195312 40 0.00195312ZM40 11.9619C47.3091 11.9619 53.232 17.8865 53.232 25.1921C53.232 32.4995 47.3091 38.4224 40 38.4224C32.6944 38.4224 26.7715 32.4995 26.7715 25.1921C26.7715 17.8865 32.6944 11.9619 40 11.9619ZM39.9912 69.5407C32.7014 69.5407 26.0248 66.8859 20.875 62.4916C19.6205 61.4216 18.8966 59.8526 18.8966 58.2063C18.8966 50.797 24.8933 44.8671 32.3043 44.8671H47.6992C55.112 44.8671 61.0858 50.797 61.0858 58.2063C61.0858 59.8544 60.3655 61.4199 59.1092 62.4899C53.9612 66.8859 47.2828 69.5407 39.9912 69.5407Z" fill="white"/>
</g>
<defs>
<clipPath id="clip0_1_289">
<rect width="80" height="80" rx="40" fill="white"/>
</clipPath>
</defs>
</svg>
