<svg width="18" height="18" viewBox="0 0 18 18" fill="none" xmlns="http://www.w3.org/2000/svg">
<path d="M7.5 4.5H17.25C17.4489 4.5 17.6397 4.42098 17.7803 4.28033C17.921 4.13968 18 3.94891 18 3.75C18 3.55109 17.921 3.36032 17.7803 3.21967C17.6397 3.07902 17.4489 3 17.25 3H7.5C7.30109 3 7.11032 3.07902 6.96967 3.21967C6.82902 3.36032 6.75 3.55109 6.75 3.75C6.75 3.94891 6.82902 4.13968 6.96967 4.28033C7.11032 4.42098 7.30109 4.5 7.5 4.5Z" fill="#828282"/>
<path d="M17.25 8.25H7.5C7.30109 8.25 7.11032 8.32902 6.96967 8.46967C6.82902 8.61032 6.75 8.80109 6.75 9C6.75 9.19892 6.82902 9.38968 6.96967 9.53034C7.11032 9.67099 7.30109 9.75001 7.5 9.75001H17.25C17.4489 9.75001 17.6397 9.67099 17.7803 9.53034C17.921 9.38968 18 9.19892 18 9C18 8.80109 17.921 8.61032 17.7803 8.46967C17.6397 8.32902 17.4489 8.25 17.25 8.25Z" fill="#828282"/>
<path d="M17.25 13.5H7.5C7.30109 13.5 7.11032 13.579 6.96967 13.7197C6.82902 13.8603 6.75 14.0511 6.75 14.25C6.75 14.4489 6.82902 14.6397 6.96967 14.7803C7.11032 14.921 7.30109 15 7.5 15H17.25C17.4489 15 17.6397 14.921 17.7803 14.7803C17.921 14.6397 18 14.4489 18 14.25C18 14.0511 17.921 13.8603 17.7803 13.7197C17.6397 13.579 17.4489 13.5 17.25 13.5Z" fill="#828282"/>
<path d="M4.56592 4.49989C4.64012 4.49987 4.71265 4.47784 4.77433 4.43659C4.83601 4.39534 4.88406 4.33671 4.9124 4.26814C4.94075 4.19956 4.94811 4.12412 4.93356 4.05136C4.91901 3.9786 4.88321 3.91179 4.83067 3.85939L3.00067 2.03014C2.86003 1.88953 2.66929 1.81055 2.47042 1.81055C2.27155 1.81055 2.08082 1.88953 1.94017 2.03014L0.110921 3.85939C0.0583864 3.91179 0.0225786 3.9786 0.00802971 4.05136C-0.00651915 4.12412 0.000844991 4.19956 0.0291901 4.26814C0.0575352 4.33671 0.105587 4.39534 0.167264 4.43659C0.228941 4.47784 0.30147 4.49987 0.375671 4.49989H1.72117V13.4999H0.375671C0.301406 13.4998 0.228773 13.5217 0.166981 13.5629C0.105189 13.6041 0.057021 13.6627 0.0285829 13.7313C0.00014473 13.7999 -0.0072826 13.8754 0.00724249 13.9482C0.0217676 14.0211 0.057591 14.0879 0.110171 14.1404L1.94017 15.9696C2.08082 16.1102 2.27155 16.1892 2.47042 16.1892C2.66929 16.1892 2.86003 16.1102 3.00067 15.9696L4.83067 14.1404C4.88321 14.088 4.91901 14.0212 4.93356 13.9484C4.94811 13.8757 4.94075 13.8002 4.9124 13.7316C4.88406 13.6631 4.83601 13.6044 4.77433 13.5632C4.71265 13.5219 4.64012 13.4999 4.56592 13.4999H3.22117V4.49989H4.56592Z" fill="#828282"/>
</svg>
