<svg width="51" height="26" viewBox="0 0 51 26" fill="none" xmlns="http://www.w3.org/2000/svg">
<rect x="0.863281" y="0.329102" width="49.2754" height="25.3416" rx="12.6708" fill="#353539"/>
<path d="M10.5078 6.6084H24.5865V13.6916C24.5865 15.508 23.6209 17.1826 22.0476 18.0942L17.5505 20.6938L13.0535 18.0942C11.4802 17.1894 10.5146 15.508 10.5146 13.6916V6.6084H10.5078Z" fill="#FFDD2D"/>
<path fill-rule="evenodd" clip-rule="evenodd" d="M14.3691 10.3369V12.5382C14.673 12.2006 15.2199 11.971 15.8412 11.971H16.5231V14.5301C16.5231 15.2121 16.3408 15.8063 16.064 16.1372H19.0215C18.7447 15.8063 18.5624 15.2121 18.5624 14.5301V11.971H19.2443C19.8723 11.971 20.4193 12.2006 20.7164 12.5382V10.3369H14.3691Z" fill="#333333"/>
<path d="M31.0227 8.56934V17.8776H29.0547V8.56934H31.0227Z" fill="white"/>
<path d="M35.9415 17.8776H32.6419V8.56934H35.9688C36.9051 8.56934 37.7111 8.75568 38.3868 9.12837C39.0625 9.49804 39.5821 10.0298 39.9457 10.7237C40.3123 11.4176 40.4957 12.2478 40.4957 13.2144C40.4957 14.184 40.3123 15.0172 39.9457 15.7141C39.5821 16.411 39.0594 16.9458 38.3777 17.3185C37.699 17.6912 36.8869 17.8776 35.9415 17.8776ZM34.6098 16.1913H35.8597C36.4415 16.1913 36.9308 16.0883 37.3278 15.8823C37.7277 15.6732 38.0277 15.3505 38.2277 14.9142C38.4307 14.4748 38.5322 13.9082 38.5322 13.2144C38.5322 12.5265 38.4307 11.9645 38.2277 11.5282C38.0277 11.0918 37.7293 10.7706 37.3323 10.5646C36.9354 10.3586 36.446 10.2555 35.8643 10.2555H34.6098V16.1913Z" fill="white"/>
</svg>
