<svg width="30" height="40" viewBox="0 0 30 40" fill="none" xmlns="http://www.w3.org/2000/svg">
<g clip-path="url(#clip0_100_32)">
<path d="M0 35.4479C0.0874146 35.7878 0.3826 36.1351 0.787593 36.2221H2.01161L2.07405 36.2467V39.3252H2.83839V36.2467L2.90783 36.2221H4.13292C4.54244 36.117 4.83127 35.7878 4.91718 35.4479V35.4404H0V35.4479Z" fill="#323232"/>
<path d="M7.56492 39.333H10.4727C10.8773 39.2529 11.178 38.8976 11.2623 38.5537H6.77539C6.85915 38.8977 7.16423 39.2529 7.56492 39.333Z" fill="#323232"/>
<path d="M7.56492 37.7548H10.4727C10.8773 37.6753 11.178 37.3199 11.2623 36.9756H6.77539C6.85915 37.32 7.16423 37.6753 7.56492 37.7548Z" fill="#323232"/>
<path d="M7.56492 36.218H10.4727C10.8773 36.1376 11.178 35.7826 11.2623 35.4385H6.77539C6.85915 35.7826 7.16423 36.1376 7.56492 36.218Z" fill="#323232"/>
<path d="M14.1957 36.21H16.8821C17.2871 36.0927 17.6272 35.7852 17.7101 35.4443H13.4427V37.7421H16.9354V38.5485L14.1957 38.5506C13.7664 38.67 13.4023 38.9573 13.2207 39.3368L13.4427 39.3327H17.6858V36.9782H14.1957V36.21Z" fill="#323232"/>
<path d="M23.3397 39.3348C23.7211 39.1736 23.9263 38.8949 24.0048 38.5687H20.6119L20.6141 35.4443L19.8535 35.4465V39.3348H23.3397Z" fill="#323232"/>
<path d="M26.3028 36.2216H29.2116C29.6156 36.1415 29.9161 35.7862 30.0008 35.4424H25.5137C25.5975 35.7863 25.9024 36.1415 26.3028 36.2216Z" fill="#323232"/>
<path d="M25.6289 36.9814V39.3326H26.3854V37.7672H29.1386V39.3326H29.8946V36.9855L25.6289 36.9814Z" fill="#323232"/>
<path d="M14.9998 27.7554L18.8189 6.34719C22.4592 6.34719 23.6074 6.74505 23.7732 8.36902C23.7732 8.36902 26.2152 7.46149 27.4469 5.6183C22.6406 3.3985 17.8114 3.29839 17.8114 3.29839L14.9934 6.7193L14.9998 6.71887L12.1819 3.29785C12.1819 3.29785 7.35252 3.39807 2.54688 5.61787C3.77746 7.46106 6.22044 8.3686 6.22044 8.3686C6.3872 6.74452 7.53403 6.34665 11.1499 6.34407L14.9998 27.7554Z" fill="#323232"/>
<path d="M14.9992 2.3112C18.8844 2.28159 23.3315 2.91025 27.8839 4.88788C28.4924 3.79633 28.6488 3.31391 28.6488 3.31391C23.6723 1.35152 19.0119 0.679932 14.9987 0.663086C10.9857 0.679932 6.32546 1.35163 1.34961 3.31391C1.34961 3.31391 1.57159 3.90814 2.11395 4.88788C6.66554 2.91025 11.1133 2.28159 14.9987 2.3112H14.9992Z" fill="#323232"/>
</g>
<defs>
<clipPath id="clip0_100_32">
<rect width="30" height="38.6747" fill="white" transform="translate(0 0.663086)"/>
</clipPath>
</defs>
</svg>
