<svg width="18" height="18" viewBox="0 0 18 18" fill="none" xmlns="http://www.w3.org/2000/svg">
<path d="M15.5459 0.547852C16.1672 0.547852 16.6709 1.05153 16.6709 1.67285C16.6709 2.00516 16.5257 2.3026 16.2966 2.50854V9.00073C16.2965 9.41472 15.9606 9.75059 15.5466 9.75073H9.78906V15.5266C9.9961 15.7306 10.1245 16.0142 10.1245 16.3279C10.1245 16.9492 9.62083 17.4529 8.99951 17.4529C8.37819 17.4529 7.87451 16.9492 7.87451 16.3279C7.87451 15.976 8.03608 15.6619 8.28906 15.4556V9.75073H3.20312V15.4907C3.43288 15.6967 3.57812 15.995 3.57812 16.3279C3.57812 16.9492 3.07445 17.4529 2.45312 17.4529C1.8318 17.4529 1.32812 16.9492 1.32812 16.3279C1.32812 15.995 1.47337 15.6967 1.70312 15.4907V2.50928C1.47358 2.30331 1.32812 2.00553 1.32812 1.67285C1.32812 1.05153 1.8318 0.547852 2.45312 0.547852C3.07445 0.547852 3.57812 1.05153 3.57812 1.67285C3.57812 2.00553 3.43267 2.30331 3.20312 2.50928V8.25073H8.28906V2.54443C8.03628 2.33814 7.87451 2.02457 7.87451 1.67285C7.87451 1.05153 8.37819 0.547852 8.99951 0.547852C9.62083 0.547852 10.1245 1.05153 10.1245 1.67285C10.1245 1.98631 9.99589 2.26939 9.78906 2.47339V8.25073H14.7966V2.51001C14.5666 2.30402 14.4209 2.0059 14.4209 1.67285C14.4209 1.05153 14.9246 0.547852 15.5459 0.547852Z" fill="#323232"/>
</svg>
