<svg width="25" height="24" viewBox="0 0 25 24" fill="none" xmlns="http://www.w3.org/2000/svg">
<g clip-path="url(#clip0_121_448)">
<mask id="mask0_121_448" style="mask-type:luminance" maskUnits="userSpaceOnUse" x="0" y="0" width="25" height="24">
<path d="M24.3796 0H0.617188V24H24.3796V0Z" fill="white"/>
</mask>
<g mask="url(#mask0_121_448)">
<path d="M0.617188 11.52C0.617188 6.08942 0.617188 3.37414 2.28755 1.68707C3.95792 0 6.64632 0 12.0231 0H12.9736C18.3504 0 21.0388 0 22.7092 1.68707C24.3796 3.37414 24.3796 6.08942 24.3796 11.52V12.48C24.3796 17.9106 24.3796 20.6259 22.7092 22.3129C21.0388 24 18.3504 24 12.9736 24H12.0231C6.64632 24 3.95792 24 2.28755 22.3129C0.617188 20.6259 0.617188 17.9106 0.617188 12.48V11.52Z" fill="white"/>
<path d="M13.2626 17.2908C7.84671 17.2908 4.75763 13.5408 4.62891 7.30078H7.34179C7.43089 11.8808 9.43085 13.8208 11.015 14.2208V7.30078H13.5695V11.2507C15.1339 11.0808 16.7773 9.28078 17.3317 7.30078H19.8863C19.4605 9.74079 17.6783 11.5408 16.411 12.2808C17.6783 12.8808 19.7081 14.4508 20.4804 17.2908H17.6684C17.0645 15.3908 15.5596 13.9208 13.5695 13.7208V17.2908H13.2626Z" fill="#0077FF"/>
</g>
</g>
<defs>
<clipPath id="clip0_121_448">
<rect width="24" height="24" fill="white" transform="translate(0.5)"/>
</clipPath>
</defs>
</svg>
