<svg width="43" height="44" viewBox="0 0 43 44" fill="none" xmlns="http://www.w3.org/2000/svg">
<g clip-path="url(#clip0_100_53)">
<path d="M21.5 40.9666C11.1334 40.9666 2.61046 32.3666 2.61046 22C2.61046 19.85 2.99387 17.777 3.68546 15.7811L14.7436 37.2811C14.8959 37.5875 15.05 37.8186 15.4334 37.8186C15.8186 37.8186 15.9709 37.5875 16.125 37.2811L21.2689 25.8395C21.3459 25.6855 21.423 25.6084 21.5 25.6084C21.6541 25.6084 21.6541 25.7625 21.7311 25.8395L26.952 37.2811C27.1061 37.5875 27.2584 37.8186 27.6436 37.8186C28.027 37.8186 28.1811 37.5875 28.3334 37.2811L39.3916 15.7811C40.0814 17.7 40.4666 19.773 40.4666 22C40.3895 32.3666 31.8666 40.9666 21.5 40.9666ZM21.5 17.0855C21.3459 17.0855 21.3459 16.9314 21.2689 16.8561L15.3564 4.10842C19.3272 2.67789 23.6728 2.67789 27.6436 4.10842L21.7311 16.8561C21.6541 16.9314 21.6541 17.0855 21.5 17.0855ZM15.2811 30.9064C15.127 30.9064 15.127 30.7541 15.05 30.677L5.375 12.0921C7.06454 9.32933 9.52092 7.02525 12.3625 5.41275L19.1959 20.1546C19.35 20.4627 19.5041 20.5398 19.7334 20.5398H23.2666C23.4959 20.5398 23.65 20.4627 23.8041 20.1546L30.5605 5.41275C33.402 7.02525 35.8584 9.32933 37.548 12.0921L27.95 30.677C27.873 30.8311 27.7959 30.9064 27.7189 30.9064C27.5666 30.9064 27.5666 30.7541 27.4895 30.677L23.8041 22.5375C23.65 22.2311 23.4959 22.1541 23.2666 22.1541H19.7334C19.5041 22.1541 19.35 22.2311 19.1959 22.5375L15.5105 30.677C15.4334 30.7541 15.4334 30.9064 15.2811 30.9064ZM21.5 43.5C33.402 43.5 43 33.902 43 22C43 10.098 33.402 0.5 21.5 0.5C9.59796 0.5 0 10.098 0 22C0 33.902 9.59796 43.5 21.5 43.5Z" fill="#323232"/>
</g>
<defs>
<clipPath id="clip0_100_53">
<rect width="43" height="43" fill="white" transform="translate(0 0.5)"/>
</clipPath>
</defs>
</svg>
