<svg width="48" height="48" viewBox="0 0 48 48" fill="none" xmlns="http://www.w3.org/2000/svg">
<rect width="48" height="48" rx="10" fill="white"/>
<g clip-path="url(#clip0_1_276)">
<path d="M29.762 35.9998C21.631 36.2748 6.98301 21.7448 13.784 13.8668L14.934 12.8668C15.5161 12.3041 16.2964 11.9932 17.106 12.0014C17.9156 12.0096 18.6894 12.3363 19.26 12.9108C19.2908 12.9422 19.3196 12.9756 19.346 13.0108L21.146 15.3498C21.693 15.9286 21.997 16.6954 21.9951 17.4918C21.9932 18.2882 21.6857 19.0535 21.136 19.6298L19.978 21.0858C20.6191 22.6429 21.5614 24.058 22.7508 25.25C23.9402 26.442 25.3533 27.3873 26.909 28.0318L28.373 26.8668C28.9568 26.3306 29.7202 26.0326 30.5128 26.0315C31.3054 26.0304 32.0697 26.3263 32.655 26.8608L34.995 28.6608C35.0299 28.6872 35.0633 28.7155 35.095 28.7458C35.6721 29.3282 35.9958 30.1149 35.9958 30.9348C35.9958 31.7547 35.6721 32.5414 35.095 33.1238L34.184 34.1738C33.6061 34.758 32.9172 35.2205 32.1577 35.5341C31.3982 35.8477 30.5836 36.0061 29.762 35.9998ZM17.071 13.9998C16.9273 13.9997 16.785 14.0279 16.6522 14.0828C16.5194 14.1377 16.3987 14.2182 16.297 14.3198L15.146 15.3198C9.50001 22.1078 26.777 38.4228 32.72 32.8078L33.632 31.7568C33.7404 31.6603 33.8286 31.5433 33.8916 31.4126C33.9546 31.2818 33.9911 31.1399 33.999 30.995C34.0069 30.8501 33.9861 30.705 33.9377 30.5682C33.8893 30.4314 33.8143 30.3055 33.717 30.1978L31.39 28.4108C31.3543 28.3846 31.3209 28.3555 31.29 28.3238C31.0813 28.125 30.8042 28.0141 30.516 28.0141C30.2278 28.0141 29.9506 28.125 29.742 28.3238C29.7154 28.3507 29.6874 28.3761 29.658 28.3998L27.7 29.9598C27.5641 30.068 27.4023 30.1389 27.2306 30.1656C27.059 30.1922 26.8833 30.1737 26.721 30.1118C24.7051 29.3608 22.8742 28.1853 21.3523 26.665C19.8304 25.1446 18.653 23.3149 17.9 21.2998C17.8333 21.1352 17.8117 20.9557 17.8374 20.78C17.863 20.6042 17.935 20.4385 18.046 20.2998L19.6 18.3438C19.6231 18.3142 19.6482 18.2861 19.675 18.2598C19.8793 18.0538 19.9939 17.7754 19.9939 17.4853C19.9939 17.1952 19.8793 16.9168 19.675 16.7108C19.6438 16.6797 19.6151 16.6463 19.589 16.6108L17.806 14.2868C17.6045 14.1048 17.3425 14.0042 17.071 14.0048V13.9998ZM34.564 24.5758C39.554 17.2308 30.764 8.44979 23.427 13.4388C23.3163 13.5127 23.2216 13.6079 23.1482 13.7188C23.0748 13.8298 23.0243 13.9543 22.9996 14.085C22.9749 14.2158 22.9766 14.3501 23.0045 14.4802C23.0324 14.6103 23.086 14.7335 23.1621 14.8426C23.2382 14.9517 23.3353 15.0445 23.4478 15.1156C23.5602 15.1867 23.6857 15.2347 23.8169 15.2567C23.9481 15.2787 24.0824 15.2743 24.2119 15.2437C24.3414 15.2132 24.4635 15.1571 24.571 15.0788C30.045 11.3198 36.681 17.9628 32.924 23.4328C32.844 23.5402 32.7864 23.6627 32.7546 23.7928C32.7228 23.923 32.7175 24.0582 32.7389 24.1904C32.7604 24.3226 32.8083 24.4492 32.8796 24.5626C32.9509 24.676 33.0443 24.7739 33.1542 24.8505C33.2641 24.9271 33.3883 24.9808 33.5194 25.0085C33.6505 25.0362 33.7858 25.0372 33.9173 25.0116C34.0488 24.986 34.1738 24.9342 34.2849 24.8593C34.396 24.7845 34.4909 24.6881 34.564 24.5758ZM30.706 22.7108C30.8935 22.5233 30.9988 22.269 30.9988 22.0038C30.9988 21.7386 30.8935 21.4843 30.706 21.2968L29 19.5898V16.9998C29 16.7346 28.8946 16.4802 28.7071 16.2927C28.5196 16.1051 28.2652 15.9998 28 15.9998C27.7348 15.9998 27.4804 16.1051 27.2929 16.2927C27.1053 16.4802 27 16.7346 27 16.9998V19.9998C27 20.265 27.1054 20.5193 27.293 20.7068L29.293 22.7068C29.4805 22.8943 29.7348 22.9996 30 22.9996C30.2652 22.9996 30.5195 22.8943 30.707 22.7068L30.706 22.7108Z" fill="#323232"/>
</g>
<defs>
<clipPath id="clip0_1_276">
<rect width="24" height="24" fill="white" transform="translate(12 12)"/>
</clipPath>
</defs>
</svg>
