<svg width="48" height="48" viewBox="0 0 48 48" fill="none" xmlns="http://www.w3.org/2000/svg">
<rect width="48" height="48" rx="10" fill="white"/>
<g clip-path="url(#clip0_1_262)">
<path d="M32.9 16.291C32.5478 15.3272 31.9082 14.4948 31.0676 13.9062C30.2271 13.3177 29.2261 13.0013 28.2 13H19.8C18.7739 13.0013 17.7729 13.3177 16.9324 13.9062C16.0918 14.4948 15.4522 15.3272 15.1 16.291L12.4 23.718C12.1345 24.4495 11.9991 25.2218 12 26V27C12.0018 27.7728 12.1834 28.5346 12.5306 29.225C12.8777 29.9155 13.3808 30.5156 14 30.978C14 30.986 14 30.992 14 31V33C14 33.7956 14.3161 34.5587 14.8787 35.1213C15.4413 35.6839 16.2044 36 17 36C17.7957 36 18.5587 35.6839 19.1213 35.1213C19.6839 34.5587 20 33.7956 20 33V32H28V33C28 33.7956 28.3161 34.5587 28.8787 35.1213C29.4413 35.6839 30.2044 36 31 36C31.7957 36 32.5587 35.6839 33.1213 35.1213C33.6839 34.5587 34 33.7956 34 33V31C34 30.992 34 30.986 34 30.978C34.6192 30.5156 35.1223 29.9155 35.4694 29.225C35.8166 28.5346 35.9982 27.7728 36 27V26C36.001 25.2221 35.8656 24.4501 35.6 23.719L32.9 16.291ZM16.982 16.975C17.1934 16.3972 17.5769 15.898 18.0808 15.5449C18.5847 15.1918 19.1847 15.0016 19.8 15H28.2C28.8156 15.0012 29.4161 15.1912 29.9204 15.5443C30.4246 15.8975 30.8085 16.3968 31.02 16.975L33.208 23H14.791L16.982 16.975ZM18 33C18 33.2652 17.8946 33.5196 17.7071 33.7071C17.5196 33.8946 17.2652 34 17 34C16.7348 34 16.4804 33.8946 16.2929 33.7071C16.1054 33.5196 16 33.2652 16 33V31.9C16.3291 31.9668 16.6642 32.0003 17 32H18V33ZM32 33C32 33.2652 31.8946 33.5196 31.7071 33.7071C31.5196 33.8946 31.2652 34 31 34C30.7348 34 30.4804 33.8946 30.2929 33.7071C30.1054 33.5196 30 33.2652 30 33V32H31C31.3359 32.0003 31.6709 31.9668 32 31.9V33ZM34 27C34 27.7956 33.6839 28.5587 33.1213 29.1213C32.5587 29.6839 31.7957 30 31 30H17C16.2044 30 15.4413 29.6839 14.8787 29.1213C14.3161 28.5587 14 27.7956 14 27V26C14.0041 25.6633 14.0447 25.328 14.121 25H16V26C16 26.2652 16.1054 26.5196 16.2929 26.7071C16.4804 26.8946 16.7348 27 17 27C17.2652 27 17.5196 26.8946 17.7071 26.7071C17.8946 26.5196 18 26.2652 18 26V25H30V26C30 26.2652 30.1054 26.5196 30.2929 26.7071C30.4804 26.8946 30.7348 27 31 27C31.2652 27 31.5196 26.8946 31.7071 26.7071C31.8946 26.5196 32 26.2652 32 26V25H33.879C33.9554 25.328 33.996 25.6633 34 26V27Z" fill="#323232"/>
</g>
<defs>
<clipPath id="clip0_1_262">
<rect width="24" height="24" fill="white" transform="translate(12 12)"/>
</clipPath>
</defs>
</svg>
