<svg width="48" height="48" viewBox="0 0 48 48" fill="none" xmlns="http://www.w3.org/2000/svg">
<rect width="48" height="48" rx="10" fill="white"/>
<g clip-path="url(#clip0_1_255)">
<path d="M35.2189 17.743L32.2079 13.675C31.8377 13.1573 31.3494 12.7354 30.7835 12.4441C30.2176 12.1528 29.5904 12.0006 28.9539 12H19.0439C18.4106 11.9994 17.7861 12.1492 17.222 12.4371C16.6578 12.725 16.1701 13.1428 15.7989 13.656L12.7339 17.753C12.2349 18.4567 11.9772 19.3031 11.9994 20.1655C12.0215 21.0279 12.3224 21.8599 12.8569 22.537L21.6489 34.865C21.9291 35.2198 22.2862 35.5063 22.6933 35.7029C23.1004 35.8995 23.5469 36.0011 23.9989 36C24.4588 35.9991 24.9123 35.8927 25.3246 35.689C25.7368 35.4853 26.0969 35.1897 26.3769 34.825L35.0989 22.634C35.6574 21.947 35.9722 21.0941 35.9939 20.209C36.0156 19.3239 35.7431 18.4566 35.2189 17.743ZM30.5909 14.851L33.6089 18.929C33.625 18.951 33.6289 18.977 33.6449 19H28.7529L27.3249 14H28.9539C29.2749 14.001 29.591 14.0788 29.8757 14.2268C30.1605 14.3748 30.4057 14.5889 30.5909 14.851ZM23.9989 31.118L21.2989 21H26.6989L23.9989 31.118ZM21.3249 19L22.7529 14H25.2449L26.6729 19H21.3249ZM17.4159 14.837C17.6015 14.5784 17.8459 14.3676 18.129 14.2221C18.412 14.0766 18.7257 14.0004 19.0439 14H20.6729L19.2449 19H14.3169C14.3309 18.978 14.3349 18.951 14.3509 18.93L17.4159 14.837ZM14.4469 21.325C14.3747 21.223 14.3128 21.1142 14.2619 21H19.2309L22.2249 32.23L14.4469 21.325ZM25.7699 32.24L28.7699 21H33.7559C33.6915 21.1493 33.61 21.2905 33.5129 21.421L25.7699 32.24Z" fill="#323232"/>
</g>
<defs>
<clipPath id="clip0_1_255">
<rect width="24" height="24" fill="white" transform="translate(12 12)"/>
</clipPath>
</defs>
</svg>
