<svg width="48" height="48" viewBox="0 0 48 48" fill="none" xmlns="http://www.w3.org/2000/svg">
<rect width="48" height="48" rx="10" fill="white"/>
<g clip-path="url(#clip0_1_269)">
<path d="M35.9001 23.4375C35.5072 20.413 33.9773 17.6515 31.6214 15.7144C29.2655 13.7773 26.2605 12.81 23.217 13.009C20.1735 13.208 17.32 14.5585 15.2364 16.7859C13.1529 19.0133 11.9957 21.9506 12.0001 25.0005C11.9943 26.6331 12.3251 28.2492 12.9719 29.7482C13.6186 31.2471 14.5675 32.5967 15.7591 33.7125C16.6704 34.5563 17.8712 35.0174 19.1131 35.0005H28.8801C30.192 35.0036 31.4525 34.4903 32.3891 33.5715C33.7238 32.273 34.7364 30.6803 35.346 28.9208C35.9556 27.1612 36.1453 25.2835 35.9001 23.4375ZM30.9911 32.1375C30.4284 32.6919 29.6699 33.002 28.8801 33.0005H19.1131C18.3823 33.0156 17.6736 32.7504 17.1321 32.2595C16.1393 31.3297 15.3489 30.2052 14.81 28.9563C14.2712 27.7073 13.9954 26.3608 14.0001 25.0005C14.0011 23.5928 14.2988 22.2011 14.874 20.9162C15.4492 19.6312 16.2888 18.4821 17.3381 17.5435C19.1612 15.8995 21.5311 14.9929 23.9861 15.0005C24.3783 15.0007 24.7703 15.0227 25.1601 15.0665C27.0357 15.2844 28.8112 16.0291 30.281 17.2145C31.7508 18.3998 32.8547 19.9773 33.4649 21.7642C34.0751 23.5511 34.1666 25.4744 33.7287 27.3111C33.2909 29.1479 32.3417 30.823 30.9911 32.1425V32.1375ZM19.8071 29.2855C19.9967 29.4712 20.1048 29.7246 20.1076 29.9899C20.1104 30.2553 20.0077 30.5109 19.8221 30.7005C19.6364 30.8902 19.383 30.9983 19.1177 31.0011C18.8523 31.0039 18.5967 30.9012 18.4071 30.7155C17.272 29.6037 16.4938 28.1791 16.1715 26.6233C15.8492 25.0674 15.9975 23.4509 16.5975 21.9797C17.1974 20.5084 18.2219 19.2492 19.5403 18.3624C20.8586 17.4757 22.4112 17.0016 24.0001 17.0005C24.3825 17.0004 24.7645 17.0275 25.1431 17.0815C25.2731 17.1003 25.3982 17.1445 25.5111 17.2116C25.624 17.2787 25.7227 17.3673 25.8013 17.4726C25.88 17.5778 25.9371 17.6975 25.9695 17.8248C26.0019 17.9521 26.0089 18.0845 25.9901 18.2145C25.9729 18.3453 25.9297 18.4712 25.863 18.585C25.7964 18.6988 25.7077 18.7981 25.6022 18.8772C25.4966 18.9562 25.3763 19.0133 25.2483 19.0451C25.1204 19.0769 24.9874 19.0829 24.8571 19.0625C23.6056 18.8838 22.3296 19.1049 21.2112 19.6944C20.0928 20.2838 19.1891 21.2114 18.6292 22.3449C18.0693 23.4784 17.8817 24.7597 18.0933 26.0061C18.3048 27.2525 18.9046 28.4003 19.8071 29.2855ZM31.9191 23.8575C31.9731 24.2361 32.0002 24.6181 32.0001 25.0005C32.0033 26.0662 31.7918 27.1216 31.378 28.1037C30.9643 29.0858 30.3569 29.9744 29.5921 30.7165C29.4022 30.9022 29.1463 31.0048 28.8808 31.0018C28.6152 30.9988 28.3617 30.8904 28.1761 30.7005C27.9904 30.5107 27.8878 30.2548 27.8908 29.9892C27.8938 29.7237 28.0022 29.4702 28.1921 29.2845C28.8677 28.626 29.378 27.8169 29.6811 26.9234C29.9842 26.0298 30.0716 25.0773 29.9361 24.1435C29.8981 23.8809 29.9661 23.6138 30.1251 23.4013C30.284 23.1887 30.5209 23.048 30.7836 23.01C31.0463 22.9721 31.3133 23.0401 31.5258 23.199C31.7384 23.358 31.8791 23.5949 31.9171 23.8575H31.9191ZM25.9261 24.4885C26.0464 24.9213 26.0201 25.3817 25.8511 25.7979C25.6821 26.2141 25.3801 26.5626 24.9922 26.789C24.6043 27.0155 24.1523 27.107 23.7068 27.0495C23.2613 26.9919 22.8475 26.7884 22.5298 26.4708C22.2122 26.1532 22.0087 25.7393 21.9512 25.2938C21.8936 24.8484 21.9852 24.3964 22.2116 24.0084C22.438 23.6205 22.7865 23.3185 23.2027 23.1495C23.6189 22.9806 24.0793 22.9542 24.5121 23.0745L28.2931 19.2935C28.3853 19.198 28.4957 19.1219 28.6177 19.0694C28.7397 19.017 28.8709 18.9895 29.0037 18.9883C29.1365 18.9871 29.2681 19.0124 29.391 19.0627C29.5139 19.113 29.6256 19.1873 29.7195 19.2812C29.8134 19.375 29.8876 19.4867 29.9379 19.6096C29.9882 19.7325 30.0135 19.8642 30.0123 19.9969C30.0112 20.1297 29.9836 20.2609 29.9312 20.383C29.8788 20.505 29.8026 20.6153 29.7071 20.7075L25.9261 24.4885Z" fill="#323232"/>
</g>
<defs>
<clipPath id="clip0_1_269">
<rect width="24" height="24" fill="white" transform="translate(12 12)"/>
</clipPath>
</defs>
</svg>
